<svg width="50" height="50" viewBox="0 0 50 50" fill="none" xmlns="http://www.w3.org/2000/svg">
<path d="M21.2551 31.6418C21.0683 31.6421 20.8833 31.6056 20.7107 31.5342C20.538 31.4628 20.3812 31.358 20.2493 31.2258L13.8775 24.8538C13.696 24.6723 13.594 24.4261 13.594 24.1694C13.594 23.9127 13.696 23.6665 13.8775 23.485C14.059 23.3034 14.3052 23.2015 14.5619 23.2014C14.8186 23.2014 15.0648 23.3034 15.2464 23.4849L21.2551 29.4939L34.7545 15.9905C34.8443 15.9004 34.951 15.8288 35.0685 15.78C35.186 15.7311 35.312 15.7059 35.4393 15.7058C35.5665 15.7057 35.6926 15.7307 35.8102 15.7793C35.9277 15.828 36.0346 15.8993 36.1246 15.9893C36.2146 16.0793 36.2859 16.1862 36.3346 16.3037C36.3832 16.4213 36.4082 16.5474 36.4081 16.6746C36.408 16.8019 36.3828 16.9279 36.3339 17.0454C36.2851 17.1629 36.2135 17.2696 36.1234 17.3594L22.2615 31.2256C22.1294 31.3578 21.9725 31.4627 21.7998 31.5341C21.6271 31.6055 21.442 31.6421 21.2551 31.6418Z" fill="#004D99"/>
<path d="M25.1718 47.409L12.3654 38.389C10.7506 37.284 9.43153 35.7997 8.52394 34.0662C7.61634 32.3327 7.14792 30.403 7.15977 28.4463L7.08887 5.94192L8.37647 6.38502C11.108 7.32137 14.0409 7.50691 16.8687 6.92227C19.6514 6.34379 22.2342 5.04692 24.3602 3.16062L25.0026 2.59082L25.645 3.16062C27.77 5.04606 30.3511 6.34293 33.1323 6.92247C35.96 7.50765 38.8931 7.32203 41.6245 6.38502L42.9112 5.94212L42.9074 7.30297C42.8885 14.3509 42.8664 21.399 42.8412 28.4471C42.8532 30.3809 42.3966 32.2889 41.5103 34.0078C40.6241 35.7267 39.3346 37.2053 37.7523 38.3172L25.1718 47.409ZM9.03397 8.60452L9.09587 28.4404C9.08303 30.0877 9.47635 31.7128 10.241 33.1719C11.0057 34.631 12.1182 35.8791 13.48 36.806L25.1577 45.0304L36.6179 36.7478C37.9532 35.8153 39.0414 34.5716 39.7883 33.1243C40.5353 31.677 40.9186 30.0696 40.9051 28.4409C40.9273 21.8283 40.9481 15.2161 40.9675 8.60427C38.2783 9.3086 35.4627 9.38198 32.7404 8.81867L32.74 8.81842C29.906 8.22902 27.2535 6.9722 25.0026 5.15227C22.7504 6.97326 20.096 8.23017 17.2601 8.81842C14.5382 9.38174 11.7229 9.30853 9.03397 8.60452Z" fill="#004D99"/>
</svg>
