<svg width="46" height="46" viewBox="0 0 46 46" fill="none" xmlns="http://www.w3.org/2000/svg">
<path d="M41.2255 41.0015L37.488 37.2525C38.3679 35.4137 38.5691 33.3231 38.0563 31.3502C37.5435 29.3773 36.3496 27.6493 34.6857 26.4717C33.0218 25.2941 30.9951 24.7428 28.964 24.9153C26.9329 25.0877 25.0281 25.9728 23.5866 27.414C22.145 28.8552 21.2595 30.7597 21.0866 32.7908C20.9137 34.8219 21.4645 36.8487 22.6417 38.5129C23.8189 40.1771 25.5466 41.3714 27.5194 41.8847C29.4921 42.398 31.5828 42.1972 33.4218 41.3178L37.1699 45.0553C37.4362 45.3218 37.7525 45.5333 38.1006 45.6776C38.4487 45.822 38.8218 45.8963 39.1986 45.8964C39.5754 45.8966 39.9486 45.8225 40.2968 45.6784C40.645 45.5343 40.9614 45.3231 41.2279 45.0567C41.4945 44.7903 41.706 44.4741 41.8503 44.126C41.9946 43.7779 42.069 43.4048 42.0691 43.028C42.0692 42.6511 41.9951 42.278 41.8511 41.9298C41.707 41.5816 41.4957 41.2652 41.2294 40.9986L41.2255 41.0015ZM24.9645 38.2856C24.0264 37.3474 23.3876 36.1521 23.1288 34.8508C22.87 33.5495 23.0029 32.2008 23.5107 30.975C24.0184 29.7493 24.8782 28.7016 25.9814 27.9645C27.0846 27.2274 28.3815 26.834 29.7083 26.834C31.035 26.834 32.332 27.2274 33.4352 27.9645C34.5383 28.7016 35.3982 29.7493 35.9059 30.975C36.4137 32.2008 36.5466 33.5495 36.2878 34.8508C36.029 36.1521 35.3901 37.3474 34.452 38.2856C33.1931 39.5422 31.487 40.2479 29.7083 40.2479C27.9296 40.2479 26.2235 39.5422 24.9645 38.2856ZM39.8666 43.7002C39.6872 43.8775 39.4452 43.977 39.1929 43.977C38.9407 43.977 38.6986 43.8775 38.5192 43.7002L35.0874 40.2761C35.5909 39.8796 36.0457 39.4251 36.4425 38.9219L39.8666 42.3585C39.9555 42.4468 40.026 42.5518 40.0741 42.6674C40.1222 42.783 40.147 42.907 40.147 43.0322C40.147 43.1575 40.1222 43.2815 40.0741 43.3971C40.026 43.5127 39.9555 43.6177 39.8666 43.7059V43.7002Z" fill="#004D99"/>
<path d="M23.9583 42.1668H11.4999C10.7374 42.1668 10.0062 41.8639 9.46699 41.3247C8.92782 40.7855 8.62492 40.0543 8.62492 39.2918V6.70843C8.62492 5.94594 8.92782 5.21467 9.46699 4.6755C10.0062 4.13634 10.7374 3.83344 11.4999 3.83344H28.1558C28.3555 3.83395 28.5547 3.85547 28.7499 3.89764V9.58343C28.7499 10.3459 29.0528 11.0772 29.592 11.6164C30.1312 12.1555 30.8624 12.4584 31.6249 12.4584H37.3011C37.3484 12.6631 37.3732 12.8723 37.3749 13.0823V25.8751C37.3749 26.1293 37.4759 26.373 37.6556 26.5527C37.8353 26.7325 38.0791 26.8334 38.3333 26.8334C38.5874 26.8334 38.8312 26.7325 39.0109 26.5527C39.1906 26.373 39.2916 26.1293 39.2916 25.8751V13.0823C39.2929 12.4548 39.1703 11.8332 38.9309 11.2532C38.6914 10.6732 38.3398 10.1461 37.8962 9.70227L31.5521 3.32839C31.108 2.8795 30.5789 2.5235 29.9958 2.28115C29.4127 2.03879 28.7872 1.91492 28.1558 1.91677H11.4999C10.2296 1.91829 9.01166 2.42361 8.11338 3.3219C7.2151 4.22018 6.70977 5.43807 6.70825 6.70843V39.2918C6.70977 40.5621 7.2151 41.78 8.11338 42.6783C9.01166 43.5766 10.2296 44.0819 11.4999 44.0834H23.9583C24.2124 44.0834 24.4562 43.9825 24.6359 43.8027C24.8156 43.623 24.9166 43.3793 24.9166 43.1251C24.9166 42.8709 24.8156 42.6272 24.6359 42.4475C24.4562 42.2677 24.2124 42.1668 23.9583 42.1668ZM36.0275 10.5418H31.6249C31.3708 10.5418 31.127 10.4408 30.9473 10.2611C30.7676 10.0814 30.6666 9.8376 30.6666 9.58343V5.15594L36.0275 10.5418Z" fill="#004D99"/>
<path d="M13.4166 12.4584H23.9583C24.2124 12.4584 24.4562 12.3574 24.6359 12.1777C24.8156 11.998 24.9166 11.7542 24.9166 11.5001C24.9166 11.2459 24.8156 11.0022 24.6359 10.8224C24.4562 10.6427 24.2124 10.5417 23.9583 10.5417H13.4166C13.1624 10.5417 12.9187 10.6427 12.7389 10.8224C12.5592 11.0022 12.4583 11.2459 12.4583 11.5001C12.4583 11.7542 12.5592 11.998 12.7389 12.1777C12.9187 12.3574 13.1624 12.4584 13.4166 12.4584Z" fill="#004D99"/>
<path d="M32.5833 16.2917H16.2916C16.0374 16.2917 15.7937 16.3927 15.6139 16.5724C15.4342 16.7522 15.3333 16.9959 15.3333 17.2501C15.3333 17.5042 15.4342 17.748 15.6139 17.9277C15.7937 18.1074 16.0374 18.2084 16.2916 18.2084H32.5833C32.8374 18.2084 33.0812 18.1074 33.2609 17.9277C33.4406 17.748 33.5416 17.5042 33.5416 17.2501C33.5416 16.9959 33.4406 16.7522 33.2609 16.5724C33.0812 16.3927 32.8374 16.2917 32.5833 16.2917Z" fill="#004D99"/>
<path d="M33.5416 22.0418C33.5416 21.7877 33.4406 21.5439 33.2609 21.3642C33.0812 21.1845 32.8374 21.0835 32.5833 21.0835H13.4166C13.1624 21.0835 12.9187 21.1845 12.7389 21.3642C12.5592 21.5439 12.4583 21.7877 12.4583 22.0418C12.4583 22.296 12.5592 22.5398 12.7389 22.7195C12.9187 22.8992 13.1624 23.0002 13.4166 23.0002H32.5833C32.8374 23.0002 33.0812 22.8992 33.2609 22.7195C33.4406 22.5398 33.5416 22.296 33.5416 22.0418Z" fill="#004D99"/>
<path d="M20.1249 26.8333C20.1249 26.5792 20.024 26.3354 19.8442 26.1557C19.6645 25.976 19.4208 25.875 19.1666 25.875H13.4166C13.1624 25.875 12.9187 25.976 12.7389 26.1557C12.5592 26.3354 12.4583 26.5792 12.4583 26.8333C12.4583 27.0875 12.5592 27.3313 12.7389 27.511C12.9187 27.6907 13.1624 27.7917 13.4166 27.7917H19.1666C19.4208 27.7917 19.6645 27.6907 19.8442 27.511C20.024 27.3313 20.1249 27.0875 20.1249 26.8333Z" fill="#004D99"/>
<path d="M13.4166 32.5834H17.2499C17.5041 32.5834 17.7478 32.4824 17.9276 32.3027C18.1073 32.123 18.2083 31.8792 18.2083 31.6251C18.2083 31.3709 18.1073 31.1272 17.9276 30.9474C17.7478 30.7677 17.5041 30.6667 17.2499 30.6667H13.4166C13.1624 30.6667 12.9187 30.7677 12.7389 30.9474C12.5592 31.1272 12.4583 31.3709 12.4583 31.6251C12.4583 31.8792 12.5592 32.123 12.7389 32.3027C12.9187 32.4824 13.1624 32.5834 13.4166 32.5834Z" fill="#004D99"/>
<path d="M13.4166 37.3752H18.2083C18.4624 37.3752 18.7062 37.2742 18.8859 37.0945C19.0656 36.9148 19.1666 36.671 19.1666 36.4168C19.1666 36.1627 19.0656 35.9189 18.8859 35.7392C18.7062 35.5595 18.4624 35.4585 18.2083 35.4585H13.4166C13.1624 35.4585 12.9187 35.5595 12.7389 35.7392C12.5592 35.9189 12.4583 36.1627 12.4583 36.4168C12.4583 36.671 12.5592 36.9148 12.7389 37.0945C12.9187 37.2742 13.1624 37.3752 13.4166 37.3752Z" fill="#004D99"/>
<path d="M29.7082 36.4168C28.9457 36.4168 28.2144 36.1139 27.6752 35.5748C27.1361 35.0356 26.8332 34.3043 26.8332 33.5418C26.8332 33.2877 26.7322 33.0439 26.5525 32.8642C26.3728 32.6845 26.129 32.5835 25.8748 32.5835C25.6207 32.5835 25.3769 32.6845 25.1972 32.8642C25.0175 33.0439 24.9165 33.2877 24.9165 33.5418C24.918 34.8122 25.4233 36.0301 26.3216 36.9284C27.2199 37.8266 28.4378 38.332 29.7082 38.3335C29.9623 38.3335 30.2061 38.2325 30.3858 38.0528C30.5655 37.8731 30.6665 37.6293 30.6665 37.3752C30.6665 37.121 30.5655 36.8772 30.3858 36.6975C30.2061 36.5178 29.9623 36.4168 29.7082 36.4168Z" fill="#004D99"/>
</svg>
