<svg width="48" height="48" viewBox="0 0 48 48" fill="none" xmlns="http://www.w3.org/2000/svg">
<g clip-path="url(#clip0_3255_2327)">
<path d="M32.9719 20.2408C33.3469 20.3533 33.7593 20.1283 33.8718 19.7439C35.8125 13.3314 30.7125 6.53451 24 6.63763C18.3375 6.63763 13.725 11.2408 13.725 16.9126C13.725 17.8783 13.8562 18.8251 14.1187 19.7533C14.2312 20.1376 14.6344 20.3626 15.0187 20.2501C15.4031 20.1376 15.6281 19.7345 15.5156 19.3501C15.2906 18.5626 15.1781 17.747 15.1781 16.9126C15.1781 12.047 19.1344 8.09076 23.9906 8.09076C29.7562 8.00638 34.125 13.8376 32.4656 19.3408C32.3718 19.7251 32.5875 20.1376 32.9719 20.2408Z" fill="#004D99"/>
<path d="M7.99688 17.6345H11.3625C12.3281 17.6064 12.3187 16.2095 11.3625 16.1814H7.99688C7.59375 16.1814 7.26562 16.5095 7.26562 16.9126C7.275 17.3064 7.60313 17.6345 7.99688 17.6345Z" fill="#004D99"/>
<path d="M35.9062 16.9126C35.9062 17.3158 36.2344 17.6439 36.6375 17.6439H40.0031C40.4063 17.6439 40.7344 17.3158 40.7344 16.9126C40.7344 16.5095 40.4063 16.1814 40.0031 16.1814H36.6375C36.2344 16.1814 35.9062 16.5095 35.9062 16.9126Z" fill="#004D99"/>
<path d="M24 5.00635C24.4032 5.00635 24.7313 4.67822 24.7313 4.2751V0.909473C24.7313 0.506348 24.4032 0.178223 24 0.178223C23.5969 0.178223 23.2688 0.506348 23.2688 0.909473V4.2751C23.2782 4.67822 23.5969 5.00635 24 5.00635Z" fill="#004D99"/>
<path d="M34.9407 11.3157C35.0532 11.4657 38.0532 9.59069 38.2219 9.53444C39.0375 9.02819 38.3438 7.81882 37.4907 8.27819L34.575 9.96569C33.9375 10.3313 34.2094 11.3251 34.9407 11.3157Z" fill="#004D99"/>
<path d="M17.0531 6.33768C17.5593 7.15331 18.7687 6.45956 18.3093 5.60643L16.6218 2.69081C16.1156 1.87518 14.9062 2.56893 15.3656 3.42206C15.375 3.41268 17.0531 6.33768 17.0531 6.33768Z" fill="#004D99"/>
<path d="M29.9532 6.60019C30.3 6.79707 30.7407 6.68457 30.9469 6.33769L32.6344 3.42207C32.8313 3.07519 32.7188 2.62519 32.3719 2.42832C32.025 2.23144 31.575 2.34394 31.3782 2.69082L29.6907 5.60644C29.4844 5.95332 29.6063 6.39394 29.9532 6.60019Z" fill="#004D99"/>
<path d="M47.8781 39.4406L36.2438 21.9844C36.0938 21.7969 35.8875 21.6562 35.6344 21.6562H12.3656C12.1219 21.6562 11.8969 21.7781 11.7563 21.9844L0.121886 39.4406C-0.196864 39.9 0.159386 40.5937 0.731261 40.575H2.18439V47.0906C2.18439 47.4937 2.51251 47.8125 2.91564 47.8125H45.0938C45.4969 47.8125 45.825 47.4844 45.825 47.0906V38.9719L46.6781 40.2469C46.8188 40.4531 47.0531 40.5656 47.2875 40.5656C47.8313 40.5938 48.2063 39.9094 47.8781 39.4406ZM8.87814 28.9406H14.4L11.4938 33.3094H5.96251L8.87814 28.9406ZM26.2781 23.1188L23.3719 27.4875H17.1188L20.025 23.1188H26.2781ZM22.3969 28.9406L19.4906 33.3094H13.2375L16.1438 28.9406H22.3969ZM12.2719 34.7531H18.525L15.6188 39.1125H9.35626L12.2719 34.7531ZM20.2688 34.7531H26.5219C26.3344 35.0344 23.7 38.9906 23.6156 39.1125H17.3625L20.2688 34.7531ZM27.4875 33.3H21.2344L24.1406 28.9313H30.3938L27.4875 33.3ZM31.3688 27.4875H25.1156L28.0219 23.1188H34.275L31.3688 27.4875ZM12.75 23.1188H18.2813L15.375 27.4875H9.84376L12.75 23.1188ZM2.08126 39.1219L4.98751 34.7625H10.5094L7.60314 39.1219H2.08126ZM21.0938 46.3688H3.63751V40.575H21.0938V46.3688ZM44.3625 46.3688H22.5469V40.575C22.5469 40.575 23.6344 40.575 24 40.575C24.375 40.575 24.5438 40.3406 24.6094 40.2562L35.6438 23.7094L44.4188 36.8719C44.3813 36.9469 44.3625 46.3688 44.3625 46.3688Z" fill="#004D99"/>
<path d="M30.3187 35.625V42.9C30.3187 43.3032 30.6469 43.6313 31.05 43.6313H39.7781C40.1812 43.6313 40.5094 43.3032 40.5094 42.9V35.625C40.5094 35.2219 40.1812 34.8938 39.7781 34.8938H31.05C30.6469 34.9032 30.3187 35.2219 30.3187 35.625ZM36.1406 36.3563H39.0469V42.1782H36.1406V36.3563ZM31.7812 36.3563H34.6875V42.1782H31.7812V36.3563Z" fill="#004D99"/>
<path d="M11.8781 11.0906C12.7031 11.5875 13.4625 10.425 12.675 9.87186L9.86247 8.02498C9.04685 7.52811 8.2781 8.69061 9.0656 9.24373L11.8781 11.0906Z" fill="#004D99"/>
</g>
<defs>
<clipPath id="clip0_3255_2327">
<rect width="48" height="48" fill="white"/>
</clipPath>
</defs>
</svg>
