<svg width="51" height="51" viewBox="0 0 51 51" fill="none" xmlns="http://www.w3.org/2000/svg">
<path d="M30.7614 29.6381V7.28832C30.7614 3.26948 27.4919 0 23.4731 0C21.5256 0 19.696 0.758625 18.3225 2.13473C16.945 3.50964 16.1864 5.33996 16.1864 7.28832V29.6367C13.2725 31.8892 11.5481 35.379 11.5481 39.075C11.5481 45.6505 16.8976 51 23.4732 51C30.0486 51 35.3981 45.6505 35.3981 39.075C35.398 35.38 33.6743 31.8906 30.7614 29.6381ZM23.4731 49.0078C17.9961 49.0078 13.5402 44.552 13.5402 39.075C13.5402 35.8507 15.1163 32.8145 17.7565 30.9531C18.0211 30.7665 18.1785 30.4628 18.1785 30.139V7.28832C18.1785 5.87267 18.7294 4.54318 19.7311 3.5434C20.7296 2.54303 22.0585 1.99219 23.4731 1.99219C26.3933 1.99219 28.7692 4.36807 28.7692 7.28832V30.1403C28.7692 30.4641 28.9266 30.7676 29.1911 30.9543C31.8302 32.8158 33.4058 35.8515 33.4058 39.075C33.4058 44.552 28.9501 49.0078 23.4731 49.0078ZM24.4691 34.2436V8.58334C24.4691 8.0333 24.0231 7.58725 23.4731 7.58725C22.923 7.58725 22.477 8.0333 22.477 8.58334V34.2436C20.2325 34.7055 18.5395 36.6965 18.5395 39.0755C18.5395 41.7959 20.7527 44.009 23.4731 44.009C26.1934 44.009 28.4066 41.7958 28.4066 39.0755C28.4067 36.6965 26.7137 34.7055 24.4691 34.2436ZM23.4731 42.0168C21.8512 42.0168 20.5317 40.6973 20.5317 39.0755C20.5317 37.4539 21.8512 36.1347 23.4731 36.1347C25.0949 36.1347 26.4144 37.4539 26.4144 39.0755C26.4145 40.6973 25.095 42.0168 23.4731 42.0168ZM39.7534 11.1946C40.8095 12.2508 41.3909 13.6547 41.3908 15.148C41.3908 15.698 40.9447 16.144 40.3947 16.144C39.8447 16.144 39.3985 15.6979 39.3986 15.1478C39.3987 14.1867 39.0244 13.283 38.3446 12.6033C37.665 11.9236 36.7613 11.5493 35.8004 11.5493C35.8003 11.5493 35.8002 11.5493 35.8001 11.5493C35.25 11.5494 34.8039 11.1034 34.8039 10.5533C34.8038 10.0032 35.2499 9.55712 35.7999 9.55712H35.8004C37.2937 9.55712 38.6974 10.1386 39.7534 11.1946ZM45.6793 15.1479C45.6793 15.6979 45.2332 16.144 44.6832 16.144C44.1331 16.144 43.6871 15.6979 43.6871 15.1479C43.6871 13.0412 42.8667 11.0605 41.377 9.57097C39.8875 8.08131 37.9069 7.26093 35.8001 7.26093C35.2501 7.26093 34.804 6.81488 34.804 6.26483C34.804 5.71479 35.2501 5.26874 35.8001 5.26874C38.4391 5.26874 40.9199 6.29631 42.7858 8.16229C44.6517 10.0281 45.6793 12.5089 45.6793 15.1479ZM36.6734 14.2745C37.1557 14.7569 37.1557 15.539 36.6734 16.0213C36.1911 16.5036 35.409 16.5036 34.9266 16.0213C34.4443 15.5389 34.4443 14.7568 34.9266 14.2745C35.409 13.7922 36.1911 13.7922 36.6734 14.2745ZM5.32074 8.68215C5.32074 8.13211 5.76679 7.68606 6.31683 7.68606H12.0199C12.5699 7.68606 13.016 8.13211 13.016 8.68215C13.016 9.2322 12.5699 9.67825 12.0199 9.67825H6.31683C5.76679 9.67825 5.32074 9.2323 5.32074 8.68215ZM13.016 13.143C13.016 13.693 12.5699 14.1391 12.0199 14.1391H9.16835C8.61831 14.1391 8.17226 13.693 8.17226 13.143C8.17226 12.5929 8.61831 12.1469 9.16835 12.1469H12.0199C12.5699 12.1469 13.016 12.5929 13.016 13.143ZM5.32074 17.6039C5.32074 17.0538 5.76679 16.6078 6.31683 16.6078H12.0199C12.5699 16.6078 13.016 17.0538 13.016 17.6039C13.016 18.1539 12.5699 18.6 12.0199 18.6H6.31683C5.76679 18.6 5.32074 18.1539 5.32074 17.6039ZM13.016 22.0648C13.016 22.6148 12.5699 23.0609 12.0199 23.0609H9.16835C8.61831 23.0609 8.17226 22.6148 8.17226 22.0648C8.17226 21.5147 8.61831 21.0687 9.16835 21.0687H12.0199C12.5699 21.0687 13.016 21.5146 13.016 22.0648ZM12.0199 27.5217H6.31683C5.76679 27.5217 5.32074 27.0756 5.32074 26.5256C5.32074 25.9755 5.76679 25.5295 6.31683 25.5295H12.0199C12.5699 25.5295 13.016 25.9755 13.016 26.5256C13.016 27.0756 12.5699 27.5217 12.0199 27.5217Z" fill="#004D99"/>
</svg>
