<svg width="60" height="60" viewBox="0 0 60 60" fill="none" xmlns="http://www.w3.org/2000/svg">
<path d="M52.7813 19.9078C52.7238 19.9078 52.666 19.9031 52.6074 19.8933L48.4278 19.1896C47.9912 19.1163 47.6492 18.7742 47.5757 18.3375L46.8724 14.1582C46.777 13.5923 47.1586 13.0562 47.7245 12.961C48.2895 12.8652 48.8266 13.2472 48.9218 13.8132L49.5022 17.2631L52.9524 17.8439C53.5184 17.939 53.9 18.4752 53.8046 19.0412C53.7194 19.5485 53.2793 19.9078 52.7813 19.9078Z" fill="#004D99"/>
<path d="M53.5025 31.0392H42.2277C41.9046 31.0392 41.6002 30.889 41.4035 30.6329C41.2066 30.3768 41.1403 30.0439 41.2236 29.7321L41.709 27.9131L40.1028 27.1681C39.5823 26.9266 39.3559 26.3086 39.5975 25.7879C39.8391 25.2672 40.4571 25.0405 40.9777 25.2825L43.3756 26.3949C43.8333 26.6073 44.0724 27.1181 43.9422 27.6055L43.5805 28.9607H53.5026C54.0767 28.9607 54.5418 29.4259 54.5418 29.9999C54.5417 30.5741 54.0766 31.0392 53.5025 31.0392Z" fill="#004D99"/>
<path d="M55.9616 34.4916C55.6365 34.4916 55.3169 34.3398 55.1138 34.0552L52.6559 30.6023C52.3991 30.2413 52.3991 29.7575 52.6559 29.3965L55.1138 25.944C55.4474 25.4775 56.0952 25.3675 56.5634 25.7001C57.0309 26.0329 57.1403 26.6821 56.8074 27.1497L54.7783 29.9995L56.8074 32.8497C57.1404 33.3175 57.0311 33.9664 56.5634 34.2993C56.3804 34.4291 56.1701 34.4916 55.9616 34.4916Z" fill="#004D99"/>
<path d="M48.6004 42.8739C48.3345 42.8739 48.0685 42.7724 47.8656 42.5694L39.8931 34.5969C39.6563 34.3605 39.5479 34.0242 39.6021 33.694C39.6562 33.3639 39.8663 33.08 40.1659 32.9312L41.7024 32.169L41.2197 30.254C41.0796 29.6975 41.4168 29.1326 41.9734 28.9922C42.5315 28.8534 43.0951 29.1897 43.2352 29.7459L43.9225 32.4735C44.0421 32.9477 43.8147 33.4413 43.3765 33.6585L42.3853 34.1504L49.3349 41.0998C49.7409 41.5054 49.7409 42.1637 49.3349 42.5693C49.1321 42.7724 48.8663 42.8739 48.6004 42.8739Z" fill="#004D99"/>
<path d="M47.8984 47.0533C47.841 47.0533 47.7831 47.0485 47.7246 47.0387C47.1586 46.9437 46.7769 46.4075 46.8724 45.8415L47.5758 41.6619C47.6492 41.2252 47.9912 40.8832 48.4279 40.8097L52.6075 40.1063C53.1711 40.0113 53.7093 40.3922 53.8047 40.9586C53.9001 41.5245 53.5186 42.0607 52.9526 42.1558L49.5024 42.7363L48.9219 46.1865C48.8366 46.694 48.3964 47.0533 47.8984 47.0533Z" fill="#004D99"/>
<path d="M36.766 47.7758C36.1919 47.7758 35.7268 47.3107 35.7268 46.7366V35.4617C35.7268 35.138 35.8776 34.8328 36.1344 34.6363C36.3915 34.4397 36.7269 34.3733 37.0377 34.4587L38.817 34.9407L39.7251 33.3473C40.0089 32.849 40.6436 32.6741 41.1425 32.959C41.6411 33.2432 41.815 33.8779 41.5308 34.3765L40.2248 36.6687C39.9903 37.0793 39.5069 37.2803 39.0502 37.1572L37.8052 36.8199V46.7366C37.8052 47.3107 37.3401 47.7758 36.766 47.7758Z" fill="#004D99"/>
<path d="M33.3141 50.2332C32.9891 50.2332 32.6694 50.0813 32.4663 49.7966C32.1335 49.329 32.2428 48.6802 32.7105 48.3473L36.1635 45.8896C36.5241 45.6332 37.008 45.6332 37.3686 45.8896L40.8216 48.3473C41.2891 48.6802 41.3984 49.329 41.0654 49.7969C40.7319 50.2638 40.0841 50.373 39.6158 50.0409L36.7661 48.0122L33.9156 50.0409C33.7329 50.1707 33.5225 50.2332 33.3141 50.2332Z" fill="#004D99"/>
<path d="M40.5402 27.2641C40.4642 27.2641 40.3874 27.2557 40.3115 27.2386C39.9634 27.1599 39.6803 26.9089 39.5609 26.5726L38.9398 24.824L37.1348 25.5093C36.8154 25.6308 36.4575 25.5865 36.1756 25.3933C35.8946 25.1991 35.7267 24.8794 35.7267 24.5377V13.2628C35.7267 12.6888 36.1918 12.2236 36.7659 12.2236C37.34 12.2236 37.8051 12.6888 37.8051 13.2628V23.0317L39.1948 22.504C39.4557 22.4046 39.7456 22.415 40 22.5325C40.2537 22.6498 40.4493 22.8643 40.543 23.1279L40.9689 24.3268L47.8656 17.4301C48.2716 17.0241 48.9292 17.0241 49.3352 17.4301C49.7411 17.8357 49.7411 18.4941 49.3352 18.8997L41.275 26.9598C41.0782 27.1568 40.8129 27.2641 40.5402 27.2641Z" fill="#004D99"/>
<path d="M36.766 14.302C36.5549 14.302 36.3438 14.2378 36.1632 14.1096L32.7102 11.6516C32.2427 11.3187 32.1334 10.6699 32.4662 10.202C32.7995 9.73485 33.4472 9.62553 33.9158 9.95805L36.766 11.9871L39.6157 9.95805C40.084 9.62553 40.7318 9.73485 41.0653 10.202C41.3983 10.6695 41.289 11.3187 40.8215 11.6516L37.3688 14.1096C37.1881 14.2378 36.977 14.302 36.766 14.302Z" fill="#004D99"/>
<path d="M29.1734 52.6029C28.5993 52.6029 28.1342 52.1378 28.1342 51.5637V8.43568C28.1342 7.8616 28.5993 7.39648 29.1734 7.39648C29.7474 7.39648 30.2126 7.8616 30.2126 8.43568V51.5637C30.2126 52.1378 29.7474 52.6029 29.1734 52.6029Z" fill="#004D99"/>
<path d="M23.148 42.4852C16.2635 42.4852 10.6624 36.8841 10.6624 29.9992C10.6624 23.1147 16.2635 17.5137 23.148 17.5137C23.7221 17.5137 24.1872 17.9788 24.1872 18.5529C24.1872 19.127 23.7221 19.5921 23.148 19.5921C17.4096 19.5921 12.7409 24.2608 12.7409 29.9992C12.7409 35.738 17.4096 40.4068 23.148 40.4068C23.7221 40.4068 24.1872 40.8719 24.1872 41.446C24.1872 42.0201 23.7221 42.4852 23.148 42.4852Z" fill="#004D99"/>
<path d="M23.1481 50.4424C22.574 50.4424 22.1089 49.9773 22.1089 49.4032V45.0921C22.1089 44.518 22.574 44.0527 23.1481 44.0527C23.7222 44.0527 24.1873 44.518 24.1873 45.0921V49.4032C24.1873 49.9774 23.7222 50.4424 23.1481 50.4424Z" fill="#004D99"/>
<path d="M23.1481 50.4424C22.574 50.4424 22.1089 49.9773 22.1089 49.4032V45.0921C22.1089 44.518 22.574 44.0527 23.1481 44.0527C23.7222 44.0527 24.1873 44.518 24.1873 45.0921V49.4032C24.1873 49.9774 23.7222 50.4424 23.1481 50.4424Z" fill="#004D99"/>
<path d="M16.5118 49.2731C16.3937 49.2731 16.2736 49.2528 16.1562 49.2102C15.6169 49.014 15.3389 48.4176 15.5351 47.878L17.0094 43.8269C17.2056 43.2878 17.8016 43.0086 18.3416 43.2059C18.8808 43.4021 19.159 43.9985 18.9626 44.538L17.4883 48.5891C17.3348 49.0109 16.9363 49.2731 16.5118 49.2731Z" fill="#004D99"/>
<path d="M23.1481 50.4424C22.574 50.4424 22.1089 49.9773 22.1089 49.4032V45.0921C22.1089 44.518 22.574 44.0527 23.1481 44.0527C23.7222 44.0527 24.1873 44.518 24.1873 45.0921V49.4032C24.1873 49.9774 23.7222 50.4424 23.1481 50.4424Z" fill="#004D99"/>
<path d="M23.1481 50.4424C22.574 50.4424 22.1089 49.9773 22.1089 49.4032V45.0921C22.1089 44.518 22.574 44.0527 23.1481 44.0527C23.7222 44.0527 24.1873 44.518 24.1873 45.0921V49.4032C24.1873 49.9774 23.7222 50.4424 23.1481 50.4424Z" fill="#004D99"/>
<path d="M23.1481 50.4424C22.574 50.4424 22.1089 49.9773 22.1089 49.4032V45.0921C22.1089 44.518 22.574 44.0527 23.1481 44.0527C23.7222 44.0527 24.1873 44.518 24.1873 45.0921V49.4032C24.1873 49.9774 23.7222 50.4424 23.1481 50.4424Z" fill="#004D99"/>
<path d="M16.5118 49.2731C16.3937 49.2731 16.2736 49.2528 16.1562 49.2102C15.6169 49.014 15.3389 48.4176 15.5351 47.878L17.0094 43.8269C17.2056 43.2878 17.8016 43.0086 18.3416 43.2059C18.8808 43.4021 19.159 43.9985 18.9626 44.538L17.4883 48.5891C17.3348 49.0109 16.9363 49.2731 16.5118 49.2731Z" fill="#004D99"/>
<path d="M16.5118 49.2731C16.3937 49.2731 16.2736 49.2528 16.1562 49.2102C15.6169 49.014 15.3389 48.4176 15.5351 47.878L17.0094 43.8269C17.2056 43.2878 17.8016 43.0086 18.3416 43.2059C18.8808 43.4021 19.159 43.9985 18.9626 44.538L17.4883 48.5891C17.3348 49.0109 16.9363 49.2731 16.5118 49.2731Z" fill="#004D99"/>
<path d="M10.6749 45.9033C10.4394 45.9033 10.2023 45.8235 10.0074 45.6601C9.56799 45.2913 9.51051 44.6358 9.87963 44.196L12.6508 40.8936C13.019 40.4545 13.6749 40.3963 14.1149 40.7658C14.5544 41.1344 14.6118 41.7901 14.2427 42.2299L11.4716 45.5323C11.2662 45.7772 10.9716 45.9033 10.6749 45.9033Z" fill="#004D99"/>
<path d="M10.6749 45.9033C10.4394 45.9033 10.2023 45.8235 10.0074 45.6601C9.56799 45.2913 9.51051 44.6358 9.87963 44.196L12.6508 40.8936C13.019 40.4545 13.6749 40.3963 14.1149 40.7658C14.5544 41.1344 14.6118 41.7901 14.2427 42.2299L11.4716 45.5323C11.2662 45.7772 10.9716 45.9033 10.6749 45.9033Z" fill="#004D99"/>
<path d="M6.34522 40.7415C5.98594 40.7415 5.63686 40.5551 5.44438 40.2215C5.1571 39.7246 5.32762 39.0889 5.82454 38.802L9.55798 36.6465C10.0559 36.3592 10.6905 36.5295 10.9773 37.0266C11.2646 37.5237 11.0941 38.1593 10.5972 38.4461L6.86374 40.6017C6.70006 40.6965 6.5215 40.7415 6.34522 40.7415Z" fill="#004D99"/>
<path d="M6.34522 40.7415C5.98594 40.7415 5.63686 40.5551 5.44438 40.2215C5.1571 39.7246 5.32762 39.0889 5.82454 38.802L9.55798 36.6465C10.0559 36.3592 10.6905 36.5295 10.9773 37.0266C11.2646 37.5237 11.0941 38.1593 10.5972 38.4461L6.86374 40.6017C6.70006 40.6965 6.5215 40.7415 6.34522 40.7415Z" fill="#004D99"/>
<path d="M4.03805 34.4085C3.54353 34.4085 3.10469 34.0536 3.01613 33.5492C2.91629 32.9842 3.29381 32.445 3.85913 32.3456L8.10473 31.5969C8.67065 31.4978 9.20885 31.8746 9.30833 32.4399C9.40817 33.0048 9.03065 33.544 8.46533 33.6435L4.21973 34.3922C4.15877 34.4031 4.09793 34.4085 4.03805 34.4085Z" fill="#004D99"/>
<path d="M4.03805 34.4085C3.54353 34.4085 3.10469 34.0536 3.01613 33.5492C2.91629 32.9842 3.29381 32.445 3.85913 32.3456L8.10473 31.5969C8.67065 31.4978 9.20885 31.8746 9.30833 32.4399C9.40817 33.0048 9.03065 33.544 8.46533 33.6435L4.21973 34.3922C4.15877 34.4031 4.09793 34.4085 4.03805 34.4085Z" fill="#004D99"/>
<path d="M8.28629 28.4183C8.22605 28.4183 8.16545 28.4129 8.10461 28.4021L3.85901 27.6534C3.29369 27.554 2.91617 27.0148 3.01601 26.4498C3.11549 25.8842 3.65909 25.507 4.21961 25.6068L8.46521 26.3555C9.03053 26.455 9.40805 26.9942 9.30821 27.5591C9.21965 28.0634 8.78093 28.4183 8.28629 28.4183Z" fill="#004D99"/>
<path d="M8.28629 28.4183C8.22605 28.4183 8.16545 28.4129 8.10461 28.4021L3.85901 27.6534C3.29369 27.554 2.91617 27.0148 3.01601 26.4498C3.11549 25.8842 3.65909 25.507 4.21961 25.6068L8.46521 26.3555C9.03053 26.455 9.40805 26.9942 9.30821 27.5591C9.21965 28.0634 8.78093 28.4183 8.28629 28.4183Z" fill="#004D99"/>
<path d="M10.0766 23.4933C9.90034 23.4933 9.72178 23.4483 9.55798 23.3536L5.82454 21.1981C5.32762 20.9113 5.1571 20.2755 5.44438 19.7786C5.73154 19.282 6.36718 19.1108 6.86386 19.3984L10.5973 21.554C11.0942 21.8408 11.2647 22.4766 10.9775 22.9734C10.785 23.307 10.4358 23.4933 10.0766 23.4933Z" fill="#004D99"/>
<path d="M10.0766 23.4933C9.90034 23.4933 9.72178 23.4483 9.55798 23.3536L5.82454 21.1981C5.32762 20.9113 5.1571 20.2755 5.44438 19.7786C5.73154 19.282 6.36718 19.1108 6.86386 19.3984L10.5973 21.554C11.0942 21.8408 11.2647 22.4766 10.9775 22.9734C10.785 23.307 10.4358 23.4933 10.0766 23.4933Z" fill="#004D99"/>
<path d="M13.4476 19.4775C13.1508 19.4775 12.8564 19.3514 12.6509 19.1065L9.87976 15.8041C9.51064 15.3643 9.56812 14.7087 10.0076 14.3399C10.4476 13.9706 11.1036 14.0287 11.4717 14.4679L14.2428 17.7703C14.612 18.2101 14.5545 18.8656 14.115 19.2344C13.9202 19.3977 13.683 19.4775 13.4476 19.4775Z" fill="#004D99"/>
<path d="M13.4476 19.4775C13.1508 19.4775 12.8564 19.3514 12.6509 19.1065L9.87976 15.8041C9.51064 15.3643 9.56812 14.7087 10.0076 14.3399C10.4476 13.9706 11.1036 14.0287 11.4717 14.4679L14.2428 17.7703C14.612 18.2101 14.5545 18.8656 14.115 19.2344C13.9202 19.3977 13.683 19.4775 13.4476 19.4775Z" fill="#004D99"/>
<path d="M17.9861 16.8569C17.5615 16.8569 17.163 16.5947 17.0094 16.1729L15.5351 12.1219C15.3389 11.5822 15.6169 10.9858 16.1562 10.7896C16.6951 10.5931 17.2921 10.8715 17.4883 11.4107L18.9626 15.4618C19.1588 16.0013 18.8808 16.5977 18.3416 16.7939C18.2242 16.8365 18.104 16.8569 17.9861 16.8569Z" fill="#004D99"/>
<path d="M17.9861 16.8569C17.5615 16.8569 17.163 16.5947 17.0094 16.1729L15.5351 12.1219C15.3389 11.5822 15.6169 10.9858 16.1562 10.7896C16.6951 10.5931 17.2921 10.8715 17.4883 11.4107L18.9626 15.4618C19.1588 16.0013 18.8808 16.5977 18.3416 16.7939C18.2242 16.8365 18.104 16.8569 17.9861 16.8569Z" fill="#004D99"/>
<path d="M23.1481 15.9459C22.574 15.9459 22.1089 15.4808 22.1089 14.9067V10.5958C22.1089 10.0218 22.574 9.55664 23.1481 9.55664C23.7222 9.55664 24.1873 10.0218 24.1873 10.5958V14.9067C24.1873 15.4808 23.7222 15.9459 23.1481 15.9459Z" fill="#004D99"/>
</svg>
