<svg width="35" height="35" viewBox="0 0 35 35" fill="none" xmlns="http://www.w3.org/2000/svg">
<path d="M14.0712 5.01792C11.0135 1.9618 5.02997 1.60742 0.794649 1.60742C0.356016 1.60742 0 1.96336 0 2.402C0 6.63732 0.352813 12.6208 3.4105 15.6786C4.70099 16.9691 6.67961 17.546 8.64071 17.546C10.7719 17.546 12.884 16.8642 14.0712 15.677C16.3486 13.3996 16.7666 7.7117 14.0712 5.01792ZM12.9476 14.555C11.2471 16.2539 6.52548 16.5447 4.53576 14.555C2.06764 12.0869 1.6401 7.07282 1.59399 3.20141C5.4654 3.24753 10.4795 3.67498 12.9476 6.14311C14.9373 8.13282 14.6465 12.8561 12.9476 14.555Z" fill="white" fill-opacity="0.5"/>
<path d="M34.2052 4.75195C29.9699 4.75195 23.9864 5.10477 20.9286 8.16245C18.2333 10.8562 18.6512 16.5441 20.9286 18.8216C22.1158 20.0072 24.2263 20.689 26.3575 20.689C28.3186 20.689 30.2957 20.1136 31.5893 18.8232C34.6454 15.7655 34.9998 9.782 34.9998 5.5466C34.9999 5.10797 34.6438 4.75195 34.2052 4.75195ZM30.4625 17.6979C28.4728 19.6877 23.7496 19.3968 22.0507 17.6979C20.3518 15.9991 20.061 11.2758 22.0507 9.28608C24.5188 6.81795 29.5328 6.39049 33.4042 6.34438C33.3582 10.2174 32.9307 15.2315 30.4625 17.6979Z" fill="white" fill-opacity="0.5"/>
<path d="M28.4675 11.6285C28.2799 11.2296 27.7428 11.0929 27.347 11.2772C21.2523 14.1426 18.2582 19.1392 16.8977 24.2757C15.2147 13.3543 10.3468 10.0249 8.2824 8.61206C8.02494 8.43566 7.82469 8.30693 7.71347 8.19727C7.40357 7.88737 6.89975 7.88737 6.58985 8.19727C6.27995 8.50717 6.27995 9.01099 6.58985 9.32089C6.74718 9.47667 7.01895 9.67214 7.38606 9.92319C9.71272 11.5141 15.8933 15.743 15.8933 32.597C15.8933 33.0356 16.2493 33.3917 16.6879 33.3917C17.1266 33.3917 17.4826 33.0356 17.4826 32.5987C17.4826 25.7888 19.3118 16.8111 28.0241 12.7172C28.0241 12.7156 28.1528 12.6552 28.1528 12.6552C28.5485 12.4676 28.655 12.0258 28.4675 11.6285Z" fill="white" fill-opacity="0.5"/>
</svg>
