<svg width="35" height="35" viewBox="0 0 35 35" fill="none" xmlns="http://www.w3.org/2000/svg">
<path d="M9.81071 4.12272C9.94609 3.80131 9.86217 3.42834 9.60407 3.19876C9.34439 2.96837 8.97071 2.93535 8.67619 3.11498C4.28536 5.79503 2.66472 12.6849 5.20849 17.8597C7.57492 22.6744 9.00316 25.58 6.77291 30.8765C6.63753 31.1979 6.72145 31.5709 6.97955 31.8004C7.23923 32.0308 7.61292 32.0638 7.90744 31.8842C12.2967 29.2042 13.9173 22.3143 11.3743 17.1371C9.00871 12.3232 7.58046 9.41757 9.81071 4.12272ZM9.2003 28.4792C10.0997 24.2082 8.58514 21.127 6.62486 17.1387C4.95514 13.7409 5.3985 9.35796 7.38332 6.51841C6.48473 10.7878 7.99848 13.8698 9.95876 17.8589C11.6277 21.2575 11.1843 25.6396 9.2003 28.4792ZM18.5195 4.12272C18.6549 3.80131 18.571 3.42834 18.3129 3.19876C18.0532 2.96837 17.6795 2.93535 17.385 3.11498C12.995 5.79503 11.3743 12.6857 13.9173 17.8605C16.2837 22.6752 17.712 25.5808 15.4817 30.8773C15.3464 31.1987 15.4303 31.5717 15.6884 31.8012C15.9481 32.0316 16.3217 32.0647 16.6163 31.885C21.0055 29.205 22.6261 22.3151 20.0832 17.1379C17.7175 12.3232 16.2893 9.41757 18.5195 4.12272ZM17.9091 28.4792C18.8085 24.2082 17.294 21.127 15.3337 17.1387C13.664 13.7409 14.1073 9.35796 16.0922 6.51841C15.1936 10.7878 16.7073 13.8698 18.6676 17.8589C20.3365 21.2575 19.8932 25.6396 17.9091 28.4792ZM28.792 17.1379C26.4264 12.3232 24.9981 9.41757 27.2284 4.12272C27.3638 3.80131 27.2798 3.42834 27.0217 3.19876C26.7621 2.96837 26.3884 2.93535 26.0938 3.11498C21.7038 5.79503 20.0832 12.6857 22.6262 17.8605C24.9926 22.6752 26.4208 25.5808 24.1906 30.8773C24.0552 31.1987 24.1391 31.5717 24.3972 31.8012C24.6569 32.0316 25.0306 32.0647 25.3251 31.885C29.7143 29.205 31.335 22.3143 28.792 17.1379ZM26.618 28.4792C27.5173 24.2082 26.0028 21.127 24.0425 17.1387C22.3728 13.7409 22.8162 9.35796 24.801 6.51841C23.9024 10.7878 25.4161 13.8698 27.3764 17.8589C29.0453 21.2575 28.602 25.6396 26.618 28.4792Z" fill="white" fill-opacity="0.5"/>
</svg>
