<svg width="35" height="35" viewBox="0 0 35 35" fill="none" xmlns="http://www.w3.org/2000/svg">
<path d="M4.375 4.37565H14.5833V14.584H4.375V4.37565ZM20.4167 20.4173H30.625V30.6256H20.4167V20.4173ZM4.375 20.4173H14.5833V30.6256H4.375V20.4173ZM31.3542 9.47982C31.3542 11.0269 30.7396 12.5106 29.6456 13.6046C28.5517 14.6986 27.0679 15.3132 25.5208 15.3132C23.9737 15.3132 22.49 14.6986 21.396 13.6046C20.3021 12.5106 19.6875 11.0269 19.6875 9.47982C19.6875 7.93272 20.3021 6.44899 21.396 5.35503C22.49 4.26107 23.9737 3.64648 25.5208 3.64648C27.0679 3.64648 28.5517 4.26107 29.6456 5.35503C30.7396 6.44899 31.3542 7.93272 31.3542 9.47982Z" stroke="white" stroke-opacity="0.5" stroke-width="2"/>
</svg>
