<svg width="35" height="35" viewBox="0 0 35 35" fill="none" xmlns="http://www.w3.org/2000/svg">
<path d="M17.5007 33.5425C14.4075 33.539 11.4421 32.3087 9.25497 30.1215C7.06781 27.9344 5.83752 24.969 5.83398 21.8759C5.83398 11.7362 16.5586 2.05164 17.0154 1.64432C17.1488 1.52497 17.3216 1.45898 17.5007 1.45898C17.6797 1.45898 17.8525 1.52497 17.9859 1.64432C18.4427 2.05164 29.1673 11.7362 29.1673 21.8759C29.1638 24.969 27.9335 27.9344 25.7463 30.1215C23.5592 32.3087 20.5938 33.539 17.5007 33.5425ZM17.5007 3.18885C15.4103 5.20506 7.29232 13.572 7.29232 21.8759C7.29232 24.5833 8.36784 27.1798 10.2823 29.0942C12.1967 31.0087 14.7932 32.0842 17.5007 32.0842C20.2081 32.0842 22.8046 31.0087 24.719 29.0942C26.6335 27.1798 27.709 24.5833 27.709 21.8759C27.709 13.572 19.591 5.20506 17.5007 3.18885Z" fill="white" fill-opacity="0.5"/>
<path d="M13.4878 29.5518C13.3598 29.5519 13.234 29.5182 13.1233 29.454C11.7955 28.6832 10.6931 27.5779 9.92574 26.2482C9.15841 24.9185 8.75302 23.4109 8.75 21.8757C8.75 21.6823 8.82682 21.4968 8.96357 21.3601C9.10031 21.2233 9.28578 21.1465 9.47917 21.1465C9.67255 21.1465 9.85802 21.2233 9.99477 21.3601C10.1315 21.4968 10.2083 21.6823 10.2083 21.8757C10.2109 23.1552 10.5489 24.4118 11.1886 25.5199C11.8283 26.6281 12.7474 27.5492 13.8542 28.1914C13.9932 28.2718 14.1017 28.3958 14.1631 28.5442C14.2244 28.6925 14.235 28.857 14.1933 29.0121C14.1516 29.1671 14.0599 29.3041 13.9324 29.4016C13.8049 29.4992 13.6484 29.552 13.4878 29.5518Z" fill="white" fill-opacity="0.5"/>
</svg>
