<svg width="60" height="60" viewBox="0 0 60 60" fill="none" xmlns="http://www.w3.org/2000/svg">
<circle cx="29.9295" cy="29.9295" r="29.9295" fill="#F2F9FF"/>
<path fill-rule="evenodd" clip-rule="evenodd" d="M20.5604 20.2081C18.5347 22.1619 17.151 24.6855 16.593 27.444C16.035 30.2025 16.3291 33.0654 17.4361 35.6529C18.5432 38.2404 20.411 40.43 22.7915 41.9312C25.1721 43.4324 27.9529 44.1742 30.7649 44.0581C30.4559 42.6901 30.4139 40.8511 31.3544 39.0796C32.3324 37.2361 34.3574 36.4366 35.8469 36.0706C36.78 35.8449 37.7342 35.7172 38.6939 35.6896H38.7584C41.2679 35.6626 42.3974 34.8466 42.9974 34.0696C43.5104 33.4036 43.7024 32.7391 43.9004 32.0656L43.9754 31.8076C44.2197 29.748 43.9976 27.6598 43.3257 25.6976C42.6537 23.7355 41.549 21.9495 40.0934 20.4721L40.0529 20.6221C39.8084 21.5131 39.4154 22.4251 38.9864 23.0761C38.6024 23.6581 37.8584 24.2461 37.2404 24.6901C36.8046 24.9939 36.3529 25.2743 35.8874 25.5301C35.5454 25.7281 35.2379 25.9051 34.9424 26.1001C34.2944 26.5291 33.7934 26.9896 33.4559 27.6841C33.3459 27.9136 33.3272 28.1763 33.4034 28.4191C33.5159 28.8271 33.5924 29.2861 33.5924 29.7526C33.5954 30.7261 33.1004 31.5166 32.4629 32.0296C31.8158 32.5474 31.01 32.826 30.1814 32.8186C26.4989 32.7781 24.2339 29.7886 23.9354 26.4646C23.8154 25.1431 23.2364 23.8051 22.5044 22.6366C21.9544 21.7528 21.3019 20.9386 20.5604 20.2081ZM22.3109 18.7726C23.105 19.5838 23.8091 20.4785 24.4109 21.4411C25.2479 22.7761 26.0144 24.4591 26.1764 26.2621C26.4014 28.7821 27.9959 30.5431 30.2054 30.5671C30.5117 30.5687 30.8095 30.4661 31.0499 30.2761C31.2689 30.1006 31.3439 29.9161 31.3424 29.7571C31.3424 29.5231 31.3034 29.2651 31.2344 29.0146C31.0119 28.2458 31.0819 27.4219 31.4309 26.7016C32.0084 25.5106 32.8649 24.7741 33.7019 24.2221C34.0604 23.9851 34.4324 23.7721 34.7669 23.5771L34.9019 23.5021C35.2844 23.2801 35.6219 23.0821 35.9264 22.8616C36.5729 22.3966 36.9824 22.0261 37.1069 21.8356C37.3814 21.4216 37.6889 20.7346 37.8839 20.0251C38.0384 19.4641 38.0804 19.0321 38.0669 18.7651C35.753 17.1663 33.0058 16.3127 30.1934 16.3186C27.3768 16.3135 24.6262 17.1689 22.3109 18.7726ZM46.2134 32.0536C46.2834 31.4436 46.3189 30.8236 46.3199 30.1936C46.3199 21.2881 39.1004 14.0686 30.1949 14.0686C21.2894 14.0686 14.0684 21.2881 14.0684 30.1936C14.0684 39.0991 21.2879 46.3186 30.1934 46.3186C38.3834 46.3186 45.1484 40.2121 46.1819 32.3026C46.2037 32.224 46.2277 32.1459 46.2539 32.0686L46.2134 32.0536ZM42.0524 37.4041C41.1584 37.7311 40.0814 37.9261 38.7839 37.9396H38.7374L38.6024 37.9441C37.8555 37.9762 37.1135 38.0807 36.3869 38.2561C35.0339 38.5876 33.8474 39.1861 33.3434 40.1341C32.6594 41.4226 32.7584 42.8236 33.0134 43.7821C34.8766 43.3949 36.6403 42.629 38.1952 41.5318C39.7501 40.4347 41.063 39.0297 42.0524 37.4041Z" fill="#004D99"/>
</svg>
