<svg width="60" height="60" viewBox="0 0 60 60" fill="none" xmlns="http://www.w3.org/2000/svg">
<circle cx="29.9295" cy="29.9295" r="29.9295" fill="#F2F9FF"/>
<path d="M15 29.6974C15 31.6367 15.382 33.5571 16.1241 35.3488C16.8663 37.1405 17.9541 38.7685 19.3254 40.1398C20.6967 41.5112 22.3248 42.599 24.1165 43.3411C25.9082 44.0833 27.8286 44.4653 29.7679 44.4653C31.7073 44.4653 33.6276 44.0833 35.4193 43.3411C37.2111 42.599 38.8391 41.5112 40.2104 40.1398C41.5817 38.7685 42.6695 37.1405 43.4117 35.3488C44.1538 33.5571 44.5358 31.6367 44.5358 29.6974C44.5358 25.7807 42.9799 22.0244 40.2104 19.2549C37.4409 16.4853 33.6846 14.9294 29.7679 14.9294C25.8512 14.9294 22.0949 16.4853 19.3254 19.2549C16.5559 22.0244 15 25.7807 15 29.6974Z" stroke="#004D99" stroke-width="2"/>
<path d="M21.3291 29.6974C21.3291 31.9355 22.2182 34.0819 23.8008 35.6645C25.3834 37.2471 27.5298 38.1362 29.7679 38.1362C32.006 38.1362 34.1525 37.2471 35.735 35.6645C37.3176 34.0819 38.2067 31.9355 38.2067 29.6974C38.2067 27.4592 37.3176 25.3128 35.735 23.7302C34.1525 22.1476 32.006 21.2585 29.7679 21.2585C27.5298 21.2585 25.3834 22.1476 23.8008 23.7302C22.2182 25.3128 21.3291 27.4592 21.3291 29.6974Z" stroke="#004D99" stroke-width="2"/>
<path d="M27.6582 29.6973C27.6582 30.2569 27.8805 30.7935 28.2761 31.1891C28.6718 31.5848 29.2084 31.8071 29.7679 31.8071C30.3274 31.8071 30.864 31.5848 31.2597 31.1891C31.6553 30.7935 31.8776 30.2569 31.8776 29.6973C31.8776 29.1378 31.6553 28.6012 31.2597 28.2056C30.864 27.8099 30.3274 27.5876 29.7679 27.5876C29.2084 27.5876 28.6718 27.8099 28.2761 28.2056C27.8805 28.6012 27.6582 29.1378 27.6582 29.6973Z" stroke="#004D99" stroke-width="2"/>
</svg>
