<svg width="60" height="60" viewBox="0 0 60 60" fill="none" xmlns="http://www.w3.org/2000/svg">
<circle cx="29.9295" cy="29.9295" r="29.9295" fill="#F2F9FF"/>
<path d="M27.1934 45.1936H33.1934M24.1934 34.6936H36.1934M19.6934 25.6936C19.6934 22.9088 20.7996 20.2381 22.7687 18.269C24.7379 16.2999 27.4086 15.1936 30.1934 15.1936C32.9781 15.1936 35.6489 16.2999 37.618 18.269C39.5871 20.2381 40.6934 22.9088 40.6934 25.6936C40.6946 27.3843 40.2858 29.05 39.5021 30.548C38.7183 32.046 37.583 33.3316 36.1934 34.2946L35.3804 38.1436C35.2727 38.8531 34.9144 39.5004 34.3703 39.9683C33.8262 40.4361 33.1324 40.6935 32.4149 40.6936H27.9719C27.2543 40.6935 26.5605 40.4361 26.0164 39.9683C25.4724 39.5004 25.114 38.8531 25.0064 38.1436L24.1934 34.3111C22.8033 33.3447 21.6679 32.0561 20.8842 30.5554C20.1006 29.0547 19.692 27.3866 19.6934 25.6936Z" stroke="#004D99" stroke-width="2" stroke-linecap="round" stroke-linejoin="round"/>
</svg>
