<svg width="148" height="41" viewBox="0 0 148 41" fill="none" xmlns="http://www.w3.org/2000/svg">
<g clip-path="url(#clip0_3106_2014)">
<path d="M2.97561 37.5482L2.9881 3.15338C2.9881 2.42081 3.92168 2.06809 4.43375 2.61073L19.4273 18.3746C19.7583 18.7213 20.3266 18.7213 20.6544 18.3746L35.6511 2.57456C36.1663 2.03191 37.0999 2.38463 37.0999 3.1172L37.0812 37.521C37.0812 37.928 36.7377 38.2596 36.3162 38.2596H31.4516C31.03 38.2596 30.6866 37.928 30.6866 37.521V18.9022C30.6866 18.1726 29.7561 17.8199 29.2409 18.3535L20.6575 27.2439C20.3297 27.5846 19.7739 27.5846 19.443 27.2439L10.8002 18.4168C10.2819 17.8862 9.36084 18.242 9.36084 18.9715L9.37645 37.524C9.37645 37.931 9.03611 38.2626 8.61459 38.2626L3.74059 38.2838C3.31595 38.2838 2.97248 37.9551 2.97248 37.5451H2.97561V37.5482Z" fill="white"/>
<path d="M48.3154 37.114C50.3856 35.8268 52.2309 34.1807 53.7484 32.2724C53.8701 32.1187 54.0575 32.0282 54.2573 32.0282H69.2977C69.6537 32.0282 69.9409 32.3056 69.9409 32.6493V37.6024C69.9409 37.9461 69.6537 38.2234 69.2977 38.2234L48.6652 38.2506C48.0251 38.2506 47.7753 37.4457 48.3123 37.111H48.3154V37.114Z" fill="white"/>
<path d="M58.6255 16.9457C58.2383 16.9457 57.9354 17.2682 57.9854 17.639C58.0916 18.441 58.1509 19.267 58.1602 20.1202C58.1665 20.904 58.1259 21.6788 58.0385 22.4445C57.9979 22.8093 58.2976 23.1288 58.6786 23.1288H69.3976C69.7536 23.1288 70.0408 22.8515 70.0408 22.5078V17.5968C70.0408 17.2532 69.7536 16.9758 69.3976 16.9758L58.6255 16.9487V16.9457Z" fill="white"/>
<path d="M53.5673 8.14574C51.8843 6.05956 49.9828 4.43464 48.1437 3.31015C47.5973 2.97552 47.8408 2.16456 48.4872 2.16456C53.9513 2.16155 66.3877 2.1525 69.3539 2.14949C69.7099 2.14949 69.9971 2.42684 69.9971 2.77052V7.73875C69.9971 8.08243 69.7099 8.35978 69.3539 8.35978L54.0731 8.3839C53.8733 8.3839 53.689 8.29346 53.5673 8.14272V8.14574Z" fill="white"/>
<path d="M100.656 37.114C98.5855 35.8268 96.7402 34.1807 95.2227 32.2724C95.1009 32.1187 94.9136 32.0282 94.7137 32.0282H79.6733C79.3174 32.0282 79.0301 32.3056 79.0301 32.6493V37.6024C79.0301 37.9461 79.3174 38.2234 79.6733 38.2234L100.306 38.2506C100.946 38.2506 101.196 37.4457 100.659 37.111H100.656V37.114Z" fill="white"/>
<path d="M90.3456 16.9457C90.7327 16.9457 91.0356 17.2682 90.9856 17.639C90.8795 18.441 90.8202 19.267 90.8108 20.1202C90.8045 20.904 90.8451 21.6788 90.9326 22.4445C90.9732 22.8093 90.6734 23.1288 90.2925 23.1288H79.5734C79.2175 23.1288 78.9302 22.8515 78.9302 22.5078V17.5968C78.9302 17.2532 79.2175 16.9758 79.5734 16.9758L90.3456 16.9487V16.9457Z" fill="white"/>
<path d="M95.4038 8.14574C97.0867 6.05956 98.9883 4.43464 100.827 3.31015C101.374 2.97552 101.13 2.16456 100.484 2.16456C95.0197 2.16155 82.5834 2.1525 79.6171 2.14949C79.2612 2.14949 78.9739 2.42684 78.9739 2.77052V7.73875C78.9739 8.08243 79.2612 8.35978 79.6171 8.35978L94.898 8.3839C95.0978 8.3839 95.282 8.29346 95.4038 8.14272V8.14574Z" fill="white"/>
<path d="M113.47 2.68912C113.47 2.41478 113.701 2.19471 113.982 2.19471H133.503C141.05 2.19471 145.989 9.08331 145.989 14.1118C145.989 19.1404 143.607 23.9971 137.203 25.9807C136.878 26.0802 136.75 26.454 136.937 26.7284C139.666 30.6445 143.857 35.2841 145.349 37.506C145.571 37.8346 145.321 38.2687 144.918 38.2687H138.942C138.667 38.2687 138.408 38.136 138.252 37.916L126.25 21.9983C125.875 21.4647 126.265 20.7442 126.933 20.7412C128.495 20.7321 131.052 20.7231 133.821 20.7231C136.366 20.7231 139.495 18.239 139.495 14.1149C139.495 12.0257 136.775 8.29949 133.528 8.29949H120.411C120.127 8.29949 119.899 8.52257 119.899 8.7939V37.7441C119.899 38.0185 119.668 38.2385 119.387 38.2385H113.979C113.695 38.2385 113.467 38.0154 113.467 37.7441V2.68912H113.47Z" fill="white"/>
</g>
<defs>
<clipPath id="clip0_3106_2014">
<rect width="148" height="41" fill="white"/>
</clipPath>
</defs>
</svg>
