<svg width="61" height="39" viewBox="0 0 61 39" fill="none" xmlns="http://www.w3.org/2000/svg">
<path d="M0.542239 1.20293C2.91198 2.56535 5.02438 4.30746 6.76148 6.32715C6.90087 6.48988 7.11532 6.5856 7.34407 6.5856H24.5613C24.9688 6.5856 25.2976 6.29206 25.2976 5.92832V0.686039C25.2976 0.322304 24.9688 0.0287628 24.5613 0.0287628L0.942556 4.19617e-05C0.209831 4.19617e-05 -0.0761131 0.851948 0.538662 1.20612H0.542239V1.20293Z" fill="#004D99"/>
<path d="M12.3445 22.5485C11.9013 22.5485 11.5546 22.2071 11.6117 21.8147C11.7333 20.966 11.8012 20.0917 11.8119 19.1888C11.8191 18.3592 11.7726 17.5392 11.6725 16.7287C11.6261 16.3427 11.9692 16.0045 12.4052 16.0045H24.6757C25.0832 16.0045 25.412 16.298 25.412 16.6617V21.8594C25.412 22.2231 25.0832 22.5166 24.6757 22.5166L12.3445 22.5453V22.5485Z" fill="#004D99"/>
<path d="M6.55416 31.8621C4.62763 34.0701 2.4509 35.7898 0.345654 36.98C-0.279843 37.3341 -0.00105321 38.1924 0.738821 38.1924C6.9938 38.1956 21.2301 38.2052 24.6257 38.2084C25.0331 38.2084 25.362 37.9148 25.362 37.5511V32.2929C25.362 31.9291 25.0331 31.6356 24.6257 31.6356L7.13319 31.6101C6.90444 31.6101 6.69356 31.7058 6.55416 31.8653V31.8621Z" fill="#004D99"/>
<path d="M60.4577 1.20293C58.088 2.56535 55.9756 4.30746 54.2385 6.32715C54.0991 6.48988 53.8847 6.5856 53.6559 6.5856H36.4386C36.0312 6.5856 35.7023 6.29206 35.7023 5.92832V0.686039C35.7023 0.322304 36.0312 0.0287628 36.4386 0.0287628L60.0574 4.19617e-05C60.7901 4.19617e-05 61.0761 0.851948 60.4613 1.20612H60.4577V1.20293Z" fill="#004D99"/>
<path d="M48.6555 22.5485C49.0987 22.5485 49.4454 22.2071 49.3882 21.8147C49.2667 20.966 49.1988 20.0917 49.1881 19.1888C49.1809 18.3592 49.2274 17.5392 49.3275 16.7287C49.3739 16.3427 49.0308 16.0045 48.5947 16.0045H36.3243C35.9168 16.0045 35.588 16.298 35.588 16.6617V21.8594C35.588 22.2231 35.9168 22.5166 36.3243 22.5166L48.6555 22.5453V22.5485Z" fill="#004D99"/>
<path d="M54.4458 31.8621C56.3724 34.0701 58.5491 35.7898 60.6543 36.98C61.2798 37.3341 61.001 38.1924 60.2612 38.1924C54.0062 38.1956 39.7699 38.2052 36.3743 38.2084C35.9668 38.2084 35.638 37.9148 35.638 37.5511V32.2929C35.638 31.9291 35.9668 31.6356 36.3743 31.6356L53.8668 31.6101C54.0956 31.6101 54.3064 31.7058 54.4458 31.8653V31.8621Z" fill="#004D99"/>
</svg>
