<svg width="60" height="42" viewBox="0 0 60 42" fill="none" xmlns="http://www.w3.org/2000/svg">
<path d="M0.531991 1.2975C2.85694 2.76707 4.92942 4.64618 6.63368 6.82471C6.77044 7.00023 6.98084 7.10347 7.20527 7.10347H24.0971C24.4969 7.10347 24.8195 6.78685 24.8195 6.39451V0.739967C24.8195 0.347626 24.4969 0.0309982 24.0971 0.0309982L0.924742 1.90735e-05C0.205865 1.90735e-05 -0.0746745 0.918922 0.528481 1.30094H0.531991V1.2975Z" fill="white"/>
<path d="M12.1112 24.3218C11.6763 24.3218 11.3362 23.9535 11.3923 23.5302C11.5115 22.6147 11.5781 21.6717 11.5887 20.6978C11.5957 19.803 11.5501 18.9185 11.4519 18.0443C11.4063 17.6279 11.743 17.2631 12.1708 17.2631H24.2093C24.6091 17.2631 24.9317 17.5797 24.9317 17.972V23.5784C24.9317 23.9707 24.6091 24.2874 24.2093 24.2874L12.1112 24.3183V24.3218Z" fill="white"/>
<path d="M6.43029 34.3678C4.54017 36.7494 2.40458 38.6044 0.339121 39.8881C-0.274554 40.2701 -0.00103331 41.1959 0.724857 41.1959C6.86161 41.1994 20.8289 41.2097 24.1602 41.2131C24.56 41.2131 24.8826 40.8965 24.8826 40.5042V34.8324C24.8826 34.4401 24.56 34.1234 24.1602 34.1234L6.99837 34.0959C6.77394 34.0959 6.56705 34.1992 6.43029 34.3712V34.3678Z" fill="white"/>
<path d="M59.3151 1.2975C56.9901 2.76707 54.9176 4.64618 53.2134 6.82471C53.0766 7.00023 52.8662 7.10347 52.6418 7.10347H35.7499C35.3502 7.10347 35.0275 6.78685 35.0275 6.39451V0.739967C35.0275 0.347626 35.3502 0.0309982 35.7499 0.0309982L58.9223 1.90735e-05C59.6412 1.90735e-05 59.9217 0.918922 59.3186 1.30094H59.3151V1.2975Z" fill="white"/>
<path d="M47.7359 24.3218C48.1707 24.3218 48.5109 23.9535 48.4548 23.5302C48.3355 22.6147 48.2689 21.6717 48.2584 20.6978C48.2514 19.803 48.297 18.9185 48.3952 18.0443C48.4408 17.6279 48.1041 17.2631 47.6763 17.2631H35.6377C35.238 17.2631 34.9153 17.5797 34.9153 17.972V23.5784C34.9153 23.9707 35.238 24.2874 35.6377 24.2874L47.7359 24.3183V24.3218Z" fill="white"/>
<path d="M53.4168 34.3678C55.3069 36.7494 57.4425 38.6044 59.508 39.8881C60.1216 40.2701 59.8481 41.1959 59.1222 41.1959C52.9855 41.1994 39.0182 41.2097 35.6868 41.2131C35.2871 41.2131 34.9644 40.8965 34.9644 40.5042V34.8324C34.9644 34.4401 35.2871 34.1234 35.6868 34.1234L52.8487 34.0959C53.0731 34.0959 53.28 34.1992 53.4168 34.3712V34.3678Z" fill="white"/>
</svg>
