<svg width="78" height="78" viewBox="0 0 78 78" fill="none" xmlns="http://www.w3.org/2000/svg">
<path d="M56.0691 40.5919C55.1461 48.2782 50.1118 51.3494 47.9376 53.5789C45.7601 55.8149 46.1501 56.2602 46.2963 59.5394C46.3207 59.9452 46.2618 60.3516 46.1232 60.7337C45.9845 61.1157 45.7691 61.4654 45.4902 61.761C45.2113 62.0567 44.8748 62.2921 44.5014 62.4528C44.1281 62.6134 43.7258 62.6959 43.3193 62.6952H34.6808C34.2747 62.6945 33.8729 62.611 33.5 62.4499C33.1272 62.2888 32.791 62.0534 32.5122 61.7581C32.2333 61.4628 32.0175 61.1138 31.8779 60.7323C31.7384 60.3509 31.6781 59.945 31.7006 59.5394C31.7006 56.3219 31.9996 55.5744 30.0626 53.5789C27.5926 51.1089 21.7816 47.6217 21.7816 38.0309C21.7667 35.6487 22.2456 33.2892 23.1879 31.1012C24.1302 28.9132 25.5156 26.9441 27.2567 25.3181C28.9978 23.6921 31.0568 22.4444 33.3041 21.6536C35.5513 20.8629 37.938 20.5462 40.3137 20.7237C42.6894 20.9011 45.0025 21.5688 47.1074 22.6846C49.2122 23.8004 51.0631 25.3402 52.5433 27.2068C54.0235 29.0734 55.101 31.2264 55.7078 33.5302C56.3146 35.8339 56.4377 38.2383 56.0691 40.5919Z" stroke="#004D99" stroke-width="2.5" stroke-linecap="round" stroke-linejoin="round"/>
<path d="M33.9951 62.5164V67.4304C33.9951 68.7726 34.7426 69.8744 35.6624 69.8744H42.3346C43.2609 69.8744 44.0051 68.7694 44.0051 67.4304V62.5164M36.4651 28.2614C34.5461 28.2622 32.706 29.0251 31.3494 30.3824C29.9927 31.7396 29.2306 33.5801 29.2306 35.4991M62.8291 38.6874H68.7896M56.8296 19.1484L61.0579 14.9201M60.0796 55.2494L64.3079 59.4744M39.0001 7.72461V12.5444M17.0301 14.9169L21.2291 19.1484M13.7801 59.4744L17.9791 55.2494M15.1711 38.6874H9.21387" stroke="#004D99" stroke-width="2.5" stroke-linecap="round" stroke-linejoin="round"/>
</svg>
