<svg width="78" height="78" viewBox="0 0 78 78" fill="none" xmlns="http://www.w3.org/2000/svg">
<path d="M27.4219 20.17C26.9953 20.17 26.5931 19.9507 26.3616 19.5607L22.7053 13.2232C22.3641 12.6382 22.5713 11.8947 23.1563 11.5535C23.7413 11.2122 24.4847 11.4194 24.826 12.0044L28.4822 18.3419C28.8235 18.9269 28.6163 19.6703 28.0313 20.0116C27.8363 20.1213 27.6291 20.17 27.4219 20.17Z" fill="#004D99"/>
<path d="M21.1331 29.8586C20.9259 29.8586 20.7187 29.8099 20.5237 29.7002L7.92185 22.3877C7.33685 22.0464 7.14185 21.303 7.4831 20.718C7.82435 20.133 8.56779 19.938 9.15279 20.2792L21.7547 27.5917C22.3397 27.933 22.5347 28.6764 22.1934 29.2614C21.9619 29.6514 21.5597 29.8708 21.1331 29.8708V29.8586Z" fill="#004D99"/>
<path d="M15.8438 40.2188H8.53125C7.86094 40.2188 7.3125 39.6703 7.3125 39C7.3125 38.3297 7.86094 37.7812 8.53125 37.7812H15.8438C16.5141 37.7812 17.0625 38.3297 17.0625 39C17.0625 39.6703 16.5141 40.2188 15.8438 40.2188Z" fill="#004D99"/>
<path d="M8.53121 57.8916C8.11684 57.8916 7.70246 57.6722 7.4709 57.2822C7.12965 56.6972 7.33683 55.9537 7.90965 55.6125L20.5115 48.3C21.0965 47.9587 21.84 48.1659 22.1812 48.7387C22.5225 49.3237 22.3153 50.0672 21.7425 50.4084L9.14059 57.7209C8.94559 57.8306 8.7384 57.8794 8.53121 57.8794V57.8916Z" fill="#004D99"/>
<path d="M23.7656 66.6041C23.5584 66.6041 23.3512 66.5553 23.1562 66.4456C22.5712 66.1044 22.3762 65.3609 22.7053 64.7759L26.3615 58.4384C26.7028 57.8534 27.4462 57.6584 28.0312 57.9875C28.6162 58.3288 28.8112 59.0722 28.4822 59.6572L24.8259 65.9947C24.5943 66.3847 24.1922 66.6041 23.7656 66.6041Z" fill="#004D99"/>
<path d="M39 56.0625C29.5913 56.0625 21.9375 48.4088 21.9375 39C21.9375 31.5047 26.7394 24.96 33.8812 22.7297C35.5266 22.2056 37.245 21.9375 39 21.9375C39.6703 21.9375 40.2188 22.4859 40.2188 23.1562V54.8438C40.2188 55.5141 39.6703 56.0625 39 56.0625ZM37.7812 24.4238C36.6966 24.5091 35.6362 24.7284 34.6125 25.0453C28.4822 26.9587 24.375 32.565 24.375 39C24.375 46.6537 30.2859 52.9547 37.7812 53.5762V24.4238Z" fill="#004D99"/>
<path d="M27.4219 20.17C26.9953 20.17 26.5931 19.9507 26.3616 19.5607L22.7053 13.2232C22.3641 12.6382 22.5713 11.8947 23.1563 11.5535C23.7413 11.2122 24.4847 11.4194 24.826 12.0044L28.4822 18.3419C28.8235 18.9269 28.6163 19.6703 28.0313 20.0116C27.8363 20.1213 27.6291 20.17 27.4219 20.17Z" fill="#004D99"/>
<path d="M21.1331 29.8586C20.9259 29.8586 20.7187 29.8099 20.5237 29.7002L7.92185 22.3877C7.33685 22.0464 7.14185 21.303 7.4831 20.718C7.82435 20.133 8.56779 19.938 9.15279 20.2792L21.7547 27.5917C22.3397 27.933 22.5347 28.6764 22.1934 29.2614C21.9619 29.6514 21.5597 29.8708 21.1331 29.8708V29.8586Z" fill="#004D99"/>
<path d="M15.8438 40.2188H8.53125C7.86094 40.2188 7.3125 39.6703 7.3125 39C7.3125 38.3297 7.86094 37.7812 8.53125 37.7812H15.8438C16.5141 37.7812 17.0625 38.3297 17.0625 39C17.0625 39.6703 16.5141 40.2188 15.8438 40.2188Z" fill="#004D99"/>
<path d="M8.53121 57.8916C8.11684 57.8916 7.70246 57.6722 7.4709 57.2822C7.12965 56.6972 7.33683 55.9537 7.90965 55.6125L20.5115 48.3C21.0965 47.9587 21.84 48.1659 22.1812 48.7387C22.5225 49.3237 22.3153 50.0672 21.7425 50.4084L9.14059 57.7209C8.94559 57.8306 8.7384 57.8794 8.53121 57.8794V57.8916Z" fill="#004D99"/>
<path d="M23.7656 66.6041C23.5584 66.6041 23.3512 66.5553 23.1562 66.4456C22.5712 66.1044 22.3762 65.3609 22.7053 64.7759L26.3615 58.4384C26.7028 57.8534 27.4462 57.6584 28.0312 57.9875C28.6162 58.3288 28.8112 59.0722 28.4822 59.6572L24.8259 65.9947C24.5943 66.3847 24.1922 66.6041 23.7656 66.6041Z" fill="#004D99"/>
<path d="M38.9998 40.2188C38.3294 40.2188 37.781 39.6703 37.781 39V3.65625C37.781 2.98594 38.3294 2.4375 38.9998 2.4375C39.6701 2.4375 40.2185 2.98594 40.2185 3.65625V39C40.2185 39.6703 39.6701 40.2188 38.9998 40.2188Z" fill="#004D99"/>
<path d="M38.9999 15.8444C38.683 15.8444 38.3783 15.7225 38.1346 15.4909C37.6592 15.0156 37.6592 14.2478 38.1346 13.7725L46.6658 5.24125C47.1411 4.76594 47.9089 4.76594 48.3842 5.24125C48.8596 5.71656 48.8596 6.48437 48.3842 6.95969L39.853 15.4909C39.6092 15.7347 39.3046 15.8444 38.9877 15.8444H38.9999Z" fill="#004D99"/>
<path d="M38.9999 15.8444C38.683 15.8444 38.3783 15.7225 38.1346 15.4909L29.6033 6.95969C29.128 6.48437 29.128 5.71656 29.6033 5.24125C30.0786 4.76594 30.8464 4.76594 31.3217 5.24125L39.853 13.7725C40.3283 14.2478 40.3283 15.0156 39.853 15.4909C39.6092 15.7347 39.3046 15.8444 38.9877 15.8444H38.9999Z" fill="#004D99"/>
<path d="M38.9998 75.5625C38.3294 75.5625 37.781 75.0141 37.781 74.3438V39C37.781 38.3297 38.3294 37.7812 38.9998 37.7812C39.6701 37.7812 40.2185 38.3297 40.2185 39V74.3438C40.2185 75.0141 39.6701 75.5625 38.9998 75.5625Z" fill="#004D99"/>
<path d="M30.4686 73.1256C30.1517 73.1256 29.8471 73.0037 29.6033 72.7722C29.128 72.2969 29.128 71.5291 29.6033 71.0538L38.1346 62.5225C38.6099 62.0472 39.3777 62.0472 39.853 62.5225C40.3283 62.9978 40.3283 63.7656 39.853 64.2409L31.3217 72.7722C31.078 73.0159 30.7733 73.1256 30.4564 73.1256H30.4686Z" fill="#004D99"/>
<path d="M47.5311 73.1256C47.2142 73.1256 46.9096 73.0037 46.6658 72.7722L38.1346 64.2409C37.6592 63.7656 37.6592 62.9978 38.1346 62.5225C38.6099 62.0472 39.3777 62.0472 39.853 62.5225L48.3842 71.0538C48.8596 71.5291 48.8596 72.2969 48.3842 72.7722C48.1405 73.0159 47.8358 73.1256 47.5189 73.1256H47.5311Z" fill="#004D99"/>
<path d="M69.7368 57.8916C69.5297 57.8916 69.3225 57.8428 69.1275 57.7331L38.3906 40.0613C37.8056 39.72 37.6106 38.9766 37.9397 38.3916C38.2809 37.8066 39.0122 37.6116 39.6093 37.9406L70.3462 55.6125C70.9312 55.9538 71.1262 56.6972 70.7972 57.2822C70.5656 57.6722 70.1634 57.8916 69.7368 57.8916Z" fill="#004D99"/>
<path d="M63.3382 64.0582C62.8019 64.0582 62.3144 63.7048 62.1682 63.1563L59.036 51.5051C58.8654 50.8591 59.2432 50.1888 59.9013 50.006C60.5473 49.8232 61.2176 50.2132 61.4004 50.8713L64.5326 62.5226C64.7032 63.1685 64.3254 63.8388 63.6673 64.0216C63.5576 64.046 63.4601 64.0582 63.3504 64.0582H63.3382Z" fill="#004D99"/>
<path d="M60.206 52.4071C59.6698 52.4071 59.1701 52.0536 59.036 51.5052C58.8654 50.8592 59.2432 50.1889 59.9013 50.0183L71.6013 46.8983C72.2473 46.7277 72.9176 47.1055 73.0882 47.7636C73.2588 48.4096 72.881 49.0799 72.2229 49.2505L60.5229 52.3705C60.4132 52.3949 60.3157 52.4071 60.206 52.4071Z" fill="#004D99"/>
<path d="M38.9998 40.2197C38.5732 40.2197 38.171 40.0003 37.9395 39.6103C37.5982 39.0253 37.8054 38.2819 38.3904 37.9406L69.1273 20.2688C69.7123 19.9397 70.4557 20.1347 70.797 20.7197C71.1382 21.3047 70.931 22.0481 70.346 22.3894L39.6091 40.0613C39.4141 40.1709 39.207 40.2197 38.9998 40.2197Z" fill="#004D99"/>
<path d="M71.9062 31.1504C71.7965 31.1504 71.699 31.1382 71.5893 31.1138L59.8893 27.9938C59.2434 27.8232 58.8534 27.1529 59.024 26.507C59.1946 25.861 59.8771 25.471 60.5109 25.6417L72.2109 28.7617C72.8568 28.9323 73.2468 29.6026 73.0762 30.2485C72.9299 30.797 72.4424 31.1504 71.9062 31.1504Z" fill="#004D99"/>
<path d="M60.2062 28.0317C60.0965 28.0317 59.999 28.0195 59.8893 27.9952C59.2434 27.8245 58.8534 27.1542 59.024 26.4961L62.1562 14.8449C62.3268 14.1989 62.9971 13.8089 63.6552 13.9795C64.3012 14.1502 64.6912 14.8205 64.5205 15.4786L61.3884 27.1299C61.2421 27.6783 60.7546 28.0317 60.2184 28.0317H60.2062Z" fill="#004D99"/>
</svg>
