<svg width="78" height="78" viewBox="0 0 78 78" fill="none" xmlns="http://www.w3.org/2000/svg">
<path d="M46.6735 70C45.8019 70 45.0987 69.3566 44.9997 68.4723L39.4437 18.3619L33.8877 68.4723C33.7908 69.3566 33.0856 70 32.2139 70C31.3423 70 30.637 69.3567 30.5402 68.4702L26.0663 27.782L21.2682 60.5843C20.963 62.495 18.3123 62.5444 17.946 60.6381L12.8258 31.9412L9.85303 43.6183C9.65934 44.3779 8.98984 44.9072 8.22349 44.9072H1.26321C0.566338 44.9072 0 44.3284 0 43.6162C0 42.904 0.566338 42.3252 1.26321 42.3252H7.57083L11.3394 27.5238C11.5394 26.7363 12.2321 26.2091 13.0321 26.2371C13.8279 26.2672 14.4827 26.8481 14.6259 27.6486L19.5187 55.0738L24.5168 20.9009C24.6431 20.0359 25.3463 19.4184 26.2137 19.4335C27.0706 19.4485 27.7611 20.0919 27.8559 20.9612L32.216 60.6058L37.77 10.5277C37.8689 9.64335 38.5721 9 39.4437 9C40.3153 9 41.0185 9.64335 41.1175 10.5277L46.6714 60.6058L51.0315 20.9612C51.1284 20.0919 51.8189 19.4485 52.6758 19.4313C53.5285 19.4141 54.2464 20.0316 54.3727 20.8988L59.4571 55.6569L64.2931 32.1068C64.451 31.3365 65.0742 30.7879 65.8448 30.7427C66.6132 30.6996 67.2954 31.1687 67.5396 31.9175L71.2534 43.2869H76.7463C78.4158 43.345 78.42 45.8087 76.7463 45.869H70.3439C69.8007 45.869 69.3186 45.5139 69.146 44.9868L66.1269 35.7475L60.9667 60.8812C60.7983 61.6988 60.0761 62.269 59.2677 62.2475C58.4508 62.2217 57.7729 61.6063 57.6508 60.7801L52.8232 27.782L48.3493 68.4702C48.2525 69.3567 47.5472 70 46.6756 70H46.6735Z" fill="#004D99"/>
</svg>
