<svg width="78" height="78" viewBox="0 0 78 78" fill="none" xmlns="http://www.w3.org/2000/svg">
<path d="M35.2268 64.2303H53.5178C62.829 64.2303 67.4863 64.2303 69.7515 61.7603C70.385 61.076 70.8785 60.2745 71.2043 59.4008C72.3548 56.3035 70.0928 52.4035 65.5688 44.6003M44.707 71.5005L35.2268 64.2303L44.707 56.96M60.0925 35.1493L50.3978 18.4313C46.2508 11.2715 44.174 7.69326 41.275 6.82551C39.8023 6.38629 38.2335 6.38629 36.7608 6.82551C33.8618 7.69326 31.7883 11.2715 27.638 18.428M61.9418 23.6443L60.0925 35.1493L48.789 30.8918M22.1618 27.879L12.1388 45.1658C7.91378 52.4555 5.80128 56.0988 6.70803 59.0238C7.05903 60.1613 7.69603 61.2013 8.56378 62.0528C10.7965 64.2303 15.145 64.2303 23.8453 64.2303M22.165 27.879L23.9233 39.397M22.165 27.8758L10.8225 32.0553" stroke="#004D99" stroke-width="2.5" stroke-linecap="round" stroke-linejoin="round"/>
</svg>
