<svg width="78" height="78" viewBox="0 0 78 78" fill="none" xmlns="http://www.w3.org/2000/svg">
<path d="M41.6975 10.5862C40.8507 10.1999 39.9308 10 39 10C38.0692 10 37.1493 10.1999 36.3025 10.5862L8.45001 23.2612C7.87329 23.5155 7.38296 23.932 7.03873 24.4599C6.69451 24.9879 6.51123 25.6046 6.51123 26.2349C6.51123 26.8652 6.69451 27.4819 7.03873 28.0099C7.38296 28.5379 7.87329 28.9544 8.45001 29.2087L36.335 41.9162C37.1818 42.3024 38.1017 42.5023 39.0325 42.5023C39.9633 42.5023 40.8832 42.3024 41.73 41.9162L69.615 29.2412C70.1917 28.9869 70.6821 28.5704 71.0263 28.0424C71.3705 27.5144 71.5538 26.8977 71.5538 26.2674C71.5538 25.6371 71.3705 25.0204 71.0263 24.4924C70.6821 23.9645 70.1917 23.548 69.615 23.2937L41.6975 10.5862Z" stroke="#004D99" stroke-width="2.5" stroke-linecap="round" stroke-linejoin="round"/>
<path d="M6.50001 38.502C6.49847 39.1236 6.67524 39.7326 7.00934 40.2568C7.34345 40.781 7.82087 41.1984 8.38501 41.4595L36.335 54.167C37.1774 54.5484 38.0915 54.7457 39.0163 54.7457C39.941 54.7457 40.8551 54.5484 41.6975 54.167L69.5825 41.492C70.1578 41.2334 70.6454 40.813 70.9859 40.2821C71.3264 39.7512 71.505 39.1326 71.5 38.502" stroke="#004D99" stroke-width="2.5" stroke-linecap="round" stroke-linejoin="round"/>
<path d="M6.50001 52.502C6.49847 53.1236 6.67524 53.7326 7.00934 54.2568C7.34345 54.781 7.82087 55.1984 8.38501 55.4595L36.335 68.167C37.1774 68.5484 38.0915 68.7457 39.0163 68.7457C39.941 68.7457 40.8551 68.5484 41.6975 68.167L69.5825 55.492C70.1578 55.2334 70.6454 54.813 70.9859 54.2821C71.3264 53.7512 71.505 53.1326 71.5 52.502" stroke="#004D99" stroke-width="2.5" stroke-linecap="round" stroke-linejoin="round"/>
</svg>
