<svg width="46" height="46" viewBox="0 0 46 46" fill="none" xmlns="http://www.w3.org/2000/svg">
<path d="M11.6723 28.7503C10.9258 27.0631 10.5406 25.2383 10.5415 23.3932C10.5415 16.2958 16.119 10.542 22.9998 10.542C29.8807 10.542 35.4582 16.2977 35.4582 23.3952C35.4588 25.2395 35.0736 27.0637 34.3273 28.7503" stroke="white" stroke-width="2" stroke-linecap="round"/>
<path d="M22.9999 3.8335V5.75016M42.1666 23.0002H40.2499M5.74992 23.0002H3.83325M36.5508 9.4455L35.1957 10.8006M10.8042 10.8025L9.44908 9.44741M27.8242 37.0033C29.76 36.3766 30.5382 34.6037 30.7567 32.8212C30.8218 32.2883 30.3829 31.8456 29.8463 31.8456H16.2475C16.1164 31.8435 15.9864 31.8693 15.8661 31.9212C15.7457 31.9731 15.6378 32.0499 15.5494 32.1467C15.4609 32.2435 15.3941 32.3579 15.3532 32.4824C15.3123 32.607 15.2983 32.7387 15.3122 32.8691C15.5268 34.6477 16.0673 35.9492 18.1182 37.0033M27.8242 37.0033H18.1182M27.8242 37.0033C27.5923 40.7312 26.5151 42.2071 23.0133 42.1649C19.2682 42.2339 18.4057 40.4092 18.1182 37.0033" stroke="white" stroke-width="2" stroke-linecap="round" stroke-linejoin="round"/>
</svg>
