<svg width="21" height="21" viewBox="0 0 21 21" fill="none" xmlns="http://www.w3.org/2000/svg">
<path d="M2.50342 11.9219L10.6777 3.74764C11.1014 3.31496 11.6066 2.97058 12.1643 2.73444C12.7219 2.49829 13.3209 2.37507 13.9264 2.37189C14.532 2.36871 15.1322 2.48564 15.6923 2.71592C16.2524 2.9462 16.7613 3.28525 17.1895 3.71346C17.6177 4.14167 17.9567 4.65054 18.187 5.21064C18.4173 5.77073 18.5342 6.37092 18.531 6.9765C18.5279 7.58207 18.4046 8.181 18.1685 8.73865C17.9324 9.29629 17.588 9.80158 17.1553 10.2253L9.52004 17.8588C9.04704 18.3164 8.41312 18.5699 7.75498 18.5645C7.09683 18.559 6.46717 18.2952 6.00178 17.8298C5.53638 17.3644 5.27252 16.7347 5.2671 16.0766C5.26168 15.4184 5.51513 14.7845 5.97279 14.3115L13.2983 6.98514" stroke="#666666" stroke-width="1.5" stroke-linecap="round" stroke-linejoin="round"/>
</svg>
