<svg width="20" height="20" viewBox="0 0 20 20" fill="none" xmlns="http://www.w3.org/2000/svg">
<path d="M1.79556 18C1.2837 18 0.856667 17.824 0.514445 17.472C0.172222 17.12 0.000740741 16.6804 0 16.1531V3.84686C0 3.32038 0.171482 2.88114 0.514445 2.52914C0.857408 2.17714 1.28407 2.00076 1.79444 2H18.2056C18.7167 2 19.1433 2.17638 19.4856 2.52914C19.8278 2.8819 19.9993 3.32114 20 3.84686V16.1543C20 16.68 19.8285 17.1192 19.4856 17.472C19.1426 17.8248 18.7159 18.0008 18.2056 18H1.79556ZM18.8889 4.15429L10.4978 9.80457C10.4193 9.84648 10.34 9.8819 10.26 9.91086C10.1793 9.93905 10.0926 9.95314 10 9.95314C9.90741 9.95314 9.82074 9.93905 9.74 9.91086C9.65926 9.88267 9.58 9.84724 9.50222 9.80457L1.11111 4.15314V16.1531C1.11111 16.3589 1.17519 16.5276 1.30333 16.6594C1.43148 16.7912 1.59556 16.8571 1.79556 16.8571H18.2056C18.4048 16.8571 18.5685 16.7912 18.6967 16.6594C18.8248 16.5276 18.8889 16.3589 18.8889 16.1531V4.15429ZM10 8.85714L18.5467 3.14286H1.45333L10 8.85714ZM1.11111 4.39543V3.46857V3.50743V3.14286V3.50857V3.44914V4.39543Z" fill="#004D99"/>
</svg>
