<svg width="48" height="48" viewBox="0 0 48 48" fill="none" xmlns="http://www.w3.org/2000/svg">
<path d="M23.404 39.8839C23.6654 39.8839 23.9334 39.8252 24.208 39.7079C24.4827 39.5906 24.7047 39.4473 24.874 39.2779L40.466 23.6839C40.9687 23.1812 41.3567 22.6679 41.63 22.1439C41.902 21.6172 42.038 21.0399 42.038 20.4119C42.038 19.7759 41.902 19.1586 41.63 18.5599C41.3567 17.9599 40.9687 17.4132 40.466 16.9199L32.966 9.41991C32.4714 8.91725 31.9627 8.54858 31.44 8.31391C30.9187 8.07925 30.34 7.96191 29.704 7.96191C29.076 7.96191 28.4927 8.07925 27.954 8.31391C27.4154 8.54858 26.908 8.91658 26.432 9.41791L24.688 11.1619L28.388 14.8719C28.7854 15.2626 29.082 15.7066 29.278 16.2039C29.4727 16.7012 29.57 17.2059 29.57 17.7179C29.57 18.7592 29.2294 19.6206 28.548 20.3019C27.8667 20.9832 27.006 21.3232 25.966 21.3219C25.4527 21.3219 24.952 21.2439 24.464 21.0879C23.976 20.9319 23.5367 20.6586 23.146 20.2679L20.204 17.3399C19.9734 17.1092 19.6787 16.9939 19.32 16.9939C18.96 16.9939 18.6647 17.1092 18.434 17.3399L10.684 25.0899C10.4827 25.2926 10.3314 25.5226 10.23 25.7799C10.1287 26.0372 10.078 26.2972 10.078 26.5599C10.078 27.0319 10.2294 27.4206 10.532 27.7259C10.8334 28.0326 11.22 28.1859 11.692 28.1859C11.9534 28.1859 12.2214 28.1272 12.496 28.0099C12.7707 27.8912 12.9927 27.7472 13.162 27.5779L18.792 21.9479C18.9787 21.7612 19.2067 21.6592 19.476 21.6419C19.7454 21.6246 19.9894 21.7266 20.208 21.9479C20.4214 22.1612 20.528 22.3972 20.528 22.6559C20.528 22.9146 20.4214 23.1506 20.208 23.3639L14.588 28.9939C14.3854 29.1966 14.2334 29.4266 14.132 29.6839C14.032 29.9426 13.982 30.2026 13.982 30.4639C13.982 30.9106 14.1394 31.2912 14.454 31.6059C14.7687 31.9206 15.1494 32.0786 15.596 32.0799C15.8574 32.0799 16.1254 32.0206 16.4 31.9019C16.6747 31.7832 16.8967 31.6399 17.066 31.4719L23.158 25.3919C23.3447 25.2039 23.572 25.1012 23.84 25.0839C24.108 25.0666 24.352 25.1686 24.572 25.3899C24.7854 25.6032 24.892 25.8392 24.892 26.0979C24.892 26.3566 24.7854 26.5926 24.572 26.8059L18.492 32.8979C18.316 33.0672 18.1707 33.2892 18.056 33.5639C17.9414 33.8386 17.884 34.1066 17.884 34.3679C17.884 34.8132 18.042 35.1932 18.358 35.5079C18.674 35.8252 19.0547 35.9839 19.5 35.9839C19.7614 35.9839 20.0214 35.9332 20.28 35.8319C20.5387 35.7306 20.768 35.5786 20.968 35.3759L27.062 29.2959C27.2487 29.1079 27.476 29.0052 27.744 28.9879C28.012 28.9719 28.2567 29.0739 28.478 29.2939C28.69 29.5072 28.796 29.7432 28.796 30.0019C28.796 30.2606 28.6894 30.4966 28.476 30.7099L22.386 36.7999C22.1847 37.0026 22.0334 37.2459 21.932 37.5299C21.8307 37.8139 21.78 38.0732 21.78 38.3079C21.78 38.7799 21.946 39.1606 22.278 39.4499C22.61 39.7392 22.986 39.8839 23.406 39.8839M23.394 41.8839C22.366 41.8839 21.486 41.5079 20.754 40.7559C20.022 40.0039 19.7007 39.0746 19.79 37.9679C18.6567 37.9812 17.7134 37.6432 16.96 36.9539C16.2067 36.2646 15.8487 35.3019 15.886 34.0659C14.6514 34.0793 13.678 33.7259 12.966 33.0059C12.254 32.2859 11.93 31.3379 11.994 30.1619C10.882 30.1752 9.95135 29.8619 9.20202 29.2219C8.45402 28.5846 8.08002 27.6966 8.08002 26.5579C8.08002 26.0446 8.17935 25.5312 8.37802 25.0179C8.57669 24.5032 8.87002 24.0512 9.25802 23.6619L17.048 15.8719C17.6614 15.2599 18.4174 14.9539 19.316 14.9539C20.2147 14.9539 20.9707 15.2606 21.584 15.8739L24.486 18.7759C24.6554 18.9532 24.8647 19.0992 25.114 19.2139C25.3634 19.3286 25.644 19.3852 25.956 19.3839C26.384 19.3839 26.762 19.2346 27.09 18.9359C27.418 18.6372 27.5827 18.2479 27.584 17.7679C27.584 17.4559 27.5267 17.1759 27.412 16.9279C27.2974 16.6786 27.152 16.4692 26.976 16.2999L20.096 9.41991C19.6 8.91725 19.0847 8.54858 18.55 8.31391C18.0154 8.07925 17.43 7.96191 16.794 7.96191C16.166 7.96191 15.5954 8.07925 15.082 8.31391C14.57 8.54858 14.0627 8.91725 13.56 9.41991L7.47002 15.5199C6.77135 16.2172 6.32202 17.0686 6.12202 18.0739C5.92202 19.0792 6.01335 20.0392 6.39602 20.9539C6.47069 21.2126 6.43735 21.4626 6.29602 21.7039C6.15469 21.9452 5.95469 22.0986 5.69602 22.1639C5.43735 22.2292 5.18069 22.1946 4.92602 22.0599C4.67135 21.9252 4.51135 21.7272 4.44602 21.4659C4.01535 20.1726 3.92135 18.8666 4.16402 17.5479C4.40669 16.2292 5.03335 15.0646 6.04402 14.0539L12.092 8.00391C12.7894 7.31325 13.5274 6.79991 14.306 6.46391C15.0847 6.12925 15.9267 5.96191 16.832 5.96191C17.7374 5.96191 18.572 6.12991 19.336 6.46591C20.1014 6.80058 20.8294 7.31325 21.52 8.00391L23.26 9.74591L25.004 8.00391C25.7014 7.31325 26.4327 6.79991 27.198 6.46391C27.9634 6.12925 28.7987 5.96191 29.704 5.96191C30.6094 5.96191 31.4514 6.12991 32.23 6.46591C33.0074 6.80058 33.7407 7.31325 34.43 8.00391L41.882 15.4539C42.5714 16.1432 43.1034 16.9172 43.478 17.7759C43.8527 18.6346 44.0394 19.5166 44.038 20.4219C44.038 21.3286 43.8514 22.1639 43.478 22.9279C43.1047 23.6919 42.5727 24.4199 41.882 25.1119L26.288 40.6919C25.8734 41.1079 25.4214 41.4106 24.932 41.5999C24.444 41.7892 23.9327 41.8839 23.394 41.8839Z" fill="#004D99"/>
</svg>
