<svg width="20" height="20" viewBox="0 0 20 20" fill="none" xmlns="http://www.w3.org/2000/svg">
<path d="M14.4501 4.55002C14.2523 4.55002 14.059 4.60867 13.8945 4.71855C13.7301 4.82843 13.6019 4.98461 13.5262 5.16734C13.4505 5.35006 13.4307 5.55113 13.4693 5.74511C13.5079 5.93909 13.6031 6.11727 13.743 6.25713C13.8828 6.39698 14.061 6.49222 14.255 6.53081C14.449 6.56939 14.65 6.54959 14.8328 6.4739C15.0155 6.39821 15.1717 6.27004 15.2816 6.10559C15.3914 5.94114 15.4501 5.7478 15.4501 5.55002C15.4501 5.2848 15.3447 5.03045 15.1572 4.84291C14.9697 4.65538 14.7153 4.55002 14.4501 4.55002ZM18.2834 6.56669C18.2672 5.87527 18.1377 5.19119 17.9001 4.54169C17.6882 3.98596 17.3584 3.48275 16.9334 3.06669C16.5208 2.63954 16.0164 2.31183 15.4584 2.10835C14.8106 1.86349 14.1258 1.73103 13.4334 1.71669C12.5501 1.66669 12.2667 1.66669 10.0001 1.66669C7.73341 1.66669 7.45008 1.66669 6.56675 1.71669C5.87437 1.73103 5.18953 1.86349 4.54175 2.10835C3.98481 2.31389 3.48086 2.64132 3.06675 3.06669C2.6396 3.47934 2.3119 3.98372 2.10841 4.54169C1.86355 5.18947 1.73109 5.87431 1.71675 6.56669C1.66675 7.45002 1.66675 7.73335 1.66675 10C1.66675 12.2667 1.66675 12.55 1.71675 13.4334C1.73109 14.1257 1.86355 14.8106 2.10841 15.4584C2.3119 16.0163 2.6396 16.5207 3.06675 16.9334C3.48086 17.3587 3.98481 17.6861 4.54175 17.8917C5.18953 18.1366 5.87437 18.269 6.56675 18.2834C7.45008 18.3334 7.73341 18.3334 10.0001 18.3334C12.2667 18.3334 12.5501 18.3334 13.4334 18.2834C14.1258 18.269 14.8106 18.1366 15.4584 17.8917C16.0164 17.6882 16.5208 17.3605 16.9334 16.9334C17.3603 16.5188 17.6904 16.0152 17.9001 15.4584C18.1377 14.8089 18.2672 14.1248 18.2834 13.4334C18.2834 12.55 18.3334 12.2667 18.3334 10C18.3334 7.73335 18.3334 7.45002 18.2834 6.56669ZM16.7834 13.3334C16.7773 13.8623 16.6815 14.3864 16.5001 14.8834C16.367 15.246 16.1533 15.5737 15.8751 15.8417C15.6048 16.1171 15.2778 16.3304 14.9167 16.4667C14.4198 16.6481 13.8957 16.744 13.3667 16.75C12.5334 16.7917 12.2251 16.8 10.0334 16.8C7.84175 16.8 7.53341 16.8 6.70008 16.75C6.15082 16.7603 5.60391 16.6757 5.08341 16.5C4.73823 16.3568 4.42621 16.144 4.16675 15.875C3.89016 15.6073 3.67912 15.2793 3.55008 14.9167C3.34663 14.4126 3.23378 13.8766 3.21675 13.3334C3.21675 12.5 3.16675 12.1917 3.16675 10C3.16675 7.80835 3.16675 7.50002 3.21675 6.66669C3.22048 6.1259 3.31921 5.58997 3.50841 5.08335C3.65512 4.73161 3.8803 4.41807 4.16675 4.16669C4.41993 3.88016 4.73282 3.6526 5.08341 3.50002C5.59137 3.31672 6.12675 3.22092 6.66675 3.21669C7.50008 3.21669 7.80841 3.16669 10.0001 3.16669C12.1917 3.16669 12.5001 3.16669 13.3334 3.21669C13.8624 3.22275 14.3865 3.31856 14.8834 3.50002C15.2621 3.64056 15.602 3.86906 15.8751 4.16669C16.1482 4.42267 16.3615 4.73563 16.5001 5.08335C16.6853 5.5908 16.7812 6.1265 16.7834 6.66669C16.8251 7.50002 16.8334 7.80835 16.8334 10C16.8334 12.1917 16.8251 12.5 16.7834 13.3334ZM10.0001 5.72502C9.15492 5.72667 8.32922 5.97879 7.62729 6.44954C6.92537 6.92028 6.37873 7.58852 6.05644 8.36981C5.73416 9.15111 5.65068 10.0104 5.81658 10.8391C5.98247 11.6678 6.39028 12.4288 6.98848 13.0258C7.58668 13.6229 8.34842 14.0292 9.17746 14.1935C10.0065 14.3578 10.8656 14.2726 11.6463 13.9488C12.427 13.625 13.0941 13.0771 13.5635 12.3742C14.0329 11.6714 14.2834 10.8452 14.2834 10C14.2845 9.43761 14.1744 8.88053 13.9594 8.36082C13.7445 7.84111 13.4289 7.36903 13.0308 6.97173C12.6327 6.57443 12.16 6.25975 11.6399 6.04579C11.1198 5.83184 10.5625 5.72282 10.0001 5.72502ZM10.0001 12.775C9.45124 12.775 8.91472 12.6123 8.45837 12.3073C8.00203 12.0024 7.64635 11.569 7.43632 11.062C7.22628 10.5549 7.17133 9.99694 7.2784 9.45864C7.38548 8.92035 7.64977 8.42589 8.03786 8.0378C8.42595 7.64971 8.92041 7.38542 9.45871 7.27834C9.997 7.17127 10.555 7.22622 11.062 7.43625C11.5691 7.64629 12.0025 8.00197 12.3074 8.45831C12.6123 8.91466 12.7751 9.45118 12.7751 10C12.7751 10.3644 12.7033 10.7253 12.5638 11.062C12.4244 11.3986 12.22 11.7046 11.9623 11.9622C11.7046 12.2199 11.3987 12.4243 11.062 12.5638C10.7253 12.7032 10.3645 12.775 10.0001 12.775Z" fill="#004D99"/>
</svg>
