<svg width="39" height="39" viewBox="0 0 39 39" fill="none" xmlns="http://www.w3.org/2000/svg">
<path d="M8.125 8.125H29.25C30.5429 8.125 31.7829 8.63861 32.6971 9.55285C33.6114 10.4671 34.125 11.7071 34.125 13V27.625C34.125 28.9179 33.6114 30.1579 32.6971 31.0721C31.7829 31.9864 30.5429 32.5 29.25 32.5H8.125C6.83207 32.5 5.59209 31.9864 4.67785 31.0721C3.76361 30.1579 3.25 28.9179 3.25 27.625V13C3.25 11.7071 3.76361 10.4671 4.67785 9.55285C5.59209 8.63861 6.83207 8.125 8.125 8.125ZM8.125 9.75C7.3125 9.75 6.5975 10.0262 6.045 10.5137L18.6875 18.6875L31.33 10.5137C30.7775 10.0262 30.0625 9.75 29.25 9.75H8.125ZM18.6875 20.6538L5.08625 11.83C4.95625 12.1875 4.875 12.5938 4.875 13V27.625C4.875 28.487 5.21741 29.3136 5.8269 29.9231C6.4364 30.5326 7.26305 30.875 8.125 30.875H29.25C30.112 30.875 30.9386 30.5326 31.5481 29.9231C32.1576 29.3136 32.5 28.487 32.5 27.625V13C32.5 12.5938 32.4188 12.1875 32.2888 11.83L18.6875 20.6538Z" fill="#004D99"/>
</svg>
