<svg width="22" height="22" viewBox="0 0 22 22" fill="none" xmlns="http://www.w3.org/2000/svg">
<path d="M11 1.37476C8.99503 1.37712 7.07285 2.17464 5.65512 3.59237C4.23739 5.0101 3.43987 6.93228 3.4375 8.93726C3.43566 10.5756 3.9708 12.1695 4.961 13.4748C4.961 13.4748 5.16725 13.7463 5.20094 13.7855L11 20.6248L16.8018 13.7821C16.8321 13.7456 17.039 13.4748 17.039 13.4748L17.0397 13.4727C18.0292 12.1679 18.5641 10.5748 18.5625 8.93726C18.5601 6.93228 17.7626 5.0101 16.3449 3.59237C14.9272 2.17464 13.005 1.37712 11 1.37476ZM11 11.6873C10.4561 11.6873 9.92442 11.526 9.47219 11.2238C9.01995 10.9216 8.66748 10.4921 8.45934 9.98963C8.25119 9.48714 8.19674 8.9342 8.30285 8.40076C8.40895 7.86731 8.67087 7.37731 9.05546 6.99271C9.44006 6.60812 9.93006 6.34621 10.4635 6.2401C10.997 6.13399 11.5499 6.18845 12.0524 6.39659C12.5549 6.60473 12.9844 6.9572 13.2865 7.40944C13.5887 7.86167 13.75 8.39336 13.75 8.93726C13.7491 9.66632 13.4591 10.3653 12.9435 10.8808C12.428 11.3963 11.7291 11.6863 11 11.6873Z" fill="#004D99"/>
</svg>
