<svg width="52" height="52" viewBox="0 0 52 52" fill="none" xmlns="http://www.w3.org/2000/svg">
<path d="M6.5 26C6.5 29.8567 7.64366 33.6269 9.78634 36.8336C11.929 40.0404 14.9745 42.5397 18.5377 44.0156C22.1008 45.4916 26.0216 45.8777 29.8043 45.1253C33.5869 44.3729 37.0615 42.5157 39.7886 39.7886C42.5157 37.0615 44.3729 33.5869 45.1253 29.8043C45.8777 26.0216 45.4916 22.1008 44.0156 18.5377C42.5397 14.9745 40.0404 11.929 36.8336 9.78634C33.6269 7.64366 29.8567 6.5 26 6.5C20.5486 6.52051 15.3161 8.64765 11.3967 12.4367L6.5 17.3333" stroke="#004D99" stroke-width="2" stroke-linecap="round" stroke-linejoin="round"/>
<path d="M6.5 6.5V17.3333H17.3333" stroke="#004D99" stroke-width="2" stroke-linecap="round" stroke-linejoin="round"/>
</svg>
