<svg width="11" height="26" viewBox="0 0 11 26" fill="none" xmlns="http://www.w3.org/2000/svg">
<g clip-path="url(#clip0_3558_10845)">
<path d="M10.2143 13C10.2156 13.1066 10.1952 13.2122 10.1546 13.3102C10.114 13.4081 10.0541 13.4962 9.97858 13.5687L2.90715 20.8812C2.59287 21.2063 2.10573 21.2063 1.79144 20.8812C1.47715 20.5562 1.47715 20.0525 1.79144 19.7275L8.31287 12.9837L1.80715 6.25625C1.49287 5.93125 1.49287 5.4275 1.80715 5.1025C2.12144 4.7775 2.60858 4.7775 2.92287 5.1025L9.9943 12.415C10.1514 12.5775 10.23 12.7887 10.23 12.9837L10.2143 13Z" fill="#004D99"/>
</g>
<defs>
<clipPath id="clip0_3558_10845">
<rect width="26" height="11" fill="white" transform="matrix(0 -1 1 0 0 26)"/>
</clipPath>
</defs>
</svg>
