<svg width="20" height="20" viewBox="0 0 20 20" fill="none" xmlns="http://www.w3.org/2000/svg">
<path d="M16.4606 20C15.7565 20 15.1591 19.7555 14.6682 19.2664C14.178 18.7766 13.9329 18.182 13.9329 17.4825C13.9329 17.3769 13.9797 17.1106 14.0732 16.6834L6.42637 12.1731C6.19687 12.4362 5.91602 12.6428 5.58381 12.7927C5.2516 12.9426 4.89496 13.0175 4.51388 13.0175C3.81546 13.0175 3.22187 12.7705 2.73312 12.2765C2.24438 11.7825 2 11.1903 2 10.5C2 9.80967 2.24438 9.2175 2.73312 8.7235C3.22187 8.2295 3.81546 7.9825 4.51388 7.9825C4.89425 7.9825 5.2509 8.05744 5.58381 8.20733C5.91673 8.35722 6.19758 8.56411 6.42637 8.828L14.0742 4.33661C14.0247 4.20009 13.9889 4.06463 13.9669 3.93022C13.9443 3.79511 13.9329 3.65718 13.9329 3.51644C13.9329 2.81767 14.1798 2.22339 14.6735 1.73361C15.1672 1.24454 15.7665 1 16.4712 1C17.176 1 17.7739 1.24524 18.2647 1.73572C18.7556 2.2262 19.0007 2.82154 19 3.52172C18.9993 4.22191 18.7531 4.81583 18.2616 5.3035C17.77 5.79117 17.1714 6.03465 16.4659 6.03394C16.082 6.03394 15.7279 5.95583 15.4034 5.79961C15.079 5.64339 14.8028 5.43333 14.5747 5.16944L6.92575 9.67983C6.97533 9.81635 7.0111 9.95217 7.03306 10.0873C7.05573 10.2217 7.06706 10.3593 7.06706 10.5C7.06706 10.6407 7.05573 10.7783 7.03306 10.9127C7.0104 11.0471 6.97498 11.1829 6.92681 11.3202L14.5747 15.8306C14.8035 15.5667 15.0797 15.3566 15.4034 15.2004C15.7279 15.0442 16.082 14.9661 16.4659 14.9661C17.17 14.9661 17.7686 15.2109 18.2616 15.7007C18.7539 16.1919 19 16.7876 19 17.4878C19 18.188 18.7531 18.7819 18.2594 19.2696C17.7657 19.7572 17.1654 20.0007 16.4606 20ZM16.4659 18.9444C16.8831 18.9444 17.2327 18.8044 17.5146 18.5243C17.7965 18.2443 17.9375 17.8973 17.9375 17.4836C17.9375 17.0698 17.7965 16.7225 17.5146 16.4417C17.2327 16.1609 16.8835 16.0209 16.467 16.0216C16.0505 16.0223 15.7009 16.1624 15.4183 16.4417C15.1357 16.7211 14.9947 17.068 14.9954 17.4825C14.9961 17.897 15.1371 18.2443 15.4183 18.5243C15.6995 18.8044 16.048 18.9444 16.4659 18.9444ZM4.51388 11.9609C4.93604 11.9609 5.29021 11.8194 5.57637 11.5366C5.86183 11.253 6.00456 10.9074 6.00456 10.5C6.00456 10.0926 5.86183 9.74704 5.57637 9.46344C5.29092 9.17985 4.93675 9.03805 4.51388 9.03805C4.10233 9.03805 3.75773 9.17985 3.48006 9.46344C3.20169 9.74704 3.0625 10.0926 3.0625 10.5C3.0625 10.9074 3.20169 11.253 3.48006 11.5366C3.75844 11.8201 4.10304 11.9619 4.51388 11.9619M17.5093 4.55722C17.7948 4.27785 17.9375 3.93093 17.9375 3.51644C17.9375 3.10267 17.7965 2.75574 17.5146 2.47567C17.2327 2.19559 16.8835 2.05556 16.467 2.05556C16.0505 2.05556 15.7009 2.19559 15.4183 2.47567C15.1357 2.75574 14.9947 3.10302 14.9954 3.5175C14.9961 3.93198 15.1389 4.27891 15.4236 4.55828C15.7084 4.83765 16.0562 4.97768 16.467 4.97839C16.8778 4.97909 17.2253 4.838 17.5093 4.55722Z" fill="#004D99"/>
</svg>
