<svg width="52" height="52" viewBox="0 0 52 52" fill="none" xmlns="http://www.w3.org/2000/svg">
<path d="M6.5 22.5703C6.5 15.6413 6.5 12.1768 7.319 11.0112C8.13583 9.84766 11.3923 8.73183 17.9075 6.50233L19.149 6.07766C22.5442 4.91416 24.2407 4.3335 26 4.3335C27.7593 4.3335 29.4558 4.91416 32.851 6.07766L34.0925 6.50233C40.6077 8.73183 43.8642 9.84766 44.681 11.0112C45.5 12.1768 45.5 15.6435 45.5 22.5703V25.9807C45.5 38.1963 36.3155 44.1265 30.5522 46.642C28.99 47.3245 28.21 47.6668 26 47.6668C23.79 47.6668 23.01 47.3245 21.4478 46.642C15.6845 44.1243 6.5 38.1985 6.5 25.9807V22.5703Z" stroke="#004D99" stroke-width="2"/>
<path d="M20.5833 26.867L23.6795 30.3337L31.4167 21.667" stroke="#004D99" stroke-width="2" stroke-linecap="round" stroke-linejoin="round"/>
</svg>
