<svg width="38" height="38" viewBox="0 0 38 38" fill="none" xmlns="http://www.w3.org/2000/svg">
<path d="M22.3165 20.9434V4.98517C22.3165 2.2319 20.0846 0 17.3313 0C14.578 0 12.3461 2.2319 12.3461 4.98517V20.9363C8.03724 23.6854 6.7727 29.4071 9.52181 33.716C11.2183 36.375 14.1523 37.987 17.3065 37.9929L17.3561 38C22.4673 37.9904 26.6029 33.8392 26.5934 28.7281C26.5874 25.5739 24.9755 22.6399 22.3165 20.9434ZM13.4374 35.5366C9.68541 33.3705 8.39997 28.5728 10.5661 24.8209C11.2547 23.6284 12.2449 22.6382 13.4374 21.9497C13.6575 21.8225 13.7927 21.5873 13.7917 21.3331V4.98517C13.7917 3.01467 15.3891 1.41725 17.3596 1.41725C19.3301 1.41725 20.9276 3.01467 20.9276 4.98517V21.3331C20.9266 21.5873 21.0618 21.8225 21.2819 21.9497C25.0339 24.1158 26.3193 28.9135 24.1531 32.6654C21.987 36.4174 17.1893 37.7029 13.4374 35.5366Z" fill="#004D99"/>
<path d="M18.0642 23.6504V12.9005C18.0642 12.5092 17.7469 12.1919 17.3556 12.1919C16.9642 12.1919 16.6469 12.5092 16.6469 12.9005V23.6504C13.97 24.0343 12.1111 26.5155 12.495 29.1924C12.8415 31.6087 14.9146 33.4007 17.3556 33.3939C20.0599 33.4014 22.2582 31.2152 22.2657 28.5109C22.2725 26.07 20.4804 23.9969 18.0642 23.6504ZM17.3556 31.9696C15.434 31.9696 13.8762 30.4119 13.8762 28.4903C13.8801 26.5703 15.4356 25.0148 17.3556 25.0109C19.2772 25.0109 20.8349 26.5687 20.8349 28.4903C20.8349 30.4119 19.2771 31.9696 17.3556 31.9696Z" fill="#004D99"/>
<path d="M29.225 4.87158H24.7961C24.4047 4.87158 24.0874 5.18887 24.0874 5.58021C24.0874 5.97154 24.4047 6.28883 24.7961 6.28883H29.225C29.6163 6.28883 29.9336 5.97154 29.9336 5.58021C29.9336 5.18887 29.6163 4.87158 29.225 4.87158Z" fill="#004D99"/>
<path d="M28.2825 8.41504H25.6818C25.2905 8.41504 24.9732 8.73233 24.9732 9.12366C24.9732 9.515 25.2905 9.83229 25.6818 9.83229H28.2825C28.6738 9.83229 28.9911 9.515 28.9911 9.12366C28.9911 8.73233 28.6738 8.41504 28.2825 8.41504Z" fill="#004D99"/>
<path d="M29.225 11.958H24.7961C24.4047 11.958 24.0874 12.2753 24.0874 12.6666C24.0874 13.058 24.4047 13.3753 24.7961 13.3753H29.225C29.6163 13.3753 29.9336 13.058 29.9336 12.6666C29.9336 12.2753 29.6163 11.958 29.225 11.958Z" fill="#004D99"/>
<path d="M28.2825 15.501H25.6818C25.2905 15.501 24.9732 15.8183 24.9732 16.2096C24.9732 16.6009 25.2905 16.9182 25.6818 16.9182H28.2825C28.6738 16.9182 28.9911 16.6009 28.9911 16.2096C28.9911 15.8183 28.6738 15.501 28.2825 15.501Z" fill="#004D99"/>
<path d="M29.225 19.0444H24.7961C24.4047 19.0444 24.0874 19.3617 24.0874 19.7531C24.0874 20.1444 24.4047 20.4617 24.7961 20.4617H29.225C29.6163 20.4617 29.9336 20.1444 29.9336 19.7531C29.9336 19.3617 29.6163 19.0444 29.225 19.0444Z" fill="#004D99"/>
</svg>
