<svg width="20" height="20" viewBox="0 0 20 20" fill="none" xmlns="http://www.w3.org/2000/svg">
<g clip-path="url(#clip0_2243_28793)">
<path d="M10.001 4.68647e-08C11.5347 0.000443934 13.0479 0.353692 14.4233 1.03242C15.7987 1.71115 16.9996 2.69717 17.933 3.91421C18.8664 5.13125 19.5074 6.54669 19.8063 8.05106C20.1052 9.55542 20.0541 11.1084 19.6569 12.5898C19.2597 14.0713 18.527 15.4415 17.5155 16.5945C16.5041 17.7475 15.241 18.6524 13.8239 19.2392C12.4068 19.826 10.8737 20.079 9.34324 19.9785C7.81275 19.8781 6.32588 19.427 4.99763 18.66L1.09763 19.9567C0.950939 20.0053 0.793601 20.0122 0.643205 19.9766C0.492809 19.941 0.355281 19.8643 0.245993 19.755C0.136706 19.6457 0.059964 19.5082 0.0243461 19.3578C-0.0112719 19.2074 -0.0043627 19.05 0.0443013 18.9033L1.34263 15.005C0.463787 13.4848 0.00071882 11.76 8.36193e-07 10.0041C-0.000717148 8.24815 0.460941 6.52298 1.33854 5.00208C2.21615 3.48118 3.47875 2.21818 4.99938 1.3401C6.52 0.462027 8.24503 -0.000169928 10.001 4.68647e-08ZM10.001 1.66667C8.50926 1.66634 7.04481 2.06642 5.76048 2.82516C4.47615 3.58389 3.41903 4.67347 2.69945 5.98014C1.97988 7.28682 1.62424 8.76269 1.66965 10.2537C1.71507 11.7447 2.15987 13.1962 2.95763 14.4567C3.02416 14.561 3.0666 14.6789 3.08188 14.8017C3.09716 14.9245 3.08489 15.0492 3.04597 15.1667L2.15097 17.85L4.83597 16.9567C4.95333 16.9175 5.07793 16.905 5.20074 16.92C5.32355 16.9349 5.44148 16.9771 5.54597 17.0433C6.63826 17.734 7.87622 18.1612 9.16201 18.2911C10.4478 18.421 11.7462 18.2501 12.9546 17.7919C14.1629 17.3336 15.2482 16.6006 16.1245 15.6508C17.0008 14.7009 17.6443 13.5603 18.0039 12.319C18.3635 11.0777 18.4295 9.76978 18.1967 8.49859C17.9638 7.22739 17.4385 6.02777 16.6623 4.99453C15.886 3.96129 14.8801 3.12276 13.724 2.54519C12.5679 1.96763 11.2933 1.66686 10.001 1.66667ZM6.55097 5.005C6.71597 5.005 6.8793 5.005 7.02097 5.01167C7.17097 5.02167 7.3743 4.94833 7.57597 5.465C7.78097 5.99667 8.27263 7.305 8.3343 7.43667C8.39597 7.56833 8.43763 7.72333 8.35597 7.9C8.27263 8.07833 8.23097 8.18833 8.1093 8.34C7.98597 8.49667 7.85097 8.68833 7.7393 8.80667C7.61597 8.93833 7.4893 9.08 7.63263 9.34667C7.7743 9.61 8.2693 10.48 9.00097 11.1817C9.94097 12.0867 10.7343 12.3683 10.981 12.5C11.2276 12.6317 11.371 12.6067 11.5126 12.4333C11.656 12.2583 12.126 11.66 12.291 11.3933C12.4543 11.13 12.6193 11.1717 12.8443 11.2617C13.0693 11.35 14.281 11.99 14.526 12.1217C14.7726 12.2567 14.9376 12.3233 14.9976 12.435C15.061 12.545 15.061 13.0767 14.856 13.6933C14.651 14.315 13.6693 14.88 13.196 14.955C12.6779 15.049 12.1446 15.0123 11.6443 14.8483C11.1675 14.6888 10.7001 14.5024 10.2443 14.29C7.7743 13.14 6.16097 10.4633 6.0393 10.29C5.91597 10.1133 5.0343 8.85167 5.0343 7.54667C5.0343 6.24167 5.66763 5.60167 5.8943 5.33833C6.1193 5.07167 6.38763 5.005 6.55097 5.005Z" fill="#004D99"/>
</g>
<defs>
<clipPath id="clip0_2243_28793">
<rect width="20" height="20" fill="white"/>
</clipPath>
</defs>
</svg>
