<svg width="38" height="38" viewBox="0 0 38 38" fill="none" xmlns="http://www.w3.org/2000/svg">
<path d="M29.2325 14.1018C28.7862 14.5452 28.1826 14.7941 27.5533 14.7941C26.9241 14.7941 26.3205 14.5452 25.8742 14.1018L23.9022 12.1298C23.4583 11.6835 23.2091 11.0796 23.2091 10.4502C23.2091 9.82075 23.4583 9.2169 23.9022 8.77062L28.3657 4.30488C28.3745 4.29638 28.3811 4.28583 28.3849 4.27417C28.3886 4.26251 28.3894 4.25009 28.3872 4.23804C28.385 4.22599 28.3799 4.21467 28.3722 4.20509C28.3646 4.19551 28.3547 4.18798 28.3434 4.18316C25.4622 2.94816 21.7268 3.57753 19.3548 5.93249C17.0852 8.18503 16.956 11.5731 17.7873 14.53C17.9054 14.9503 17.9051 15.395 17.7864 15.8152C17.6678 16.2353 17.4354 16.6145 17.1149 16.9109L4.75001 28.2033C4.3852 28.5268 4.0904 28.9214 3.88374 29.363C3.67708 29.8046 3.56293 30.2838 3.5483 30.7711C3.53367 31.2585 3.61888 31.7436 3.79868 32.1968C3.97847 32.65 4.24907 33.0616 4.59382 33.4064C4.93857 33.7511 5.3502 34.0217 5.80338 34.2015C6.25657 34.3813 6.74175 34.4665 7.22908 34.4519C7.71642 34.4373 8.19561 34.3231 8.6372 34.1165C9.07878 33.9098 9.47344 33.615 9.79689 33.2502L21.2162 20.8557C21.5088 20.5405 21.8817 20.311 22.2949 20.1916C22.708 20.0722 23.1459 20.0676 23.5615 20.178C26.4961 20.964 29.8359 20.8163 32.0759 18.6053C34.4872 16.2303 35.0075 12.0325 33.8386 9.63007C33.8333 9.61957 33.8256 9.61047 33.8162 9.60352C33.8067 9.59657 33.7957 9.59196 33.7841 9.59008C33.7725 9.58819 33.7607 9.58909 33.7495 9.59269C33.7383 9.59628 33.7281 9.60248 33.7198 9.61078L29.2325 14.1018Z" stroke="#004D99" stroke-width="1.5" stroke-miterlimit="10" stroke-linecap="round"/>
<path d="M7.125 32.0625C7.78084 32.0625 8.3125 31.5308 8.3125 30.875C8.3125 30.2192 7.78084 29.6875 7.125 29.6875C6.46916 29.6875 5.9375 30.2192 5.9375 30.875C5.9375 31.5308 6.46916 32.0625 7.125 32.0625Z" fill="#004D99"/>
</svg>
