<svg width="61" height="42" viewBox="0 0 61 42" fill="none" xmlns="http://www.w3.org/2000/svg">
<path d="M0.542239 1.32226C2.91198 2.81988 5.02438 4.73487 6.76148 6.95499C6.90087 7.13387 7.11532 7.23908 7.34407 7.23908H24.5613C24.9688 7.23908 25.2976 6.91641 25.2976 6.51658V0.754074C25.2976 0.35424 24.9688 0.0315704 24.5613 0.0315704L0.942556 0C0.209831 0 -0.0761131 0.936447 0.538662 1.32576H0.542239V1.32226Z" fill="white"/>
<path d="M12.3445 24.7861C11.9013 24.7861 11.5546 24.4109 11.6117 23.9795C11.7333 23.0465 11.8012 22.0855 11.8119 21.0929C11.8191 20.181 11.7726 19.2797 11.6725 18.3888C11.6261 17.9644 11.9692 17.5926 12.4052 17.5926H24.6757C25.0832 17.5926 25.412 17.9153 25.412 18.3151V24.0286C25.412 24.4284 25.0832 24.7511 24.6757 24.7511L12.3445 24.7826V24.7861Z" fill="white"/>
<path d="M6.55416 35.024C4.62763 37.451 2.4509 39.3415 0.345654 40.6497C-0.279843 41.039 -0.00105321 41.9825 0.738821 41.9825C6.9938 41.986 21.2301 41.9965 24.6257 42C25.0331 42 25.362 41.6773 25.362 41.2775V35.4975C25.362 35.0976 25.0331 34.7749 24.6257 34.7749L7.13319 34.7469C6.90444 34.7469 6.69356 34.8521 6.55416 35.0275V35.024Z" fill="white"/>
<path d="M60.4577 1.32226C58.088 2.81988 55.9756 4.73487 54.2385 6.95499C54.0991 7.13387 53.8847 7.23908 53.6559 7.23908H36.4386C36.0312 7.23908 35.7023 6.91641 35.7023 6.51658V0.754074C35.7023 0.35424 36.0312 0.0315704 36.4386 0.0315704L60.0574 0C60.7901 0 61.0761 0.936447 60.4613 1.32576H60.4577V1.32226Z" fill="white"/>
<path d="M48.6555 24.7861C49.0987 24.7861 49.4454 24.4109 49.3882 23.9795C49.2667 23.0465 49.1988 22.0855 49.1881 21.0929C49.1809 20.181 49.2274 19.2797 49.3275 18.3888C49.3739 17.9644 49.0308 17.5926 48.5947 17.5926H36.3243C35.9168 17.5926 35.588 17.9153 35.588 18.3151V24.0286C35.588 24.4284 35.9168 24.7511 36.3243 24.7511L48.6555 24.7826V24.7861Z" fill="white"/>
<path d="M54.4458 35.024C56.3724 37.451 58.5491 39.3415 60.6543 40.6497C61.2798 41.039 61.001 41.9825 60.2612 41.9825C54.0062 41.986 39.7699 41.9965 36.3743 42C35.9668 42 35.638 41.6773 35.638 41.2775V35.4975C35.638 35.0976 35.9668 34.7749 36.3743 34.7749L53.8668 34.7469C54.0956 34.7469 54.3064 34.8521 54.4458 35.0275V35.024Z" fill="white"/>
</svg>
