<svg width="112" height="32" viewBox="0 0 112 32" fill="none" xmlns="http://www.w3.org/2000/svg">
<g clip-path="url(#clip0_2593_34416)">
<path d="M2.25175 29.3057L2.2612 2.46097C2.2612 1.88921 2.9677 1.61392 3.35521 2.03744L14.7017 14.341C14.9522 14.6116 15.3822 14.6116 15.6303 14.341L26.9792 2.00921C27.369 1.58568 28.0756 1.86097 28.0756 2.43274L28.0614 29.2845C28.0614 29.6022 27.8015 29.861 27.4825 29.861H23.8011C23.4821 29.861 23.2222 29.6022 23.2222 29.2845V14.7527C23.2222 14.1833 22.5181 13.908 22.1282 14.3245L15.6327 21.2633C15.3846 21.5292 14.964 21.5292 14.7135 21.2633L8.1731 14.3739C7.78087 13.9598 7.08382 14.2374 7.08382 14.8069L7.09563 29.2869C7.09563 29.6045 6.83808 29.8633 6.51909 29.8633L2.83066 29.8798C2.50931 29.8798 2.24939 29.6233 2.24939 29.3033H2.25175V29.3057Z" fill="#004D99"/>
<path d="M36.5631 28.9671C38.1296 27.9624 39.5261 26.6777 40.6744 25.1883C40.7666 25.0683 40.9084 24.9977 41.0596 24.9977H52.4415C52.7109 24.9977 52.9283 25.2142 52.9283 25.4824V29.3483C52.9283 29.6166 52.7109 29.833 52.4415 29.833L36.8277 29.8542C36.3433 29.8542 36.1543 29.226 36.5607 28.9648H36.5631V28.9671Z" fill="#004D99"/>
<path d="M44.3652 13.226C44.0722 13.226 43.843 13.4777 43.8809 13.7671C43.9612 14.393 44.0061 15.0377 44.0132 15.7036C44.0179 16.3154 43.9872 16.9201 43.921 17.5177C43.8903 17.8024 44.1171 18.0519 44.4054 18.0519H52.5171C52.7865 18.0519 53.0039 17.8354 53.0039 17.5672V13.7342C53.0039 13.466 52.7865 13.2495 52.5171 13.2495L44.3652 13.2283V13.226Z" fill="#004D99"/>
<path d="M40.5374 6.35774C39.2638 4.7295 37.8248 3.46127 36.4331 2.58362C36.0196 2.32244 36.2039 1.6895 36.693 1.6895C40.828 1.68715 50.2393 1.68009 52.4841 1.67773C52.7534 1.67773 52.9708 1.89421 52.9708 2.16244V6.04009C52.9708 6.30832 52.7534 6.52479 52.4841 6.52479L40.9202 6.54362C40.769 6.54362 40.6295 6.47303 40.5374 6.35538V6.35774Z" fill="#004D99"/>
<path d="M76.1718 28.9671C74.6052 27.9624 73.2088 26.6777 72.0604 25.1883C71.9683 25.0683 71.8265 24.9977 71.6753 24.9977H60.2933C60.024 24.9977 59.8066 25.2142 59.8066 25.4824V29.3483C59.8066 29.6166 60.024 29.833 60.2933 29.833L75.9072 29.8542C76.3916 29.8542 76.5806 29.226 76.1742 28.9648H76.1718V28.9671Z" fill="#004D99"/>
<path d="M68.3696 13.226C68.6626 13.226 68.8918 13.4777 68.854 13.7671C68.7737 14.393 68.7288 15.0377 68.7217 15.7036C68.717 16.3154 68.7477 16.9201 68.8138 17.5177C68.8446 17.8024 68.6177 18.0519 68.3295 18.0519H60.2177C59.9484 18.0519 59.731 17.8354 59.731 17.5672V13.7342C59.731 13.466 59.9484 13.2495 60.2177 13.2495L68.3696 13.2283V13.226Z" fill="#004D99"/>
<path d="M72.1975 6.35774C73.4711 4.7295 74.9101 3.46127 76.3018 2.58362C76.7153 2.32244 76.531 1.6895 76.0419 1.6895C71.9068 1.68715 62.4955 1.68009 60.2508 1.67773C59.9814 1.67773 59.7641 1.89421 59.7641 2.16244V6.04009C59.7641 6.30832 59.9814 6.52479 60.2508 6.52479L71.8147 6.54362C71.9659 6.54362 72.1053 6.47303 72.1975 6.35538V6.35774Z" fill="#004D99"/>
<path d="M85.8691 2.09877C85.8691 1.88466 86.0439 1.71289 86.2566 1.71289H101.029C106.74 1.71289 110.478 7.08936 110.478 11.0141C110.478 14.9388 108.675 18.7294 103.829 20.2776C103.583 20.3552 103.487 20.647 103.628 20.8611C105.694 23.9176 108.865 27.5388 109.994 29.2729C110.162 29.5294 109.973 29.8682 109.668 29.8682H105.145C104.937 29.8682 104.741 29.7647 104.623 29.5929L95.5403 17.1694C95.2567 16.7529 95.5521 16.1905 96.0578 16.1882C97.2392 16.1811 99.1744 16.1741 101.27 16.1741C103.196 16.1741 105.564 14.2352 105.564 11.0164C105.564 9.38583 103.506 6.4776 101.048 6.4776H91.1217C90.9067 6.4776 90.7342 6.65171 90.7342 6.86348V29.4588C90.7342 29.6729 90.5594 29.8447 90.3467 29.8447H86.2542C86.0392 29.8447 85.8667 29.6705 85.8667 29.4588V2.09877H85.8691Z" fill="#004D99"/>
</g>
<defs>
<clipPath id="clip0_2593_34416">
<rect width="112" height="32" fill="white"/>
</clipPath>
</defs>
</svg>
