<svg width="69" height="19" viewBox="0 0 69 19" fill="none" xmlns="http://www.w3.org/2000/svg">
<g clip-path="url(#clip0_3328_1008)">
<path d="M1.38727 17.4006L1.3931 1.46154C1.3931 1.12205 1.82835 0.958598 2.06708 1.21007L9.05734 8.51529C9.21164 8.67595 9.47658 8.67595 9.62943 8.51529L16.6211 1.1933C16.8613 0.941833 17.2966 1.10529 17.2966 1.44477L17.2878 17.388C17.2878 17.5766 17.1277 17.7303 16.9312 17.7303H14.6632C14.4667 17.7303 14.3066 17.5766 14.3066 17.388V8.75977C14.3066 8.42169 13.8728 8.25823 13.6326 8.50551L9.63088 12.6254C9.47803 12.7833 9.21892 12.7833 9.06462 12.6254L5.03525 8.53485C4.7936 8.28896 4.36417 8.45382 4.36417 8.79191L4.37145 17.3894C4.37145 17.578 4.21278 17.7317 4.01626 17.7317L1.74392 17.7415C1.54595 17.7415 1.38582 17.5892 1.38582 17.3992H1.38727V17.4006Z" fill="white"/>
<path d="M22.5254 17.1992C23.4906 16.6026 24.3509 15.8398 25.0583 14.9555C25.1151 14.8843 25.2025 14.8423 25.2956 14.8423H32.3077C32.4737 14.8423 32.6076 14.9709 32.6076 15.1301V17.4255C32.6076 17.5848 32.4737 17.7133 32.3077 17.7133L22.6885 17.7259C22.3901 17.7259 22.2736 17.3529 22.524 17.1978H22.5254V17.1992Z" fill="white"/>
<path d="M27.3321 7.85286C27.1516 7.85286 27.0104 8.00235 27.0337 8.17418C27.0832 8.5458 27.1109 8.9286 27.1152 9.32396C27.1182 9.6872 27.0992 10.0462 27.0585 10.4011C27.0395 10.5701 27.1793 10.7182 27.3569 10.7182H32.3543C32.5202 10.7182 32.6542 10.5897 32.6542 10.4304V8.15462C32.6542 7.99536 32.5202 7.86683 32.3543 7.86683L27.3321 7.85426V7.85286Z" fill="white"/>
<path d="M24.9739 3.77484C24.1893 2.80808 23.3028 2.05507 22.4454 1.53396C22.1906 1.37889 22.3042 1.00308 22.6055 1.00308C25.153 1.00168 30.951 0.997491 32.3339 0.996094C32.4999 0.996094 32.6338 1.12462 32.6338 1.28389V3.58624C32.6338 3.74551 32.4999 3.87404 32.3339 3.87404L25.2097 3.88521C25.1166 3.88521 25.0307 3.8433 24.9739 3.77345V3.77484Z" fill="white"/>
<path d="M46.9273 17.1992C45.9621 16.6026 45.1018 15.8398 44.3944 14.9555C44.3376 14.8843 44.2502 14.8423 44.1571 14.8423H37.145C36.979 14.8423 36.8451 14.9709 36.8451 15.1301V17.4255C36.8451 17.5848 36.979 17.7133 37.145 17.7133L46.7642 17.7259C47.0626 17.7259 47.1791 17.3529 46.9287 17.1978H46.9273V17.1992Z" fill="white"/>
<path d="M42.1206 7.85286C42.3011 7.85286 42.4423 8.00235 42.419 8.17418C42.3695 8.5458 42.3418 8.9286 42.3375 9.32396C42.3345 9.6872 42.3535 10.0462 42.3942 10.4011C42.4132 10.5701 42.2734 10.7182 42.0958 10.7182H37.0984C36.9325 10.7182 36.7985 10.5897 36.7985 10.4304V8.15462C36.7985 7.99536 36.9325 7.86683 37.0984 7.86683L42.1206 7.85426V7.85286Z" fill="white"/>
<path d="M44.4788 3.77484C45.2634 2.80808 46.1499 2.05507 47.0073 1.53396C47.2621 1.37889 47.1485 1.00308 46.8472 1.00308C44.2997 1.00168 38.5017 0.997491 37.1188 0.996094C36.9528 0.996094 36.8189 1.12462 36.8189 1.28389V3.58624C36.8189 3.74551 36.9528 3.87404 37.1188 3.87404L44.243 3.88521C44.3361 3.88521 44.422 3.8433 44.4788 3.77345V3.77484Z" fill="white"/>
<path d="M52.9015 1.24572C52.9015 1.11859 53.0092 1.0166 53.1402 1.0166H62.2412C65.7596 1.0166 68.0625 4.20888 68.0625 6.53918C68.0625 8.86947 66.9518 11.1201 63.9662 12.0394C63.8148 12.0855 63.7551 12.2587 63.8425 12.3859C65.1147 14.2006 67.0683 16.3507 67.7641 17.3804C67.8675 17.5326 67.751 17.7338 67.5632 17.7338H64.777C64.6489 17.7338 64.5281 17.6723 64.4553 17.5704L58.8596 10.1939C58.6849 9.9466 58.8669 9.61271 59.1784 9.61131C59.9063 9.60712 61.0985 9.60293 62.3897 9.60293C63.5761 9.60293 65.0347 8.45175 65.0347 6.54057C65.0347 5.57241 63.7668 3.84565 62.2528 3.84565H56.1375C56.005 3.84565 55.8987 3.94903 55.8987 4.07476V17.4907C55.8987 17.6179 55.791 17.7198 55.66 17.7198H53.1387C53.0063 17.7198 52.9 17.6165 52.9 17.4907V1.24572H52.9015Z" fill="white"/>
</g>
<defs>
<clipPath id="clip0_3328_1008">
<rect width="69" height="19" fill="white"/>
</clipPath>
</defs>
</svg>
