<svg width="20" height="20" viewBox="0 0 20 20" fill="none" xmlns="http://www.w3.org/2000/svg">
<path d="M2.616 17C2.15533 17 1.771 16.846 1.463 16.538C1.155 16.23 1.00067 15.8453 1 15.384V4.616C1 4.15533 1.15433 3.771 1.463 3.463C1.77167 3.155 2.15567 3.00067 2.615 3H17.385C17.845 3 18.229 3.15433 18.537 3.463C18.845 3.77167 18.9993 4.156 19 4.616V15.385C19 15.845 18.8457 16.2293 18.537 16.538C18.2283 16.8467 17.8443 17.0007 17.385 17H2.616ZM10 10.116L2 4.885V15.385C2 15.5643 2.05767 15.7117 2.173 15.827C2.28833 15.9423 2.436 16 2.616 16H17.385C17.5643 16 17.7117 15.9423 17.827 15.827C17.9423 15.7117 18 15.564 18 15.384V4.884L10 10.116ZM10 9L17.692 4H2.308L10 9ZM2 4.885V4V15.385C2 15.5643 2.05767 15.7117 2.173 15.827C2.28833 15.9423 2.436 16 2.616 16H2V4.885Z" fill="white"/>
</svg>
