<svg width="80" height="80" viewBox="0 0 80 80" fill="none" xmlns="http://www.w3.org/2000/svg">
<path d="M9.78674 42.5C10.4137 42.5013 11.0347 42.3785 11.614 42.1386C12.1932 41.8988 12.7192 41.5466 13.1617 41.1025L13.7505 40.5175V71.25H10.0005C9.66897 71.25 9.35103 71.3817 9.11661 71.6161C8.88219 71.8505 8.75049 72.1685 8.75049 72.5V77.5C8.75049 77.8315 8.88219 78.1494 9.11661 78.3839C9.35103 78.6183 9.66897 78.75 10.0005 78.75H70.0005C70.332 78.75 70.65 78.6183 70.8844 78.3839C71.1188 78.1494 71.2505 77.8315 71.2505 77.5V72.5C71.2505 72.1685 71.1188 71.8505 70.8844 71.6161C70.65 71.3817 70.332 71.25 70.0005 71.25H66.2505V40.5175L66.8305 41.0975C67.2735 41.5434 67.8005 41.897 68.3812 42.1378C68.9618 42.3785 69.5844 42.5016 70.213 42.5C71.1593 42.4998 72.0844 42.2191 72.8712 41.6932C73.658 41.1673 74.2711 40.42 74.6332 39.5456C74.9953 38.6713 75.0899 37.7092 74.9052 36.781C74.7205 35.8529 74.2647 35.0003 73.5955 34.3312L67.5005 28.2325V15H68.7505C69.082 15 69.4 14.8683 69.6344 14.6339C69.8688 14.3994 70.0005 14.0815 70.0005 13.75V8.74998C70.0005 8.41846 69.8688 8.10051 69.6344 7.86609C69.4 7.63167 69.082 7.49998 68.7505 7.49998H56.2505C55.919 7.49998 55.601 7.63167 55.3666 7.86609C55.1322 8.10051 55.0005 8.41846 55.0005 8.74998V13.75C55.0005 14.0815 55.1322 14.3994 55.3666 14.6339C55.601 14.8683 55.919 15 56.2505 15H57.5005V18.2325L40.8842 1.61623C40.6498 1.38189 40.3319 1.25024 40.0005 1.25024C39.669 1.25024 39.3512 1.38189 39.1167 1.61623L6.40174 34.3312C5.73237 35.0005 5.27654 35.8533 5.09191 36.7816C4.90728 37.71 5.00214 38.6723 5.36451 39.5468C5.72687 40.4212 6.34044 41.1686 7.12761 41.6942C7.91478 42.2199 8.84018 42.5003 9.78674 42.5ZM68.7505 76.25H11.2505V73.75H68.7505V76.25ZM63.7505 71.25H16.2505V38.0175L40.0005 14.2675L63.7505 38.0175V71.25ZM57.5005 9.99998H67.5005V12.5H57.5005V9.99998ZM60.0005 15H65.0005V25.7325L60.0005 20.7325V15ZM8.16924 36.0987L40.0005 4.26748L71.8317 36.0987C72.151 36.4186 72.3682 36.8259 72.4561 37.2692C72.544 37.7125 72.4985 38.1719 72.3254 38.5894C72.1523 39.0068 71.8594 39.3636 71.4837 39.6147C71.1079 39.8658 70.6662 39.9998 70.2142 40C69.9133 40.0052 69.6144 39.9485 69.3364 39.8332C69.0583 39.7179 68.807 39.5466 68.598 39.33L40.8842 11.6162C40.6498 11.3819 40.3319 11.2502 40.0005 11.2502C39.669 11.2502 39.3512 11.3819 39.1167 11.6162L11.398 39.335C10.9658 39.7481 10.389 39.9754 9.79116 39.9683C9.19334 39.9612 8.62209 39.7202 8.19983 39.297C7.77757 38.8737 7.5379 38.3019 7.53218 37.7041C7.52646 37.1063 7.75515 36.53 8.16924 36.0987Z" fill="#004D99"/>
<path d="M33.7499 35V53.8875C32.6544 55.0034 31.8783 56.3926 31.5024 57.9104C31.1266 59.4283 31.1646 61.0191 31.6127 62.5173C32.0608 64.0154 32.9025 65.3659 34.0501 66.428C35.1977 67.4902 36.6091 68.2251 38.1374 68.5562C38.7453 68.6842 39.3648 68.7491 39.9861 68.75C41.7101 68.7552 43.3971 68.2505 44.8349 67.2993C46.2727 66.3482 47.3971 64.993 48.0667 63.4044C48.7362 61.8157 48.9209 60.0645 48.5977 58.3711C48.2744 56.6777 47.4575 55.1178 46.2499 53.8875V35C46.2499 33.3424 45.5914 31.7527 44.4193 30.5806C43.2472 29.4085 41.6575 28.75 39.9999 28.75C38.3423 28.75 36.7525 29.4085 35.5804 30.5806C34.4083 31.7527 33.7499 33.3424 33.7499 35ZM43.7499 35V54.4212C43.7499 54.5967 43.7869 54.7702 43.8584 54.9304C43.9299 55.0907 44.0343 55.234 44.1649 55.3512C45.1086 56.195 45.7739 57.3054 46.0727 58.5355C46.3714 59.7657 46.2896 61.0575 45.8381 62.2401C45.3865 63.4228 44.5864 64.4404 43.5438 65.1583C42.5012 65.8762 41.2651 66.2607 39.9992 66.2607C38.7333 66.2607 37.4973 65.8762 36.4546 65.1583C35.412 64.4404 34.612 63.4228 34.1604 62.2401C33.7088 61.0575 33.627 59.7657 33.9258 58.5355C34.2246 57.3054 34.8899 56.195 35.8336 55.3512C35.9644 55.2341 36.0691 55.0908 36.1408 54.9306C36.2125 54.7703 36.2497 54.5968 36.2499 54.4212V50H41.2499V47.5H36.2499V45H41.2499V42.5H36.2499V40H41.2499V37.5H36.2499V35C36.2499 34.0054 36.6449 33.0516 37.3482 32.3483C38.0515 31.6451 39.0053 31.25 39.9999 31.25C40.9944 31.25 41.9482 31.6451 42.6515 32.3483C43.3548 33.0516 43.7499 34.0054 43.7499 35Z" fill="#004D99"/>
<path d="M36.25 60C36.25 60.7417 36.4699 61.4667 36.882 62.0834C37.294 62.7001 37.8797 63.1807 38.5649 63.4645C39.2502 63.7484 40.0042 63.8226 40.7316 63.6779C41.459 63.5333 42.1272 63.1761 42.6516 62.6516C43.1761 62.1272 43.5333 61.459 43.6779 60.7316C43.8226 60.0042 43.7484 59.2502 43.4645 58.5649C43.1807 57.8797 42.7001 57.294 42.0834 56.882C41.4667 56.4699 40.7417 56.25 40 56.25C39.0054 56.25 38.0516 56.6451 37.3483 57.3484C36.6451 58.0516 36.25 59.0054 36.25 60ZM41.25 60C41.25 60.2472 41.1767 60.4889 41.0393 60.6945C40.902 60.9 40.7068 61.0602 40.4784 61.1548C40.2499 61.2495 39.9986 61.2742 39.7561 61.226C39.5137 61.1778 39.2909 61.0587 39.1161 60.8839C38.9413 60.7091 38.8222 60.4863 38.774 60.2439C38.7258 60.0014 38.7505 59.7501 38.8452 59.5216C38.9398 59.2932 39.1 59.098 39.3055 58.9607C39.5111 58.8233 39.7528 58.75 40 58.75C40.3315 58.75 40.6495 58.8817 40.8839 59.1161C41.1183 59.3505 41.25 59.6685 41.25 60Z" fill="#004D99"/>
<path d="M52.5 51.25C53.4946 51.25 54.4484 50.8549 55.1516 50.1516C55.8549 49.4484 56.25 48.4946 56.25 47.5H53.75C53.75 47.8315 53.6183 48.1495 53.3839 48.3839C53.1495 48.6183 52.8315 48.75 52.5 48.75C52.1685 48.75 51.8505 48.6183 51.6161 48.3839C51.3817 48.1495 51.25 47.8315 51.25 47.5V45C51.25 44.6685 51.3817 44.3505 51.6161 44.1161C51.8505 43.8817 52.1685 43.75 52.5 43.75C52.8315 43.75 53.1495 43.8817 53.3839 44.1161C53.6183 44.3505 53.75 44.6685 53.75 45H56.25C56.25 44.0054 55.8549 43.0516 55.1516 42.3484C54.4484 41.6451 53.4946 41.25 52.5 41.25C51.5054 41.25 50.5516 41.6451 49.8484 42.3484C49.1451 43.0516 48.75 44.0054 48.75 45V47.5C48.75 48.4946 49.1451 49.4484 49.8484 50.1516C50.5516 50.8549 51.5054 51.25 52.5 51.25Z" fill="#004D99"/>
<path d="M58.75 38.75H56.25V41.25H58.75V38.75Z" fill="#004D99"/>
</svg>
