<svg width="80" height="80" viewBox="0 0 80 80" fill="none" xmlns="http://www.w3.org/2000/svg">
<path d="M46.9821 44.0914V10.4951C46.9821 4.69874 42.2834 0 36.487 0C30.6906 0 25.9919 4.69874 25.9919 10.4951V44.0765C16.9206 49.8641 14.2584 61.9097 20.046 70.9811C23.6176 76.579 29.7944 79.9726 36.4348 79.9851L36.5392 80C47.2997 79.9799 56.0063 71.2405 55.9861 60.4802C55.9736 53.8398 52.5801 47.663 46.9821 44.0914ZM28.2893 74.814C20.3904 70.2536 17.6842 60.1533 22.2446 52.2545C23.6941 49.744 25.7788 47.6593 28.2893 46.2098C28.7527 45.9422 29.0373 45.4469 29.0353 44.9119V10.4951C29.0353 6.34667 32.3982 2.98368 36.5467 2.98368C40.6951 2.98368 44.0581 6.34667 44.0581 10.4951V44.9119C44.0561 45.4469 44.3406 45.9422 44.804 46.2098C52.703 50.7702 55.4092 60.8705 50.8488 68.7692C46.2884 76.6682 36.1881 79.3745 28.2893 74.814Z" fill="#004D99"/>
<path d="M38.0295 49.7901V27.1588C38.0295 26.335 37.3615 25.667 36.5377 25.667C35.7138 25.667 35.0458 26.335 35.0458 27.1588V49.7901C29.4102 50.5983 25.4967 55.822 26.3049 61.4576C27.0344 66.5444 31.3988 70.3171 36.5377 70.3029C42.2309 70.3186 46.859 65.716 46.8748 60.0228C46.889 54.884 43.1163 50.5196 38.0295 49.7901ZM36.5377 67.3043C32.4922 67.3043 29.2127 64.0248 29.2127 59.9793C29.2209 55.9374 32.4955 52.6626 36.5377 52.6544C40.5832 52.6544 43.8626 55.9338 43.8626 59.9793C43.8626 64.0248 40.583 67.3043 36.5377 67.3043Z" fill="#004D99"/>
<path d="M61.5258 10.2563H52.2018C51.3779 10.2563 50.71 10.9243 50.71 11.7482C50.71 12.5721 51.3779 13.24 52.2018 13.24H61.5258C62.3497 13.24 63.0177 12.5721 63.0177 11.7482C63.0177 10.9243 62.3497 10.2563 61.5258 10.2563Z" fill="#004D99"/>
<path d="M59.5421 17.7156H54.067C53.2432 17.7156 52.5752 18.3835 52.5752 19.2074C52.5752 20.0313 53.2432 20.6993 54.067 20.6993H59.5421C60.366 20.6993 61.0339 20.0313 61.0339 19.2074C61.0339 18.3835 60.366 17.7156 59.5421 17.7156Z" fill="#004D99"/>
<path d="M61.5258 25.1748H52.2018C51.3779 25.1748 50.71 25.8428 50.71 26.6666C50.71 27.4905 51.3779 28.1585 52.2018 28.1585H61.5258C62.3497 28.1585 63.0177 27.4905 63.0177 26.6666C63.0177 25.8428 62.3497 25.1748 61.5258 25.1748Z" fill="#004D99"/>
<path d="M59.5421 32.634H54.067C53.2432 32.634 52.5752 33.302 52.5752 34.1259C52.5752 34.9497 53.2432 35.6177 54.067 35.6177H59.5421C60.366 35.6177 61.0339 34.9497 61.0339 34.1259C61.0339 33.302 60.366 32.634 59.5421 32.634Z" fill="#004D99"/>
<path d="M61.5258 40.0933H52.2018C51.3779 40.0933 50.71 40.7612 50.71 41.5851C50.71 42.409 51.3779 43.0769 52.2018 43.0769H61.5258C62.3497 43.0769 63.0177 42.409 63.0177 41.5851C63.0177 40.7612 62.3497 40.0933 61.5258 40.0933Z" fill="#004D99"/>
</svg>
