<svg width="80" height="80" viewBox="0 0 80 80" fill="none" xmlns="http://www.w3.org/2000/svg">
<g clip-path="url(#clip0_3722_5289)">
<path d="M36.2497 72.5C40.2248 72.5046 44.1735 71.8542 47.9372 70.575C48.2513 70.4681 48.5101 70.2408 48.6566 69.9431C48.8031 69.6453 48.8253 69.3016 48.7184 68.9875C48.6115 68.6734 48.3842 68.4146 48.0865 68.2681C47.7887 68.1216 47.445 68.0993 47.1309 68.2062C41.8106 70.0121 36.1236 70.4612 30.5858 69.5128C25.048 68.5643 19.8346 66.2484 15.4184 62.775C15.5403 58.3508 17.0673 54.0803 19.7782 50.5819C22.4891 47.0835 26.2432 44.5388 30.4969 43.3163C34.7505 42.0938 39.2829 42.257 43.4376 43.7823C47.5923 45.3075 51.1536 48.1157 53.6059 51.8C53.697 51.9367 53.8141 52.054 53.9506 52.1454C54.0871 52.2368 54.2402 52.3004 54.4013 52.3326C54.5623 52.3648 54.7281 52.365 54.8892 52.3331C55.0504 52.3013 55.2036 52.238 55.3403 52.1469C55.4769 52.0558 55.5943 51.9386 55.6857 51.8022C55.7771 51.6657 55.8407 51.5126 55.8729 51.3515C55.9051 51.1905 55.9053 51.0247 55.8734 50.8635C55.8416 50.7024 55.7783 50.5492 55.6872 50.4125C52.6055 45.7865 47.9732 42.4131 42.6247 40.9C45.2711 39.4797 47.3675 37.2163 48.5812 34.4689C49.7949 31.7215 50.0564 28.6475 49.3241 25.7346C48.5919 22.8217 46.9079 20.2368 44.5393 18.3899C42.1707 16.5431 39.2532 15.5401 36.2497 15.5401C33.2461 15.5401 30.3286 16.5431 27.96 18.3899C25.5914 20.2368 23.9074 22.8217 23.1752 25.7346C22.4429 28.6475 22.7044 31.7215 23.9181 34.4689C25.1318 37.2163 27.2282 39.4797 29.8747 40.9C25.4242 42.1716 21.4509 44.7344 18.4571 48.2644C15.4634 51.7944 13.5837 56.1329 13.0559 60.7312C8.70204 56.6073 5.52563 51.3976 3.85356 45.6385C2.18148 39.8793 2.07413 33.7787 3.54255 27.9643C5.01097 22.1499 8.00212 16.8317 12.2082 12.5571C16.4143 8.28248 21.6834 5.20577 27.4733 3.64356C33.2632 2.08136 39.3648 2.0901 45.1502 3.66887C50.9357 5.24764 56.1959 8.33943 60.3898 12.6261C64.5836 16.9127 67.5595 22.2394 69.0113 28.058C70.463 33.8766 70.3382 39.9769 68.6497 45.7312C68.6037 45.8888 68.5892 46.0539 68.6071 46.2171C68.6249 46.3803 68.6747 46.5384 68.7536 46.6823C68.913 46.973 69.1814 47.1884 69.4997 47.2812C69.8179 47.3741 70.16 47.3367 70.4507 47.1773C70.7414 47.0179 70.9568 46.7495 71.0497 46.4313C73.1868 39.1283 72.9717 31.338 70.4347 24.1641C67.8978 16.9902 63.1677 10.7966 56.9146 6.46074C50.6615 2.12488 43.2026 -0.133325 35.5946 0.00608762C27.9867 0.1455 20.6155 2.67546 14.5255 7.2375C8.43545 11.7995 3.93544 18.1623 1.66302 25.4243C-0.609399 32.6863 -0.538985 40.4793 1.86428 47.699C4.26755 54.9188 8.8818 61.1992 15.0533 65.6505C21.2247 70.1017 28.6404 72.4981 36.2497 72.5ZM25.2684 29.025C25.2672 26.8528 25.9102 24.7291 27.116 22.9224C28.3219 21.1158 30.0365 19.7073 32.043 18.8752C34.0494 18.0431 36.2576 17.8247 38.3882 18.2477C40.5187 18.6707 42.476 19.7161 44.0124 21.2516C45.5487 22.7871 46.5952 24.7438 47.0194 26.8741C47.4437 29.0044 47.2266 31.2127 46.3956 33.2197C45.5646 35.2266 44.1572 36.942 42.3512 38.1489C40.5452 39.3558 38.4218 40 36.2497 40C33.3393 39.9967 30.5491 38.8395 28.4906 36.7822C26.4321 34.7249 25.2734 31.9353 25.2684 29.025Z" fill="#004D99"/>
<path d="M59.375 64.6626C59.375 65.8987 59.7416 67.1071 60.4283 68.1349C61.1151 69.1627 62.0912 69.9638 63.2332 70.4368C64.3753 70.9099 65.6319 71.0337 66.8443 70.7925C68.0567 70.5513 69.1703 69.9561 70.0444 69.082C70.9185 68.2079 71.5138 67.0943 71.7549 65.8819C71.9961 64.6695 71.8723 63.4129 71.3992 62.2708C70.9262 61.1288 70.1251 60.1527 69.0973 59.4659C68.0695 58.7792 66.8611 58.4126 65.625 58.4126C63.9674 58.4126 62.3777 59.0711 61.2056 60.2432C60.0335 61.4153 59.375 63.005 59.375 64.6626ZM69.375 64.6626C69.375 65.4043 69.1551 66.1293 68.743 66.746C68.331 67.3627 67.7453 67.8433 67.0601 68.1271C66.3748 68.411 65.6208 68.4852 64.8934 68.3405C64.166 68.1958 63.4978 67.8387 62.9734 67.3143C62.4489 66.7898 62.0917 66.1216 61.9471 65.3942C61.8024 64.6668 61.8766 63.9128 62.1605 63.2275C62.4443 62.5423 62.9249 61.9566 63.5416 61.5446C64.1583 61.1325 64.8833 60.9126 65.625 60.9126C66.6196 60.9126 67.5734 61.3077 68.2766 62.0109C68.9799 62.7142 69.375 63.668 69.375 64.6626Z" fill="#004D99"/>
<path d="M68.9442 50.3563C68.8732 50.1338 68.7413 49.9357 68.5634 49.7844C68.3856 49.633 68.1689 49.5345 67.9379 49.5001C66.4049 49.2695 64.846 49.2695 63.3129 49.5001C63.0812 49.5351 62.864 49.6345 62.6861 49.787C62.5081 49.9395 62.3767 50.1389 62.3067 50.3626L61.4067 53.2188C60.1047 53.7013 58.8938 54.4008 57.8254 55.2876L54.9004 54.6626C54.672 54.6111 54.4337 54.6248 54.2127 54.7022C53.9917 54.7795 53.7969 54.9174 53.6504 55.1001C52.6783 56.3121 51.8964 57.6651 51.3317 59.1126C51.2466 59.3304 51.2244 59.5676 51.2675 59.7974C51.3106 60.0272 51.4173 60.2404 51.5754 60.4126L53.6004 62.6251C53.3635 63.9941 53.3635 65.3936 53.6004 66.7626L51.5754 68.9751C51.4173 69.1473 51.3106 69.3604 51.2675 69.5902C51.2244 69.82 51.2466 70.0573 51.3317 70.2751C51.8964 71.7225 52.6782 73.0756 53.6504 74.2876C53.7969 74.4702 53.9917 74.6081 54.2127 74.6855C54.4337 74.7628 54.672 74.7765 54.9004 74.7251L57.8254 74.1001C58.8932 74.9893 60.1042 75.6909 61.4067 76.1751L62.3067 79.0313C62.3767 79.2549 62.5081 79.4544 62.6861 79.6069C62.864 79.7594 63.0812 79.8588 63.3129 79.8938C64.8459 80.1255 66.4049 80.1255 67.9379 79.8938C68.1689 79.8593 68.3856 79.7608 68.5634 79.6095C68.7413 79.4582 68.8732 79.26 68.9442 79.0376L69.8442 76.1813C71.1467 75.6971 72.3576 74.9955 73.4254 74.1063L76.3504 74.7313C76.5788 74.7828 76.8171 74.7691 77.0381 74.6917C77.2591 74.6144 77.4539 74.4765 77.6004 74.2938C78.5726 73.0818 79.3545 71.7288 79.9192 70.2813C80.0042 70.0635 80.0264 69.8262 79.9833 69.5964C79.9402 69.3666 79.8336 69.1535 79.6754 68.9813L77.6504 66.7688C77.8873 65.3998 77.8873 64.0003 77.6504 62.6313L79.6754 60.4188C79.8336 60.2466 79.9402 60.0335 79.9833 59.8037C80.0264 59.5739 80.0042 59.3366 79.9192 59.1188C79.3544 57.6714 78.5725 56.3184 77.6004 55.1063C77.4539 54.9236 77.2591 54.7858 77.0381 54.7084C76.8171 54.6311 76.5788 54.6173 76.3504 54.6688L73.4254 55.2938C72.357 54.407 71.1461 53.7076 69.8442 53.2251L68.9442 50.3563ZM73.3192 57.8563L76.0754 57.2313C76.5308 57.8728 76.9263 58.5548 77.2567 59.2688L75.3754 61.3751C75.2399 61.5241 75.1425 61.7036 75.0913 61.8984C75.0402 62.0932 75.0369 62.2975 75.0817 62.4938C75.4092 63.919 75.4092 65.3999 75.0817 66.8251C75.0358 67.0223 75.0386 67.2278 75.0898 67.4238C75.1409 67.6198 75.239 67.8004 75.3754 67.9501L77.2817 70.0313C76.9513 70.7453 76.5559 71.4274 76.1004 72.0688L73.3442 71.4438C73.1468 71.4007 72.9419 71.406 72.7471 71.4593C72.5523 71.5127 72.3733 71.6124 72.2254 71.7501C71.154 72.7452 69.8723 73.4864 68.4754 73.9188C68.2819 73.9783 68.1057 74.0838 67.962 74.2265C67.8183 74.3691 67.7113 74.5445 67.6504 74.7376L66.8004 77.4313C66.0166 77.5029 65.2279 77.5029 64.4442 77.4313L63.5942 74.7376C63.5332 74.5445 63.4263 74.3691 63.2826 74.2265C63.1389 74.0838 62.9627 73.9783 62.7692 73.9188C61.3723 73.4864 60.0906 72.7452 59.0192 71.7501C58.8713 71.6124 58.6923 71.5127 58.4975 71.4593C58.3026 71.406 58.0978 71.4007 57.9004 71.4438L55.1442 72.0688C54.6887 71.4274 54.2932 70.7453 53.9629 70.0313L55.8692 67.9501C56.0056 67.8004 56.1036 67.6198 56.1548 67.4238C56.206 67.2278 56.2088 67.0223 56.1629 66.8251C55.8354 65.3999 55.8354 63.919 56.1629 62.4938C56.2077 62.2975 56.2044 62.0932 56.1532 61.8984C56.1021 61.7036 56.0046 61.5241 55.8692 61.3751L53.9629 59.2938C54.2933 58.5798 54.6887 57.8978 55.1442 57.2563L57.9004 57.8813C58.0978 57.9245 58.3026 57.9191 58.4975 57.8658C58.6923 57.8125 58.8713 57.7127 59.0192 57.5751C60.0905 56.5797 61.3722 55.8385 62.7692 55.4063C62.9627 55.3469 63.1389 55.2413 63.2826 55.0987C63.4263 54.956 63.5332 54.7806 63.5942 54.5876L64.4504 51.8751C65.2342 51.8041 66.0228 51.8041 66.8067 51.8751L67.6567 54.5688C67.7176 54.7619 67.8245 54.9373 67.9682 55.0799C68.1119 55.2225 68.2881 55.3281 68.4817 55.3876C69.8786 55.8197 71.1604 56.561 72.2317 57.5563C72.3801 57.6929 72.5594 57.7915 72.7542 57.8437C72.949 57.896 73.1536 57.9003 73.3504 57.8563H73.3192Z" fill="#004D99"/>
</g>
<defs>
<clipPath id="clip0_3722_5289">
<rect width="80" height="80" fill="white"/>
</clipPath>
</defs>
</svg>
