<svg width="80" height="80" viewBox="0 0 80 80" fill="none" xmlns="http://www.w3.org/2000/svg">
<path d="M24.8509 27.551C24.8509 26.8607 25.4106 26.301 26.1009 26.301H31.7616C32.4519 26.301 33.0116 26.8607 33.0116 27.551C33.0116 28.2413 32.4519 28.801 31.7616 28.801H26.1009C25.4106 28.801 24.8509 28.2413 24.8509 27.551ZM26.1009 44.4757H31.7616C32.4519 44.4757 33.0116 43.916 33.0116 43.2257C33.0116 42.5354 32.4519 41.9757 31.7616 41.9757H26.1009C25.4106 41.9757 24.8509 42.5354 24.8509 43.2257C24.8509 43.916 25.4106 44.4757 26.1009 44.4757ZM31.7616 57.6504H26.1009C25.4106 57.6504 24.8509 58.2101 24.8509 58.9004C24.8509 59.5907 25.4106 60.1504 26.1009 60.1504H31.7616C32.4519 60.1504 33.0116 59.5907 33.0116 58.9004C33.0116 58.2101 32.4519 57.6504 31.7616 57.6504ZM77.3469 73.0457C77.3074 74.3943 76.7535 75.616 75.7861 76.4899C74.7844 77.4777 73.475 77.9718 72.1663 77.9718C70.8459 77.9718 69.5261 77.4695 68.5208 76.4643C68.1599 76.1051 67.8053 75.7537 67.4581 75.4096C64.2581 72.239 61.6775 69.681 59.0419 65.7746C56.74 67.0374 54.1828 67.673 51.6239 67.6732C49.3214 67.6732 47.0205 67.1581 44.9053 66.1357C40.3683 67.3288 34.7216 67.9854 28.9311 67.9854C22.1174 67.9854 15.6934 67.1084 10.843 65.5159C5.48438 63.7565 2.65204 61.3373 2.65204 58.5195V11.4998C2.65204 8.68008 5.48438 6.25945 10.8428 4.49961C15.6927 2.90664 22.1166 2.0293 28.9311 2.0293C35.7456 2.0293 42.1695 2.90664 47.0195 4.49961C52.378 6.25945 55.2103 8.68008 55.2103 11.4998V37.3077C57.8892 37.9446 60.4297 39.3041 62.5155 41.3895C65.4249 44.299 67.0274 48.167 67.0274 52.281C67.0274 54.9188 66.3675 57.4551 65.1278 59.7029C69.0391 62.3423 71.601 64.9262 74.776 68.1299C75.1139 68.471 75.4591 68.8193 75.8139 69.1755C76.8295 70.1913 77.3891 71.6027 77.347 73.0459L77.3469 73.0457ZM5.1522 11.4998C5.1522 14.4085 14.1984 18.4659 28.9313 18.4659C43.6641 18.4659 52.7105 14.4085 52.7105 11.4998C52.7105 8.59102 43.6642 4.5293 28.9313 4.5293C14.1983 4.5293 5.1522 8.5893 5.1522 11.4998ZM5.1522 27.1701C5.1522 30.0807 14.1984 34.1405 28.9313 34.1405C43.6641 34.1405 52.7105 30.0807 52.7105 27.1701V15.7273C51.3488 16.769 49.4436 17.7002 47.0195 18.4962C42.1689 20.0887 35.7452 20.9659 28.9313 20.9659C22.1174 20.9659 15.6936 20.0888 10.8431 18.4962C8.41907 17.7002 6.51391 16.769 5.1522 15.7273V27.1701ZM5.1522 42.8448C5.1522 45.7535 14.1984 49.8109 28.9313 49.8109C31.5216 49.8109 34.062 49.6802 36.4986 49.4234C37.0499 46.4782 38.4599 43.664 40.732 41.3899C44.0109 38.1112 48.412 36.6271 52.7103 36.9285V31.4004C51.3486 32.4427 49.4434 33.3745 47.0195 34.1705C42.1695 35.7635 35.7458 36.6407 28.9311 36.6407C22.1164 36.6407 15.6927 35.7635 10.8428 34.1705C8.41891 33.3745 6.51376 32.4427 5.15204 31.4004V42.8449L5.1522 42.8448ZM41.9438 64.2607C41.526 63.9229 41.1213 63.561 40.7328 63.1729C37.651 60.0887 36.1561 56.0115 36.2394 51.9612C33.8756 52.1923 31.425 52.3109 28.9313 52.3109C22.1161 52.3109 15.6924 51.4345 10.8431 49.8429C8.41907 49.0474 6.51391 48.116 5.1522 47.0741V58.5195C5.1522 61.4282 14.1984 65.4855 28.9313 65.4855C33.5541 65.4855 38.0675 65.0555 41.9438 64.2607ZM60.7481 61.4045C63.1852 58.9676 64.5275 55.7274 64.5275 52.281C64.5275 48.8346 63.1852 45.5946 60.7478 43.1573C58.2328 40.6423 54.928 39.3843 51.6241 39.3843C48.3202 39.3843 45.0161 40.6416 42.5003 43.1573C37.4736 48.188 37.4736 56.3741 42.5006 61.4051C45.0156 63.918 48.32 65.1746 51.6239 65.1748C54.9285 65.1749 58.2324 63.9182 60.7483 61.4045H60.7481ZM61.1283 64.3966C61.6206 65.1248 62.113 65.8057 62.6094 66.4527L65.798 63.2641C65.1522 62.769 64.4727 62.2779 63.7463 61.7866C63.3666 62.2688 62.9564 62.7318 62.5158 63.1726C62.0734 63.6145 61.6086 64.0199 61.1284 64.3968L61.1283 64.3966ZM74.8481 72.9727C74.8703 72.2148 74.5772 71.4743 74.0441 70.9413C73.6861 70.5816 73.3395 70.2321 73.0003 69.8898C71.1669 68.0399 69.5447 66.4037 67.7461 64.8516L64.1972 68.4005C65.7438 70.1913 67.3744 71.8077 69.2177 73.634C69.5663 73.9793 69.9224 74.3321 70.2866 74.6949C71.3241 75.7321 73.0086 75.7321 74.0442 74.6968C74.0613 74.6796 74.0791 74.6629 74.0972 74.6468C74.562 74.2334 74.8286 73.639 74.8481 72.973V72.9727ZM63.3192 52.281C63.3192 55.4048 62.1027 58.3415 59.8936 60.5505C57.6845 62.7596 54.7478 63.976 51.6241 63.976C48.5003 63.976 45.5636 62.7595 43.3545 60.5505C41.1455 58.3416 39.9289 55.4048 39.9289 52.281C39.9289 49.1573 41.1455 46.2206 43.3545 44.0116C45.5636 41.8026 48.5005 40.5862 51.6241 40.5862C54.7477 40.5862 57.6845 41.8027 59.8936 44.0116C62.1027 46.2206 63.3192 49.1574 63.3192 52.281ZM60.8192 52.281C60.8192 49.8251 59.8627 47.5162 58.1258 45.7793C56.3891 44.0426 54.08 43.086 51.6242 43.086C49.1684 43.086 46.8594 44.0426 45.1227 45.7793C43.3858 47.5162 42.4292 49.8251 42.4292 52.281C42.4292 54.737 43.386 57.046 45.1227 58.7827C46.8594 60.5195 49.1686 61.476 51.6242 61.476C54.0799 61.476 56.3891 60.5195 58.1258 58.7827C59.8627 57.0459 60.8192 54.7368 60.8192 52.281Z" fill="#004D99"/>
</svg>
