<svg width="80" height="80" viewBox="0 0 80 80" fill="none" xmlns="http://www.w3.org/2000/svg">
<path d="M73.1963 16.3639C72.8699 14.3444 71.0752 12.8373 69.0051 12.8373C68.9949 12.8373 68.9745 12.8373 68.9643 12.8373C56.0951 12.9679 43.6848 17.4892 33.8239 25.5873C33.5179 22.0306 32.488 18.5643 30.785 15.3893C28.46 11.0589 24.9623 7.44193 20.6895 4.93012C18.9661 3.91534 16.8145 4.19667 15.4684 5.61333C9.06441 12.3349 5.61767 21.1163 5.77063 30.3396C5.91339 39.2214 9.38053 47.5807 15.5602 54.0009C14.9789 56.1912 14.5404 58.4217 14.2447 60.6924C14.1224 61.6268 14.7852 62.4808 15.7437 62.6115C15.8151 62.6215 15.8967 62.6215 15.9681 62.6215C16.8247 62.6215 17.5691 61.9986 17.6813 61.1345C17.9974 58.7734 18.4665 56.4625 19.0987 54.222C19.1701 54.0713 19.2109 53.9206 19.2313 53.7598C25.4823 32.1682 45.6937 16.4945 69.0255 16.2534C69.0255 16.2534 69.0255 16.2534 69.0357 16.2534C69.4028 16.2534 69.7495 16.5448 69.8107 16.8964C71.0956 24.884 71.1364 32.9821 69.9331 40.9797C69.9127 41.04 69.8923 41.1003 69.8821 41.1605C67.4857 51.2982 60.7961 59.959 51.5063 64.9123C43.3177 69.2929 33.7831 70.4383 24.8399 68.2178C27.8583 66.2586 30.7544 64.1085 33.5179 61.7675C40.8091 55.5884 46.9378 48.2841 51.7306 40.0754C52.2099 39.2616 51.9243 38.2167 51.0882 37.7445C50.2622 37.2723 49.2016 37.5536 48.7223 38.3775C41.7269 50.2835 31.7232 60.2302 19.8329 67.2432C19.7819 67.2633 19.7412 67.2935 19.6902 67.3236C15.8763 69.5642 11.8789 71.4932 7.71834 73.1008C6.83116 73.4424 6.38248 74.4371 6.73939 75.3112C7.00452 75.9844 7.65716 76.3963 8.35059 76.3963C8.56473 76.3963 8.77888 76.3561 8.98283 76.2757C13.1026 74.6883 17.0592 72.7994 20.8527 70.6191C25.0744 72.0257 29.4593 72.729 33.834 72.729C40.5032 72.729 47.1417 71.1114 53.1175 67.9064C63.1721 62.5411 70.4531 53.1972 73.1351 42.2557C73.1963 42.115 73.2472 41.9643 73.2676 41.8036C74.5831 33.3639 74.5525 24.8036 73.1963 16.3639ZM23.1777 37.222C23.1573 35.3934 23.0757 33.6954 22.933 32.0678C22.6168 28.5914 22.0152 24.9342 21.0974 20.8651C20.8935 19.9407 19.9655 19.368 19.0273 19.569C18.0892 19.7699 17.5079 20.6842 17.7119 21.6086C18.599 25.527 19.1803 29.0435 19.476 32.3692C19.7615 35.5542 19.7921 39.0607 19.5576 43.3709C18.4563 45.5612 17.4977 47.8219 16.7023 50.1528C6.26011 37.8751 6.61702 19.8603 17.977 7.9443C18.2013 7.70316 18.5888 7.67302 18.905 7.85387C26.3389 12.2144 30.7136 20.1115 30.4383 28.5914C27.7054 31.2339 25.2784 34.1275 23.1777 37.222Z" fill="#004D99"/>
</svg>
