<svg width="141" height="141" viewBox="0 0 141 141" fill="none" xmlns="http://www.w3.org/2000/svg">
<g clip-path="url(#clip0_1643_27770)">
<path d="M21.5246 120.688C21.2339 120.688 20.9431 120.577 20.7212 120.355C-6.76747 92.8611 -6.76747 48.1278 20.7212 20.6324C38.9346 2.41577 65.6731 -4.39953 90.4987 2.84963C91.1013 3.02606 91.4464 3.65633 91.271 4.25885C91.0957 4.86138 90.4654 5.20647 89.8629 5.03115C65.8352 -1.98278 39.9554 4.60949 22.328 22.2403C-4.27525 48.8479 -4.27525 92.1421 22.328 118.75C22.7729 119.195 22.7729 119.913 22.328 120.356C22.1071 120.578 21.8153 120.688 21.5246 120.688Z" fill="#004D99"/>
<path d="M70.3635 140.999C58.0267 140.999 45.63 137.729 34.495 131.022C33.9579 130.699 33.7848 130.001 34.1088 129.464C34.4328 128.927 35.1319 128.752 35.669 129.075C62.3243 145.129 96.4585 140.825 118.678 118.603C145.28 91.995 145.28 48.6997 118.678 22.0921C116.056 19.5844 112.495 16.3387 108.365 13.6379C107.838 13.2939 107.69 12.5904 108.035 12.0655C108.378 11.5396 109.086 11.3931 109.608 11.736C113.894 14.5389 117.556 17.8744 120.268 20.4676C147.774 47.9796 147.774 92.7151 120.285 120.209C106.604 133.891 88.5502 140.998 70.3635 140.999Z" fill="#004D99"/>
<path d="M21.5246 120.688C21.5202 120.688 21.5168 120.688 21.5124 120.688L8.68515 120.543C8.05821 120.536 7.55444 120.021 7.5611 119.393C7.56887 118.77 8.07597 118.27 8.69735 118.27H8.71067L20.3761 118.402L20.243 106.589C20.2363 105.961 20.7401 105.446 21.367 105.439H21.3792C22.0006 105.439 22.5088 105.94 22.5155 106.562L22.6608 119.537C22.6642 119.843 22.5443 120.138 22.328 120.354C22.116 120.569 21.8264 120.688 21.5246 120.688Z" fill="#004D99"/>
<path d="M109.276 24.7592C108.647 24.7592 108.14 24.251 108.14 23.6229V12.398C108.14 12.0906 108.262 11.7988 108.481 11.5857C108.701 11.3716 109.007 11.2662 109.302 11.2617L121.838 11.5524C122.465 11.5669 122.962 12.0873 122.949 12.7153C122.933 13.3423 122.387 13.8294 121.786 13.8249L110.413 13.5609V23.6229C110.412 24.2499 109.904 24.7592 109.276 24.7592Z" fill="#004D99"/>
<path d="M106.617 50.3343H34.3873C33.8825 50.3343 33.4386 50.0014 33.2966 49.5165C33.1545 49.0316 33.3498 48.5112 33.7759 48.2405L68.4306 26.1446C69.6822 25.2746 71.3533 25.2791 72.5983 26.1634L107.23 48.2416C107.655 48.5123 107.85 49.0327 107.709 49.5177C107.568 50.0026 107.122 50.3343 106.617 50.3343ZM38.2821 48.0618H102.72L71.33 28.0465C70.8162 27.6858 70.1893 27.6847 69.7199 28.0165C69.7044 28.0276 69.69 28.0376 69.6733 28.0465L38.2821 48.0618Z" fill="#004D99"/>
<path d="M106.617 57.3212H34.3873C33.7604 57.3212 33.2511 56.813 33.2511 56.1849V49.1988C33.2511 48.5707 33.7604 48.0625 34.3873 48.0625H106.617C107.245 48.0625 107.753 48.5707 107.753 49.1988V56.1849C107.753 56.813 107.245 57.3212 106.617 57.3212ZM35.5236 55.0487H105.481V50.335H35.5236V55.0487Z" fill="#004D99"/>
<path d="M106.617 106.273H34.3873C33.7604 106.273 33.2511 105.765 33.2511 105.137V97.9956C33.2511 97.3676 33.7604 96.8594 34.3873 96.8594H106.617C107.245 96.8594 107.753 97.3676 107.753 97.9956V105.137C107.753 105.765 107.245 106.273 106.617 106.273ZM35.5236 104.001H105.481V99.1319H35.5236V104.001Z" fill="#004D99"/>
<path d="M53.6027 99.1306H40.6412C40.0142 99.1306 39.5049 98.6224 39.5049 97.9944V91.1558C39.5049 90.5277 40.0142 90.0195 40.6412 90.0195H53.6038C54.2307 90.0195 54.74 90.5277 54.74 91.1558V97.9944C54.7389 98.6213 54.2307 99.1306 53.6027 99.1306ZM41.7774 96.8581H52.4675V92.292H41.7774V96.8581Z" fill="#004D99"/>
<path d="M53.6493 63.7727H40.5946C39.9676 63.7727 39.4583 63.2645 39.4583 62.6364V56.1851C39.4583 55.5559 39.9676 55.0488 40.5946 55.0488H53.6493C54.2762 55.0488 54.7855 55.5559 54.7855 56.1851V62.6364C54.7855 63.2634 54.2762 63.7727 53.6493 63.7727ZM41.7308 61.5002H52.513V57.3213H41.7308V61.5002Z" fill="#004D99"/>
<path d="M50.4336 92.2931H43.8091C43.1822 92.2931 42.6729 91.786 42.6729 91.1569V62.6363C42.6729 62.0082 43.1822 61.5 43.8091 61.5H50.4336C51.0605 61.5 51.5698 62.0082 51.5698 62.6363V91.158C51.5698 91.786 51.0616 92.2931 50.4336 92.2931ZM44.9465 90.0206H49.2984V63.7725H44.9465V90.0206Z" fill="#004D99"/>
<path d="M76.8937 63.7727H63.8401C63.2131 63.7727 62.7038 63.2645 62.7038 62.6364V56.1851C62.7038 55.5559 63.2131 55.0488 63.8401 55.0488H76.8937C77.5217 55.0488 78.0299 55.5559 78.0299 56.1851V62.6364C78.0299 63.2634 77.5217 63.7727 76.8937 63.7727ZM64.9763 61.5002H75.7574V57.3213H64.9763V61.5002Z" fill="#004D99"/>
<path d="M73.6791 92.2931H67.0546C66.4277 92.2931 65.9184 91.786 65.9184 91.1569V62.6363C65.9184 62.0082 66.4277 61.5 67.0546 61.5H73.6791C74.3071 61.5 74.8153 62.0082 74.8153 62.6363V91.158C74.8153 91.786 74.3071 92.2931 73.6791 92.2931ZM68.1909 90.0206H72.5428V63.7725H68.1909V90.0206Z" fill="#004D99"/>
<path d="M76.8482 99.1306H63.8856C63.2586 99.1306 62.7493 98.6224 62.7493 97.9944V91.1558C62.7493 90.5277 63.2586 90.0195 63.8856 90.0195H76.8482C77.4762 90.0195 77.9844 90.5277 77.9844 91.1558V97.9944C77.9844 98.6213 77.4762 99.1306 76.8482 99.1306ZM65.0218 96.8581H75.7119V92.292H65.0218V96.8581Z" fill="#004D99"/>
<path d="M100.138 63.7727H87.0844C86.4564 63.7727 85.9482 63.2645 85.9482 62.6364V56.1851C85.9482 55.5559 86.4564 55.0488 87.0844 55.0488H100.138C100.766 55.0488 101.274 55.5559 101.274 56.1851V62.6364C101.274 63.2634 100.766 63.7727 100.138 63.7727ZM88.2207 61.5002H99.0018V57.3213H88.2207V61.5002Z" fill="#004D99"/>
<path d="M96.9234 92.2931H90.3001C89.6721 92.2931 89.1638 91.786 89.1638 91.1569V62.6363C89.1638 62.0082 89.6721 61.5 90.3001 61.5H96.9234C97.5515 61.5 98.0597 62.0082 98.0597 62.6363V91.158C98.0597 91.786 97.5515 92.2931 96.9234 92.2931ZM91.4364 90.0206H95.7872V63.7725H91.4364V90.0206Z" fill="#004D99"/>
<path d="M100.093 99.1306H87.131C86.503 99.1306 85.9948 98.6224 85.9948 97.9944V91.1558C85.9948 90.5277 86.503 90.0195 87.131 90.0195H100.093C100.721 90.0195 101.229 90.5277 101.229 91.1558V97.9944C101.229 98.6213 100.721 99.1306 100.093 99.1306ZM88.2673 96.8581H98.9563V92.292H88.2673V96.8581Z" fill="#004D99"/>
</g>
<defs>
<clipPath id="clip0_1643_27770">
<rect width="141" height="141" fill="white"/>
</clipPath>
</defs>
</svg>
