<svg width="30" height="30" viewBox="0 0 30 30" fill="none" xmlns="http://www.w3.org/2000/svg">
<path d="M22.7499 21.2344H6.24994C5.69765 21.2344 5.24994 21.6821 5.24994 22.2344V23.2344C5.24994 23.7867 5.69765 24.2344 6.24994 24.2344H22.7499C23.3022 24.2344 23.7499 23.7867 23.7499 23.2344V22.2344C23.7499 21.6821 23.3022 21.2344 22.7499 21.2344Z" stroke="#004D99" stroke-width="1.5" stroke-linecap="round" stroke-linejoin="round"/>
<path d="M7.74994 12.7331V21.2431M21.2499 12.7331V21.2431M16.9999 12.7331V21.2431M11.9999 12.7331V21.2431M13.5399 6.00914L5.76994 10.2591C5.61257 10.3452 5.48126 10.4721 5.38977 10.6264C5.29829 10.7807 5.24999 10.9568 5.24994 11.1361V12.1331C5.24994 12.2923 5.31315 12.4449 5.42567 12.5574C5.5382 12.6699 5.69081 12.7331 5.84994 12.7331H23.1499C23.3091 12.7331 23.4617 12.6699 23.5742 12.5574C23.6867 12.4449 23.7499 12.2923 23.7499 12.1331V11.1361C23.7499 10.9568 23.7016 10.7807 23.6101 10.6264C23.5186 10.4721 23.3873 10.3452 23.2299 10.2591L15.4599 6.00914C15.1656 5.84808 14.8355 5.76367 14.4999 5.76367C14.1644 5.76367 13.8343 5.84808 13.5399 6.00914Z" stroke="#004D99" stroke-width="1.5" stroke-linecap="round" stroke-linejoin="round"/>
</svg>
