<svg width="30" height="30" viewBox="0 0 30 30" fill="none" xmlns="http://www.w3.org/2000/svg">
<path d="M8.12647 16.768H17.8991L19.0781 15.6188H8.12647V16.768ZM8.12647 12.1713H14.0214V11.0221H8.12647V12.1713ZM5.17899 8.14918V19.641H14.9517L13.7727 20.7901H4V7H25.2219V10.7796H24.0429V8.14918H5.17899ZM25.875 13.8422C25.9583 13.9226 26 14.013 26 14.1134C26 14.2138 25.9583 14.3046 25.875 14.3858L24.9495 15.2879L24.0205 14.3812L24.9448 13.4791C25.0281 13.3986 25.1213 13.3584 25.2242 13.3584C25.3272 13.3584 25.4203 13.3986 25.5036 13.4791L25.875 13.8422ZM16.1531 23V22.0944L23.3579 15.0707L24.2881 15.9774L17.0821 23H16.1531Z" fill="#004D99"/>
</svg>
