<svg width="80" height="80" viewBox="0 0 80 80" fill="none" xmlns="http://www.w3.org/2000/svg">
<path d="M60.305 77.8373H13.5752C13.2885 77.8373 13.0135 77.7234 12.8108 77.5207C12.608 77.318 12.4941 77.043 12.4941 76.7563V68.7119C12.4941 68.4252 12.608 68.1502 12.8108 67.9475C13.0135 67.7448 13.2885 67.6309 13.5752 67.6309H60.305C60.5917 67.6309 60.8666 67.7448 61.0694 67.9475C61.2721 68.1502 61.386 68.4252 61.386 68.7119V76.7563C61.386 77.043 61.2721 77.318 61.0694 77.5207C60.8666 77.7234 60.5917 77.8373 60.305 77.8373ZM14.6563 75.6752H59.2239V69.793H14.6563V75.6752Z" fill="#004D99"/>
<path d="M39.6834 42.8957C39.4969 42.8961 39.3135 42.8476 39.1515 42.7551L25.2532 34.8816C25.0037 34.7403 24.8206 34.5056 24.7442 34.2293C24.6678 33.9529 24.7042 33.6576 24.8456 33.4081L37.6867 10.7649C37.828 10.5154 38.0627 10.3324 38.339 10.2559C38.6154 10.1795 38.9107 10.216 39.1602 10.3573L53.0586 18.2308C53.1822 18.3008 53.2909 18.3945 53.3783 18.5065C53.4657 18.6185 53.5302 18.7467 53.568 18.8836C53.6059 19.0206 53.6164 19.1637 53.5989 19.3047C53.5814 19.4457 53.5363 19.5819 53.4661 19.7054L50.7288 24.5216C50.6587 24.6451 50.5649 24.7535 50.4529 24.8407C50.3409 24.9279 50.2128 24.9922 50.0759 25.0299C49.939 25.0676 49.796 25.0779 49.6552 25.0604C49.5143 25.0428 49.3782 24.9977 49.2548 24.9276C49.1313 24.8574 49.0229 24.7637 48.9357 24.6516C48.8485 24.5396 48.7842 24.4115 48.7465 24.2746C48.7088 24.1377 48.6985 23.9948 48.716 23.8539C48.7336 23.713 48.7787 23.577 48.8488 23.4535L51.051 19.5778L39.0348 12.767L27.2596 33.5335L39.2769 40.3443L44.3159 31.4557C44.4574 31.2062 44.6921 31.0232 44.9686 30.9469C45.245 30.8706 45.5405 30.9072 45.7899 31.0487C46.0394 31.1902 46.2224 31.4249 46.2987 31.7014C46.375 31.9778 46.3384 32.2733 46.1969 32.5227L40.625 42.3508C40.5303 42.5168 40.3932 42.6546 40.2278 42.7503C40.0624 42.846 39.8745 42.8962 39.6834 42.8957Z" fill="#004D99"/>
<path d="M33.5057 48.4797C33.3189 48.4797 33.1353 48.4312 32.9728 48.3391L23.6355 43.0418C23.386 42.9005 23.203 42.6658 23.1265 42.3895C23.0501 42.1131 23.0866 41.8178 23.2279 41.5683L27.1252 34.7024C27.2666 34.4529 27.5012 34.2699 27.7776 34.1934C28.0539 34.117 28.3493 34.1535 28.5987 34.2948L37.9371 39.5921C38.1865 39.7335 38.3696 39.9681 38.446 40.2445C38.5225 40.5208 38.486 40.8162 38.3447 41.0656L34.4463 47.9391C34.3058 48.1879 34.0726 48.371 33.7976 48.4483C33.7023 48.4726 33.604 48.4831 33.5057 48.4797ZM25.642 41.697L33.1014 45.9251L35.9317 40.9316L28.4722 36.7045L25.642 41.697Z" fill="#004D99"/>
<path d="M49.8379 18.7337C49.6511 18.7337 49.4674 18.6852 49.3049 18.5931L40.7763 13.7575C40.527 13.6159 40.3442 13.3812 40.2679 13.1049C40.1917 12.8285 40.2283 12.5333 40.3698 12.2839L43.5157 6.73475C43.6573 6.4855 43.892 6.30266 44.1683 6.22643C44.4446 6.1502 44.7399 6.18683 44.9892 6.32827L53.5136 11.1639C53.763 11.3053 53.9461 11.54 54.0225 11.8163C54.0989 12.0926 54.0625 12.388 53.9211 12.6375L50.7752 18.1856C50.6812 18.3515 50.5449 18.4896 50.3803 18.5858C50.2157 18.6821 50.0286 18.7331 49.8379 18.7337ZM42.7838 12.4093L49.4314 16.1791L51.5103 12.511L44.8649 8.74232L42.7838 12.4093Z" fill="#004D99"/>
<path d="M54.5946 14.0998C54.4082 14.0996 54.2249 14.0512 54.0627 13.9593L42.3103 7.29442C42.0608 7.15306 41.8778 6.91841 41.8013 6.64207C41.7249 6.36574 41.7614 6.07036 41.9027 5.82091L44.0303 2.06956C44.1716 1.82012 44.4063 1.63704 44.6826 1.56061C44.959 1.48418 45.2543 1.52064 45.5038 1.66199L57.2573 8.32361C57.5068 8.46497 57.6898 8.69963 57.7663 8.97596C57.8427 9.2523 57.8062 9.54768 57.6649 9.79712L55.5384 13.5485C55.4443 13.7159 55.3072 13.8553 55.1413 13.9522C54.9754 14.0491 54.7867 14.1001 54.5946 14.0998ZM44.3168 5.94523L54.1903 11.5442L55.2508 9.6728L45.3773 4.07604L44.3168 5.94523Z" fill="#004D99"/>
<path d="M51.7525 64.54C51.5279 64.5397 51.3089 64.4695 51.1261 64.3392C50.9432 64.2088 50.8054 64.0247 50.732 63.8124L49.0163 58.8578C48.9671 58.7135 48.949 58.5604 48.9632 58.4086C48.9773 58.2568 49.0235 58.1097 49.0985 57.9769C49.1735 57.8442 49.2758 57.7289 49.3986 57.6385C49.5214 57.548 49.6619 57.4846 49.8109 57.4524C52.6589 56.8383 55.2198 55.2894 57.0861 53.0521C58.9524 50.8149 60.0169 48.0177 60.1102 45.1057C60.2036 42.1938 59.3204 39.3342 57.6012 36.982C55.8821 34.6298 53.4257 32.92 50.6228 32.1248C50.4444 32.0743 50.2821 31.9788 50.1513 31.8474C50.0205 31.716 49.9257 31.5532 49.876 31.3746C49.8263 31.1961 49.8233 31.0077 49.8674 30.8276C49.9114 30.6476 50.0011 30.4819 50.1277 30.3464C50.6132 29.8183 50.9236 29.1529 51.0163 28.4415C51.109 27.73 50.9795 27.0073 50.6455 26.3724C50.5486 26.1886 50.5067 25.9808 50.5248 25.7738C50.543 25.5668 50.6204 25.3694 50.7478 25.2053C50.8752 25.0412 51.0472 24.9172 51.2432 24.8483C51.4393 24.7794 51.651 24.7684 51.8531 24.8167C56.3002 25.8875 60.2596 28.4191 63.0976 32.0065C65.9355 35.5939 67.488 40.0296 67.5066 44.6038C67.5252 49.178 66.0087 53.6262 63.1999 57.2365C60.3911 60.8468 56.4524 63.4105 52.0141 64.5173C51.9282 64.5354 51.8403 64.543 51.7525 64.54ZM51.4423 59.2535L52.4433 62.1454C56.1124 61.013 59.3317 58.754 61.6444 55.6888C63.9571 52.6235 65.2459 48.9079 65.3277 45.0689C65.4095 41.23 64.2804 37.4627 62.1004 34.3017C59.9204 31.1408 56.8003 28.7466 53.1828 27.4589C53.199 27.634 53.2077 27.8124 53.2077 27.9908C53.2093 28.8675 53.0064 29.7326 52.6152 30.5173C55.5625 31.6725 58.0761 33.7181 59.8062 36.3691C61.5363 39.0201 62.3967 42.1445 62.2676 45.3075C62.1386 48.4705 61.0264 51.5144 59.0861 54.0157C57.1458 56.5169 54.4738 58.3508 51.4423 59.2621V59.2535Z" fill="#004D99"/>
<path d="M53.5653 69.7963H33.3491C33.1768 69.7963 33.0069 69.7551 32.8538 69.6762C32.7006 69.5972 32.5685 69.4828 32.4685 69.3424C32.3686 69.202 32.3036 69.0398 32.2791 68.8692C32.2545 68.6986 32.2711 68.5246 32.3275 68.3618L36.5491 56.1455C36.6226 55.9331 36.7605 55.7489 36.9436 55.6185C37.1267 55.4881 37.3459 55.418 37.5707 55.418H49.3448C49.5696 55.418 49.7888 55.4881 49.9719 55.6185C50.155 55.7489 50.2929 55.9331 50.3664 56.1455L54.588 68.3618C54.6444 68.5247 54.661 68.6988 54.6364 68.8694C54.6118 69.0401 54.5468 69.2024 54.4467 69.3428C54.3466 69.4832 54.2144 69.5976 54.061 69.6765C53.9077 69.7554 53.7378 69.7965 53.5653 69.7963ZM34.8626 67.6342H52.0518L48.5772 57.5801H38.3394L34.8626 67.6342Z" fill="#004D99"/>
<path d="M35.9167 62.3674H23.2432C22.9565 62.3674 22.6815 62.2535 22.4787 62.0507C22.276 61.848 22.1621 61.573 22.1621 61.2863V56.4971C22.1621 56.2104 22.276 55.9354 22.4787 55.7327C22.6815 55.5299 22.9565 55.416 23.2432 55.416H37.5697C37.7419 55.4161 37.9116 55.4573 38.0646 55.5362C38.2177 55.6151 38.3497 55.7294 38.4497 55.8697C38.5496 56.0099 38.6146 56.172 38.6392 56.3424C38.6639 56.5129 38.6474 56.6867 38.5913 56.8495L36.9383 61.6398C36.8648 61.8522 36.7269 62.0365 36.5438 62.1669C36.3607 62.2973 36.1415 62.3674 35.9167 62.3674ZM24.3243 60.2052H35.1459L36.0529 57.5782H24.3243V60.2052Z" fill="#004D99"/>
<path d="M47.5243 33.6708C46.4007 33.6708 45.3024 33.3376 44.3681 32.7133C43.4339 32.0891 42.7057 31.2018 42.2757 30.1637C41.8457 29.1256 41.7332 27.9834 41.9524 26.8814C42.1716 25.7793 42.7127 24.7671 43.5072 23.9725C44.3017 23.178 45.314 22.637 46.416 22.4178C47.518 22.1986 48.6603 22.3111 49.6984 22.741C50.7365 23.171 51.6237 23.8992 52.248 24.8334C52.8722 25.7677 53.2054 26.8661 53.2054 27.9897C53.204 29.496 52.605 30.9401 51.5399 32.0052C50.4748 33.0703 49.0306 33.6693 47.5243 33.6708ZM47.5243 24.4718C46.8283 24.4718 46.1479 24.6782 45.5692 25.065C44.9905 25.4517 44.5395 26.0013 44.2732 26.6444C44.0069 27.2874 43.9373 27.995 44.0731 28.6777C44.209 29.3603 44.5442 29.9873 45.0365 30.4794C45.5287 30.9715 46.1558 31.3065 46.8385 31.4422C47.5212 31.5779 48.2287 31.508 48.8717 31.2415C49.5147 30.975 50.0642 30.5238 50.4507 29.945C50.8373 29.3662 51.0435 28.6857 51.0433 27.9897C51.0421 27.0569 50.671 26.1626 50.0113 25.5031C49.3516 24.8436 48.4572 24.4727 47.5243 24.4718Z" fill="#004D99"/>
</svg>
