<svg width="80" height="80" viewBox="0 0 80 80" fill="none" xmlns="http://www.w3.org/2000/svg">
<path d="M66.25 18.75C64.7666 18.75 63.3166 19.1899 62.0832 20.014C60.8499 20.8381 59.8886 22.0094 59.3209 23.3799C58.7532 24.7503 58.6047 26.2583 58.8941 27.7132C59.1835 29.168 59.8978 30.5044 60.9467 31.5533C61.9956 32.6022 63.332 33.3165 64.7868 33.6059C66.2417 33.8953 67.7497 33.7468 69.1201 33.1791C70.4906 32.6114 71.6619 31.6501 72.486 30.4168C73.3101 29.1834 73.75 27.7334 73.75 26.25C73.75 24.2609 72.9598 22.3532 71.5533 20.9467C70.1468 19.5402 68.2391 18.75 66.25 18.75ZM66.25 31.25C65.2611 31.25 64.2944 30.9568 63.4721 30.4073C62.6499 29.8579 62.009 29.077 61.6306 28.1634C61.2522 27.2498 61.1531 26.2445 61.3461 25.2745C61.539 24.3046 62.0152 23.4137 62.7145 22.7145C63.4137 22.0152 64.3046 21.539 65.2745 21.3461C66.2445 21.1531 67.2498 21.2522 68.1634 21.6306C69.077 22.009 69.8579 22.6499 70.4073 23.4721C70.9568 24.2944 71.25 25.2611 71.25 26.25C71.25 27.5761 70.7232 28.8479 69.7855 29.7855C68.8479 30.7232 67.5761 31.25 66.25 31.25ZM38.75 48.8406V27.5C38.75 27.1685 38.6183 26.8505 38.3839 26.6161C38.1495 26.3817 37.8315 26.25 37.5 26.25C37.1685 26.25 36.8505 26.3817 36.6161 26.6161C36.3817 26.8505 36.25 27.1685 36.25 27.5V48.8406C34.0605 49.1566 32.072 50.2903 30.6846 52.0133C29.2973 53.7364 28.614 55.921 28.7725 58.1275C28.9309 60.334 29.9192 62.3986 31.5385 63.9058C33.1578 65.413 35.2878 66.2509 37.5 66.2509C39.7122 66.2509 41.8422 65.413 43.4615 63.9058C45.0808 62.3986 46.0691 60.334 46.2275 58.1275C46.386 55.921 45.7027 53.7364 44.3154 52.0133C42.928 50.2903 40.9395 49.1566 38.75 48.8406ZM37.5 63.75C36.2639 63.75 35.0555 63.3834 34.0277 62.6967C32.9999 62.0099 32.1988 61.0338 31.7258 59.8918C31.2527 58.7497 31.1289 57.4931 31.3701 56.2807C31.6112 55.0683 32.2065 53.9547 33.0806 53.0806C33.9547 52.2065 35.0683 51.6112 36.2807 51.3701C37.4931 51.1289 38.7497 51.2527 39.8918 51.7258C41.0338 52.1988 42.0099 52.9999 42.6967 54.0277C43.3834 55.0555 43.75 56.2639 43.75 57.5C43.75 59.1576 43.0915 60.7473 41.9194 61.9194C40.7473 63.0915 39.1576 63.75 37.5 63.75ZM48.75 42.5V15C48.75 12.0163 47.5647 9.15483 45.455 7.04505C43.3452 4.93526 40.4837 3.75 37.5 3.75C34.5163 3.75 31.6548 4.93526 29.545 7.04505C27.4353 9.15483 26.25 12.0163 26.25 15V42.5C23.1018 44.8612 20.7762 48.1531 19.6029 51.9094C18.4295 55.6656 18.4677 59.6959 19.7122 63.4293C20.9566 67.1626 23.3442 70.4098 26.5367 72.7108C29.7292 75.0118 33.5647 76.25 37.5 76.25C41.4353 76.25 45.2708 75.0118 48.4633 72.7108C51.6558 70.4098 54.0434 67.1626 55.2878 63.4293C56.5323 59.6959 56.5705 55.6656 55.3971 51.9094C54.2238 48.1531 51.8982 44.8612 48.75 42.5ZM37.5 73.75C34.0401 73.7503 30.6703 72.6462 27.8814 70.5986C25.0925 68.5509 23.0299 65.6665 21.994 62.3652C20.9581 59.064 21.0029 55.5183 22.122 52.2443C23.241 48.9704 25.3758 46.139 28.2156 44.1625C28.3824 44.0461 28.5182 43.8907 28.6113 43.7099C28.7044 43.5291 28.752 43.3284 28.75 43.125V15C28.75 12.6794 29.6719 10.4538 31.3128 8.81282C32.9538 7.17187 35.1794 6.25 37.5 6.25C39.8206 6.25 42.0462 7.17187 43.6872 8.81282C45.3281 10.4538 46.25 12.6794 46.25 15V43.125C46.25 43.3262 46.2986 43.5245 46.3916 43.703C46.4846 43.8814 46.6194 44.0348 46.7844 44.15C49.6297 46.1246 51.7696 48.9567 52.8922 52.2331C54.0147 55.5094 54.0611 59.0588 53.0246 62.3634C51.988 65.668 49.9228 68.555 47.1301 70.6033C44.3374 72.6516 40.9633 73.7541 37.5 73.75Z" fill="#004D99"/>
</svg>
