<svg width="80" height="80" viewBox="0 0 80 80" fill="none" xmlns="http://www.w3.org/2000/svg">
<g clip-path="url(#clip0_3065_14523)">
<path d="M15.8246 38.7301C10.7068 38.7301 6.54346 34.6046 6.54346 29.5353C6.54346 24.4653 10.7068 20.3398 15.8246 20.3398C20.9418 20.3398 25.1044 24.4647 25.1044 29.5353C25.1044 34.6052 20.9418 38.7301 15.8246 38.7301ZM15.8246 22.9205C12.1294 22.9205 9.1241 25.888 9.1241 29.5353C9.1241 33.182 12.1294 36.1494 15.8246 36.1494C19.5185 36.1494 22.5238 33.182 22.5238 29.5353C22.5238 25.888 19.5185 22.9205 15.8246 22.9205Z" fill="#004D99"/>
<path d="M19.5583 64.1895H3.37261C1.51273 64.1895 0 62.6862 0 60.8383V56.6176C0 47.9773 7.09867 40.9473 15.8247 40.9473C19.2566 40.9473 22.5233 42.0183 25.269 44.0439C25.8424 44.4673 25.9646 45.275 25.5412 45.849C25.1178 46.4217 24.3107 46.5439 23.7368 46.1212C21.4378 44.4251 18.7021 43.5279 15.8247 43.5279C8.52193 43.5279 2.58065 49.4005 2.58065 56.6176V60.8383C2.58065 61.2629 2.93599 61.6088 3.37261 61.6088H19.559C20.2709 61.6088 20.8493 62.1866 20.8493 62.8991C20.8493 63.6111 20.2709 64.1895 19.5583 64.1895Z" fill="#004D99"/>
<path d="M76.6275 63.2123H60.4418C59.7298 63.2123 59.1514 62.6345 59.1514 61.9219C59.1514 61.21 59.7298 60.6316 60.4418 60.6316H76.6281C77.0647 60.6316 77.4201 60.2864 77.4201 59.8617V55.6411C77.4201 48.4227 71.4788 42.5513 64.176 42.5513C61.126 42.5513 58.1484 43.6016 55.7914 45.5094C55.2383 45.9573 54.4261 45.8723 53.9769 45.3185C53.529 44.7647 53.6134 43.9519 54.1685 43.5033C56.9828 41.2257 60.5369 39.9707 64.176 39.9707C72.9014 39.9707 80.0001 47.0001 80.0001 55.6411V59.8617C80.0001 61.709 78.4874 63.2123 76.6275 63.2123Z" fill="#004D99"/>
<path d="M64.1754 38.0914C59.0582 38.0914 54.8955 33.9665 54.8955 28.8966C54.8955 23.8267 59.0582 19.7012 64.1754 19.7012C69.2932 19.7012 73.4565 23.826 73.4565 28.8966C73.4565 33.9672 69.2926 38.0914 64.1754 38.0914ZM64.1754 22.2818C60.4814 22.2818 57.4762 25.2493 57.4762 28.8966C57.4762 32.5439 60.4814 35.5108 64.1754 35.5108C67.8706 35.5108 70.8759 32.5439 70.8759 28.8966C70.8759 25.2493 67.8699 22.2818 64.1754 22.2818Z" fill="#004D99"/>
<path d="M57.5126 68.388H22.4874C20.1607 68.388 18.2681 66.5093 18.2681 64.1995V58.2633C18.2681 46.3996 28.0161 36.748 40 36.748C51.984 36.748 61.732 46.3996 61.732 58.2633V64.1995C61.732 66.5093 59.8394 68.388 57.5126 68.388ZM40 39.3293C29.4399 39.3293 20.8487 47.8235 20.8487 58.2639V64.2002C20.8487 65.0866 21.584 65.808 22.4874 65.808H57.512C58.4155 65.808 59.1508 65.0866 59.1508 64.2002V58.2639C59.1514 47.8235 50.5602 39.3293 40 39.3293Z" fill="#004D99"/>
<path d="M39.5514 35.2398C32.9763 35.2398 27.626 29.9405 27.626 23.4259C27.626 16.9119 32.9756 11.6133 39.5514 11.6133C46.1277 11.6133 51.4774 16.9126 51.4774 23.4265C51.4774 29.9412 46.1271 35.2398 39.5514 35.2398ZM39.5514 14.1939C34.3989 14.1939 30.2066 18.3358 30.2066 23.4265C30.2066 28.5179 34.3989 32.6598 39.5514 32.6598C44.7045 32.6598 48.8968 28.5179 48.8968 23.4265C48.8968 18.3358 44.7045 14.1939 39.5514 14.1939Z" fill="#004D99"/>
</g>
<defs>
<clipPath id="clip0_3065_14523">
<rect width="80" height="80" fill="white"/>
</clipPath>
</defs>
</svg>
