<svg width="80" height="80" viewBox="0 0 80 80" fill="none" xmlns="http://www.w3.org/2000/svg">
<path d="M72.5077 63.365C70.7299 53.5872 61.0791 52.0634 60.4442 51.8094C58.2855 51.1745 52.6982 50.1586 52.6982 50.1586C50.4125 49.7777 48.7617 47.8729 48.7617 45.5872V43.5554C53.2061 38.73 55.9998 30.984 56.3807 25.3967C59.4283 24.5078 61.4601 23.238 61.4601 21.4602C61.4601 20.0634 60.1902 18.9205 57.6506 17.9046C57.5236 8.25385 49.5236 0.507812 39.8728 0.507812C30.222 0.507812 22.222 8.25385 22.095 17.9046C19.5553 18.7935 18.2855 19.9364 18.2855 21.4602C18.2855 23.238 20.4442 24.5078 23.3648 25.3967C23.7458 30.857 26.5395 38.4761 30.9839 43.4284V45.5872C30.9839 47.8729 29.3331 49.9046 27.0474 50.1586C22.349 50.7935 17.0156 52.4443 17.0156 52.4443C11.9363 53.9681 8.25374 58.1586 7.36485 63.365C5.96802 72.3808 8.38072 79.365 8.38072 79.365H71.7458C71.6188 79.365 74.0315 71.4919 72.5077 63.365ZM56.8887 53.5872L50.0315 63.365L45.4601 58.1586L50.1585 52.0634C51.8093 52.8253 55.4918 53.0792 56.8887 53.5872ZM31.8728 50.4126C33.0156 49.1427 33.6506 47.6189 33.6506 45.8411C35.5553 47.238 37.7141 48.2538 39.9998 48.2538C42.2855 48.2538 44.3172 47.365 46.222 45.9681C46.349 47.7459 46.9839 49.2697 48.1268 50.5396L39.9998 61.3332L31.8728 50.4126ZM42.5395 3.42845V9.52369C42.5395 10.9205 41.3966 12.0634 39.9998 12.0634C38.6029 12.0634 37.4601 10.9205 37.4601 9.52369V3.42845C38.349 3.30146 39.1109 3.17448 39.9998 3.17448C40.8887 3.17448 41.7775 3.30146 42.5395 3.42845ZM20.9522 21.5872C21.841 20.6983 24.7617 19.9364 24.7617 19.9364C24.7617 19.9364 23.3648 8.6348 34.9204 4.06337V9.52369C34.9204 12.3173 37.2061 14.6031 39.9998 14.6031C42.7934 14.6031 45.0791 12.3173 45.0791 9.52369V4.06337C56.3807 8.25384 55.2379 19.9364 55.2379 19.9364C55.2379 19.9364 58.0315 20.5713 59.0474 21.5872C58.1585 22.73 51.4283 24.7618 39.9998 24.7618C28.5712 24.7618 21.841 22.73 20.9522 21.5872ZM39.9998 27.3015C44.0633 27.3015 49.3966 27.0475 53.841 26.1586C52.9522 34.2856 46.8569 45.7142 39.9998 45.7142C33.1426 45.7142 27.0474 34.4126 26.1585 26.1586C30.6029 27.0475 35.9363 27.3015 39.9998 27.3015ZM29.841 51.9364L34.5395 58.1586L29.968 63.365L23.1109 53.5872C24.5077 53.0792 28.9522 52.6983 29.841 51.9364ZM69.7141 76.8253H61.5871V67.9364H59.0474V76.8253H20.9522V67.9364H18.4125V76.8253H10.4125C9.3966 72.5078 9.3966 68.0634 10.0315 63.7459C10.7934 59.5554 13.7141 56.1269 17.9045 54.984C17.9045 54.984 19.8093 54.4761 20.4442 54.2221L29.7141 67.5554L36.0633 60.3173L39.9998 65.6507L43.9363 60.3173L50.2855 67.5554L59.5553 54.3491C59.6823 54.3491 68.5712 55.4919 70.095 63.8729C70.7299 68.0634 70.6029 72.5078 69.7141 76.8253Z" fill="#004D99"/>
</svg>
