<svg width="80" height="80" viewBox="0 0 80 80" fill="none" xmlns="http://www.w3.org/2000/svg">
<path d="M53.3333 13.3398C60.5833 13.3798 64.51 13.7032 67.07 16.2632C70 19.1932 70 23.9065 70 33.3332V53.3332C70 62.7632 70 67.4765 67.07 70.4065C64.1433 73.3332 59.4267 73.3332 50 73.3332H30C20.5733 73.3332 15.8567 73.3332 12.93 70.4065C10 67.4732 10 62.7632 10 53.3332V33.3332C10 23.9065 10 19.1932 12.93 16.2632C15.49 13.7032 19.4167 13.3798 26.6667 13.3398" stroke="#004D99" stroke-width="3"/>
<path d="M26.6668 46.6667H53.3335M23.3335 35H56.6668M30.0002 58.3333H50.0002" stroke="#004D99" stroke-width="3" stroke-linecap="round"/>
<path d="M26.6665 11.666C26.6665 10.3399 27.1933 9.06816 28.131 8.13048C29.0687 7.1928 30.3404 6.66602 31.6665 6.66602H48.3332C49.6593 6.66602 50.931 7.1928 51.8687 8.13048C52.8064 9.06816 53.3332 10.3399 53.3332 11.666V14.9993C53.3332 16.3254 52.8064 17.5972 51.8687 18.5349C50.931 19.4726 49.6593 19.9993 48.3332 19.9993H31.6665C30.3404 19.9993 29.0687 19.4726 28.131 18.5349C27.1933 17.5972 26.6665 16.3254 26.6665 14.9993V11.666Z" stroke="#004D99" stroke-width="3"/>
</svg>
