<svg width="30" height="30" viewBox="0 0 30 30" fill="none" xmlns="http://www.w3.org/2000/svg">
<path d="M8.2943 7.835L6.1653 20.671C5.9853 21.752 5.8963 22.293 6.1953 22.646C6.4923 23 7.0373 23 8.1283 23H8.5303C9.3533 23 9.7643 23 10.0453 22.756C10.3253 22.511 10.3843 22.102 10.5003 21.283L10.9683 17.993C11.0053 17.733 11.0233 17.603 11.0523 17.492C11.1528 17.103 11.3687 16.7535 11.6716 16.4895C11.9745 16.2255 12.3502 16.0594 12.7493 16.013C12.8623 16 12.9933 16 13.2543 16H14.4163C15.9223 15.9974 17.3827 15.4825 18.5573 14.5401C19.732 13.5976 20.5512 12.2836 20.8803 10.814C21.5543 7.836 19.3023 5 16.2633 5H11.6233C10.5093 5 9.9533 5 9.5133 5.235C9.2633 5.369 9.0433 5.555 8.8713 5.782C8.5683 6.179 8.4773 6.731 8.2943 7.835Z" stroke="#004D99" stroke-width="1.5"/>
<path d="M10.2433 22.5L10.0153 23.832C9.91032 24.442 10.3853 25 11.0113 25H13.0013C13.4963 25 13.9183 24.646 13.9993 24.164L14.7293 19.835C14.8093 19.353 15.2323 19 15.7263 19H17.5293C20.1103 19 22.3453 17.227 22.9053 14.735C23.2973 12.99 22.4443 11.31 21.0003 10.5" stroke="#004D99" stroke-width="1.5"/>
</svg>
