<svg width="52" height="52" viewBox="0 0 52 52" fill="none" xmlns="http://www.w3.org/2000/svg">
<path d="M50.9087 30.8254C50.2592 29.1403 47.5343 27.537 44.285 26.927C41.9465 26.4861 36.0091 26.0165 31.4185 31.1044C28.3311 34.5267 27.597 39.0464 29.6338 42.0949C29.6617 42.1368 29.6967 42.173 29.7254 42.2143C25.8592 44.1425 21.3633 44.6316 17.1108 43.4693C19.3283 41.8547 19.9898 40.1954 20.1214 38.9906C20.3229 37.1474 19.4066 35.6557 18.5602 34.9378C17.5584 34.0878 16.265 33.9966 15.2263 33.9241C14.1252 33.8478 13.5833 33.7697 13.3781 33.3847C13.1969 33.048 13.2346 32.9011 13.5244 32.2371C13.9062 31.363 14.483 30.0424 13.7562 27.7751C13.4756 26.8991 13.736 26.5001 14.1674 25.8389C14.6054 25.1684 15.2061 24.2505 14.9181 22.8444C14.7691 22.1153 14.2834 21.1193 12.8197 20.5148C10.6718 19.6268 7.33218 19.9842 4.51454 21.2546C4.95465 19.6276 5.62117 18.0527 6.51626 16.5734C10.0332 10.7398 16.3202 7.63567 22.6384 7.92524C22.3735 9.08068 22.8625 10.2756 23.2529 11.229C23.5593 11.9795 23.8776 12.755 23.7773 13.2917C23.6789 13.8152 23.091 14.2597 22.4682 14.7303C21.6016 15.3869 20.5225 16.2025 20.5051 17.6151C20.4959 18.3451 20.7093 18.9385 21.138 19.3793C21.954 20.2163 23.2861 20.219 24.574 20.2218C25.2888 20.2237 26.0275 20.2256 26.6292 20.366C27.1922 20.4906 27.5823 21.0012 28.0367 21.5917C28.5684 22.2836 29.1719 23.0676 30.1913 23.2145C30.3863 23.2424 30.5703 23.2554 30.7433 23.2554C32.2869 23.2554 32.9935 22.2092 33.5712 21.3508C33.9042 20.8561 34.2501 20.3446 34.7708 19.9428C34.7708 19.9419 34.7708 19.9419 34.7708 19.9419C35.1499 19.648 35.8508 19.5002 36.5279 19.357C37.1003 19.2359 37.711 19.1022 38.2499 18.855C38.8615 20.2961 39.2957 21.8253 39.523 23.4153C39.5996 23.9339 40.0743 24.2977 40.5873 24.2203C41.1003 24.1428 41.4601 23.663 41.3835 23.1444C40.5414 17.2235 37.1572 12.0378 32.1116 8.92644C22.7861 3.17579 10.5894 6.16334 4.90073 15.5827C2.15209 20.1414 1.31752 25.5128 2.56552 30.7062C3.80586 35.8996 6.97562 40.2958 11.4853 43.0821C14.701 45.0558 18.2535 46 21.7678 46C24.9895 46 28.1763 45.2002 31.0289 43.6846C32.5948 45.0657 34.6685 45.8668 36.7616 45.8668C37.1277 45.8668 37.4939 45.8426 37.8582 45.7924C40.0697 45.4874 44.1213 43.9492 46.4119 37.0507C47.4515 33.9222 49.0393 33.0574 49.8931 32.5942C50.3493 32.3469 51.2969 31.8298 50.9087 30.8254ZM36.1415 17.4924C35.3007 17.6709 34.3458 17.8727 33.6264 18.4289C32.8647 19.0175 32.3937 19.7169 32.0146 20.2786C31.3946 21.2002 31.2014 21.4392 30.4562 21.3285C30.1913 21.2904 29.8527 20.8496 29.5252 20.4227C28.9622 19.6908 28.2612 18.7785 27.0432 18.5079C26.2447 18.3219 25.3974 18.3201 24.5786 18.3172C23.804 18.3154 22.7442 18.3135 22.4802 18.0429C22.402 17.962 22.3873 17.7788 22.3891 17.6393C22.3946 17.1966 22.8491 16.8218 23.597 16.2555C24.3983 15.6501 25.3946 14.8968 25.6283 13.6451C25.8325 12.5514 25.3864 11.4615 24.9935 10.5008C24.5017 9.29955 24.2917 8.64221 24.5733 8.12201C26.8308 8.4772 29.0566 9.27509 31.1239 10.5518C33.7883 12.1939 35.935 14.4755 37.4182 17.1513C37.0725 17.2953 36.5736 17.4017 36.1415 17.4924ZM4.05803 23.6191C6.7802 21.9367 10.3524 21.5499 12.1067 22.278C12.6661 22.5086 12.9908 22.8285 13.0727 23.2294C13.1969 23.8339 13.0055 24.1621 12.5952 24.7899C12.093 25.5599 11.4039 26.6145 11.9642 28.3628C12.4692 29.9382 12.1444 30.6803 11.8013 31.4671C11.4821 32.1981 11.0856 33.1057 11.7204 34.2924C12.4416 35.639 13.9144 35.7413 15.0966 35.825C15.9816 35.8864 16.8169 35.944 17.3496 36.396C17.7433 36.7308 18.3771 37.6105 18.2493 38.7823C18.0984 40.1621 16.9195 41.5027 14.8312 42.6743C14.0281 42.331 13.239 41.9291 12.4729 41.4568C8.38441 38.9336 5.52087 34.9631 4.39541 30.2573C3.87833 28.0989 3.76197 25.9069 4.02418 23.7669C4.03746 23.7176 4.04424 23.6684 4.05803 23.6191ZM44.6272 36.4443C43.1682 40.8338 40.6751 43.4824 37.6061 43.9046C35.7473 44.1572 33.7824 43.5262 32.3536 42.3152C34.0458 38.9691 36.1326 36.3727 38.5739 34.6142C38.9971 34.3091 39.0964 33.7139 38.7947 33.2861C38.4929 32.8583 37.9042 32.7598 37.481 33.0629C34.9623 34.8774 32.7984 37.461 31.0311 40.7532C29.7325 38.462 30.4459 35.0077 32.8095 32.3878C35.6264 29.2668 39.0486 28.5767 41.5178 28.5767C42.515 28.5767 43.3577 28.6902 43.9409 28.8C46.32 29.2463 48.0734 30.2414 48.8094 31.0207C47.7496 31.6085 45.8269 32.8305 44.6272 36.4443Z" fill="#004D99"/>
</svg>
