<svg width="52" height="52" viewBox="0 0 52 52" fill="none" xmlns="http://www.w3.org/2000/svg">
<path d="M27.1938 29.4842C23.9004 33.0223 11.2904 39.024 15.2273 45.5608C16.6399 47.9052 20.7133 47.6668 23.5299 47.6668H28.4656C35.8648 47.6668 39.5633 47.6668 42.0939 45.563C44.6246 43.457 45.1663 39.9297 46.2518 32.8728L46.9018 28.6283C47.6688 23.6515 48.0501 21.1642 47.1098 18.9563C46.1694 16.7507 44.0808 15.2405 39.9056 12.2223L36.7878 9.96683C31.5943 6.212 28.9964 4.3335 25.9999 4.3335C23.0034 4.3335 20.4056 6.212 15.2121 9.96683L12.0921 12.2223C7.91692 15.2405 5.83042 16.7507 4.88792 18.9563C3.94759 21.1642 4.32892 23.6515 5.09376 28.6283L5.74592 32.875C6.51726 37.893 7.01559 41.1278 8.14876 43.3335M26.3921 39.2732C31.5206 38.2787 35.0371 35.1218 36.6903 30.0193C38.5623 24.2408 36.0251 17.0822 29.6291 15.4247C29.6291 15.4247 31.6008 17.7755 30.3268 19.8382C27.8719 24.2582 20.8541 22.787 18.0374 28.4182C16.3799 31.5642 16.8826 35.2843 19.2703 37.6048C20.7696 39.063 23.9286 39.7498 26.3921 39.2732Z" stroke="#004D99" stroke-width="2" stroke-linecap="round" stroke-linejoin="round"/>
</svg>
