<svg width="52" height="52" viewBox="0 0 52 52" fill="none" xmlns="http://www.w3.org/2000/svg">
<circle cx="26.5" cy="26.5" r="23.5" stroke="#004D99" stroke-width="2"/>
<line x1="13.8214" y1="6.4296" x2="40.4518" y2="44.7774" stroke="#004D99" stroke-width="2"/>
<path d="M22.4416 13.0104H33.0087C33.136 13.0099 33.2615 13.0413 33.3736 13.1015C33.4858 13.1618 33.5812 13.2491 33.6512 13.3555C33.7211 13.4619 33.7634 13.5841 33.7742 13.711C33.785 13.8379 33.764 13.9655 33.713 14.0822L29.5787 23.732H36.548C36.6064 23.7326 36.6634 23.7499 36.7122 23.7818C36.7611 23.8137 36.7999 23.8589 36.8239 23.912C36.848 23.9652 36.8563 24.0241 36.848 24.0819C36.8397 24.1397 36.8151 24.1938 36.777 24.2381L22.5641 39.8583C22.5253 39.9163 22.467 39.9584 22.3998 39.9771C22.3326 39.9958 22.2609 39.9898 22.1977 39.9601C22.1346 39.9305 22.0841 39.8792 22.0556 39.8156C22.027 39.7519 22.0222 39.6802 22.042 39.6133L23.4522 28.3258H16.9276C16.8009 28.3275 16.6757 28.2978 16.5633 28.2393C16.4509 28.1808 16.3547 28.0954 16.2833 27.9907C16.212 27.886 16.1677 27.7652 16.1544 27.6392C16.1411 27.5131 16.1592 27.3858 16.2072 27.2685L21.7197 13.4843C21.7781 13.3416 21.8783 13.2198 22.0071 13.135C22.1359 13.0502 22.2874 13.0077 22.4416 13.0104Z" stroke="#004D99" stroke-width="2" stroke-linecap="round" stroke-linejoin="round"/>
</svg>
