<svg width="52" height="52" viewBox="0 0 52 52" fill="none" xmlns="http://www.w3.org/2000/svg">
<path d="M26 20.4141C24.8952 20.4141 23.8152 20.7417 22.8966 21.3555C21.978 21.9693 21.2621 22.8417 20.8393 23.8624C20.4165 24.8831 20.3059 26.0062 20.5214 27.0898C20.7369 28.1733 21.2689 29.1686 22.0501 29.9499C22.8314 30.7311 23.8267 31.2631 24.9102 31.4786C25.9938 31.6941 27.1169 31.5835 28.1376 31.1607C29.1583 30.7379 30.0307 30.022 30.6445 29.1034C31.2583 28.1848 31.5859 27.1048 31.5859 26C31.5843 24.519 30.9953 23.0991 29.9481 22.0519C28.9009 21.0047 27.481 20.4157 26 20.4141ZM26 30.1641C25.1764 30.1641 24.3713 29.9198 23.6866 29.4623C23.0018 29.0047 22.4681 28.3544 22.1529 27.5935C21.8377 26.8326 21.7553 25.9954 21.916 25.1876C22.0766 24.3799 22.4732 23.6379 23.0556 23.0556C23.6379 22.4732 24.3799 22.0766 25.1876 21.9159C25.9954 21.7553 26.8326 21.8377 27.5935 22.1529C28.3544 22.4681 29.0047 23.0018 29.4623 23.6866C29.9198 24.3713 30.1641 25.1764 30.1641 26C30.1629 27.104 29.7238 28.1625 28.9431 28.9431C28.1625 29.7238 27.104 30.1629 26 30.1641Z" fill="#004D99"/>
<path d="M28.4374 25.2891C28.2488 25.2891 28.068 25.364 27.9347 25.4973C27.8013 25.6306 27.7264 25.8114 27.7264 26C27.7254 26.3023 27.6454 26.5991 27.4944 26.8611C27.3434 27.123 27.1267 27.3409 26.8656 27.4934C26.7849 27.5404 26.7143 27.6029 26.6578 27.6772C26.6013 27.7515 26.5599 27.8362 26.5361 27.9265C26.5124 28.0168 26.5066 28.1109 26.5192 28.2034C26.5318 28.2959 26.5624 28.3851 26.6095 28.4657C26.6565 28.5464 26.7189 28.617 26.7933 28.6735C26.8676 28.7301 26.9523 28.7714 27.0426 28.7952C27.1329 28.819 27.227 28.8247 27.3195 28.8122C27.412 28.7996 27.5012 28.7689 27.5818 28.7219C28.0573 28.4439 28.452 28.0465 28.7268 27.5691C29.0015 27.0917 29.1468 26.5508 29.1483 26C29.1483 25.8114 29.0734 25.6306 28.9401 25.4973C28.8068 25.364 28.6259 25.2891 28.4374 25.2891Z" fill="#004D99"/>
<path d="M44.3746 24.3384C44.6338 24.4065 44.9005 24.4415 45.1684 24.4424C45.7909 24.4421 46.3992 24.2572 46.9167 23.9113C47.4341 23.5653 47.8375 23.0738 48.0757 22.4988C48.3139 21.9237 48.3764 21.291 48.2551 20.6804C48.1339 20.0699 47.8345 19.509 47.3947 19.0686C47.3431 19.0174 47.2882 18.9711 47.2322 18.9235C47.7603 17.0085 47.6384 15.3404 46.845 13.9648C45.1388 11.0073 40.6582 10.0384 34.5105 11.2625C32.4902 5.32634 29.4092 1.92969 25.9999 1.92969C22.5907 1.92969 19.5101 5.32594 17.4878 11.2629C11.3388 10.038 6.85946 11.0073 5.15362 13.9644C4.38459 15.2929 4.24971 16.9622 4.74006 18.8151C4.16128 19.2682 3.75929 19.9095 3.60376 20.628C3.44823 21.3464 3.54897 22.0966 3.88851 22.7485C4.22806 23.4004 4.78501 23.913 5.46282 24.1974C6.14064 24.4818 6.89659 24.52 7.59965 24.3055C8.02134 24.8666 8.48325 25.4341 8.9809 26.0024C4.84975 30.7166 3.44859 35.0809 5.15322 38.0352C6.37806 40.1586 9.02925 41.26 12.7026 41.26C14.3106 41.2403 15.9129 41.0645 17.487 40.7351C19.5089 46.6728 22.5903 50.0703 25.9999 50.0703C27.5404 50.0703 29.0598 49.348 30.4252 47.9887C31.097 48.283 31.8505 48.3335 32.5556 48.1313C33.2606 47.9291 33.8729 47.487 34.2866 46.8814C34.7003 46.2757 34.8894 45.5446 34.8213 44.8143C34.7533 44.084 34.4322 43.4005 33.9137 42.8817C33.8625 42.8301 33.8077 42.7834 33.7536 42.7363C34.0197 42.107 34.2744 41.4363 34.5149 40.7351C36.0883 41.0647 37.6899 41.2405 39.2973 41.26C42.9702 41.26 45.6218 40.1582 46.8467 38.0352C48.5529 35.0809 47.1501 30.7166 43.0198 26.0028C43.4992 25.4556 43.9517 24.8991 44.3746 24.3384ZM46.3888 22.516C46.0648 22.8391 45.6258 23.0206 45.1682 23.0206C44.7106 23.0206 44.2717 22.8391 43.9477 22.516C43.7064 22.2746 43.5422 21.9671 43.4757 21.6324C43.4093 21.2976 43.4435 20.9507 43.5742 20.6355C43.7048 20.3202 43.926 20.0508 44.2098 19.8612C44.4936 19.6716 44.8272 19.5705 45.1684 19.5705C45.5097 19.5705 45.8433 19.6716 46.1271 19.8612C46.4108 20.0508 46.632 20.3202 46.7627 20.6355C46.8933 20.9507 46.9276 21.2976 46.8611 21.6324C46.7947 21.9671 46.63 22.2746 46.3888 22.516ZM45.6149 14.6754C46.1711 15.641 46.2783 16.8415 45.9436 18.2504C45.2759 18.0806 44.5711 18.1346 43.9371 18.4041C43.3032 18.6736 42.7752 19.1437 42.4342 19.7423C42.0932 20.3409 41.9581 21.0348 42.0496 21.7175C42.141 22.4003 42.454 23.0342 42.9406 23.5219C42.9917 23.5735 43.0466 23.6198 43.1006 23.6673C42.7708 24.0969 42.4225 24.5231 42.0558 24.9462C40.3132 23.1367 38.4152 21.4836 36.3837 20.0058C36.1184 17.5085 35.6372 15.0389 34.9456 12.6246C40.3032 11.5887 44.2653 12.3362 45.6149 14.6754ZM33.5517 39.0739C31.5738 38.5913 29.6349 37.9611 27.7513 37.1885C28.9639 36.6023 30.1717 35.9653 31.3567 35.2812C32.5511 34.5906 33.7069 33.8626 34.8099 33.109C34.5402 35.1259 34.1196 37.1199 33.5517 39.0739ZM18.4482 39.0739C17.8798 37.1199 17.4588 35.126 17.1888 33.109C18.2946 33.8626 19.45 34.5914 20.6439 35.2812C21.8277 35.9653 23.0343 36.6031 24.249 37.1885C22.3652 37.9611 20.4262 38.5913 18.4482 39.0739ZM18.4482 12.9261C20.4261 13.4086 22.365 14.0388 24.2486 14.8115C23.0355 15.3977 21.8282 16.0347 20.6431 16.7208C19.4487 17.4115 18.293 18.1395 17.188 18.8931C17.4582 16.8753 17.8794 14.8807 18.4482 12.9261ZM15.4374 30.0763C13.8247 28.8345 12.3088 27.4718 10.9029 26C12.309 24.5283 13.8249 23.1656 15.4374 21.9237C15.3371 23.2643 15.2839 24.6305 15.2839 26C15.2839 27.3695 15.3363 28.7341 15.4374 30.0763ZM21.3553 34.0494C19.8164 33.161 18.3437 32.2071 16.9649 31.215C16.7951 29.5124 16.7057 27.7619 16.7057 26C16.7057 24.2381 16.7951 22.488 16.9649 20.785C18.3425 19.7937 19.8156 18.8394 21.3553 17.9506C22.8787 17.0702 24.4403 16.2699 26.0003 15.5626C27.5616 16.2703 29.1228 17.0706 30.6462 17.9506C32.1851 18.839 33.6578 19.7929 35.0366 20.785C35.2064 22.4876 35.2958 24.2381 35.2958 26C35.2958 27.7619 35.2064 29.512 35.0366 31.215C33.659 32.2063 32.1859 33.1606 30.6462 34.0494C29.1228 34.9298 27.5612 35.7301 26.0012 36.4374C24.4391 35.7297 22.8779 34.9294 21.3545 34.0494H21.3553ZM33.5525 12.9244C34.1209 14.8785 34.5418 16.8724 34.8119 18.8894C33.7061 18.1358 32.5507 17.407 31.3588 16.7172C30.1721 16.0347 28.9656 15.3969 27.7509 14.8115C29.6346 14.0389 31.5737 13.4087 33.5517 12.9261L33.5525 12.9244ZM36.5624 21.9237C38.1751 23.1655 39.691 24.5282 41.097 26C39.6909 27.4717 38.175 28.8344 36.5624 30.0763C36.6628 28.7357 36.716 27.3695 36.716 26C36.716 24.6305 36.6636 23.2659 36.5624 21.9237ZM25.9999 3.35156C28.6966 3.35156 31.3271 6.41022 33.1154 11.568C30.6777 12.174 28.2968 12.9895 25.9995 14.0055C23.7025 12.9894 21.322 12.1739 18.8845 11.568C20.6732 6.40981 23.3032 3.35156 25.9999 3.35156ZM5.45546 22.516C5.17212 22.2335 4.99551 21.8615 4.95576 21.4634C4.916 21.0652 5.01555 20.6657 5.23744 20.3327C5.45932 19.9998 5.78981 19.7541 6.17257 19.6375C6.55533 19.521 6.96666 19.5408 7.33644 19.6936C7.70623 19.8464 8.01158 20.1227 8.20045 20.4754C8.38931 20.8281 8.45 21.2354 8.37217 21.6279C8.29434 22.0204 8.08281 22.3737 7.77363 22.6276C7.46445 22.8816 7.07676 23.0205 6.67665 23.0206C6.44977 23.0215 6.22496 22.9774 6.01526 22.8908C5.80557 22.8042 5.61556 22.6768 5.45546 22.516ZM8.9025 19.0686C8.53462 18.7013 8.08153 18.4309 7.58369 18.2814C7.08585 18.1319 6.55874 18.108 6.0494 18.2118C5.72115 16.82 5.83084 15.6321 6.38456 14.6774C7.73453 12.337 11.6967 11.5899 17.0543 12.6263C16.3627 15.0406 15.8814 17.5104 15.6158 20.0078C13.5842 21.484 11.6861 23.1357 9.94331 24.9438C9.54762 24.4871 9.17793 24.0332 8.83425 23.582C8.85659 23.5609 8.88056 23.5414 8.9025 23.5198C9.49223 22.929 9.82345 22.1284 9.82345 21.2936C9.82345 20.4588 9.49223 19.6582 8.9025 19.0673V19.0686ZM6.38375 37.3242C5.03743 34.9875 6.37075 31.1813 9.94534 27.0562C11.6876 28.8649 13.5852 30.5172 15.6162 31.9942C15.8815 34.4915 16.3627 36.9611 17.0543 39.3754C11.6963 40.4105 7.73412 39.6638 6.38456 37.3242H6.38375ZM32.9082 46.3288C32.6257 46.6122 32.2536 46.7889 31.8553 46.8287C31.4571 46.8685 31.0574 46.7689 30.7244 46.547C30.3913 46.3251 30.1456 45.9945 30.029 45.6116C29.9124 45.2288 29.9322 44.8173 30.085 44.4475C30.2379 44.0776 30.5142 43.7721 30.8671 43.5832C31.2199 43.3943 31.6273 43.3336 32.0199 43.4115C32.4124 43.4894 32.7658 43.701 33.0198 44.0103C33.2738 44.3195 33.4127 44.7073 33.4128 45.1076C33.4129 45.5654 33.2314 46.0045 32.9082 46.3288ZM31.6895 41.9603C31.0903 41.9603 30.5036 42.1313 29.9982 42.4532C29.4929 42.7752 29.09 43.2347 28.8368 43.7777C28.5836 44.3208 28.4907 44.9248 28.569 45.5188C28.6473 46.1129 28.8935 46.6722 29.2788 47.1311C28.2225 48.1374 27.1224 48.6484 26.002 48.6484C23.3053 48.6484 20.6748 45.5898 18.8865 40.432C21.3242 39.826 23.7051 39.0105 26.0024 37.9945C28.2999 39.0107 30.681 39.8262 33.1191 40.432C32.92 41.0028 32.7128 41.5492 32.4959 42.0672C32.2321 41.9968 31.9604 41.9609 31.6874 41.9603H31.6895ZM45.6173 37.3242C44.2674 39.6642 40.3052 40.4117 34.9476 39.3754C35.6392 36.961 36.1205 34.4912 36.3861 31.9938C38.4164 30.5169 40.3131 28.8647 42.0545 27.0562C45.6291 31.1813 46.9624 34.9875 45.6153 37.3242H45.6173Z" fill="#004D99"/>
</svg>
