<svg width="43" height="43" viewBox="0 0 43 43" fill="none" xmlns="http://www.w3.org/2000/svg">
<path d="M27.7646 22.8518C28.888 23.7756 29.7924 24.9369 30.413 26.2522C31.0335 27.5675 31.3547 29.004 31.3534 30.4584C31.3534 35.9005 26.9423 40.3125 21.4992 40.3125C16.0561 40.3125 11.645 35.9005 11.645 30.4584C11.645 27.3955 13.0425 24.6587 15.2346 22.8518C15.231 22.1352 15.2292 21.386 15.2292 20.6042C15.2292 15.1844 15.3278 11.3789 15.4469 8.75948C15.5992 5.40906 17.6328 2.74485 20.9859 2.6911C21.3284 2.68565 21.6709 2.68565 22.0134 2.6911C25.3665 2.74485 27.4 5.40906 27.5523 8.75948C27.6724 11.3789 27.7709 15.1844 27.7709 20.6042C27.7709 21.3865 27.7688 22.1358 27.7646 22.8518Z" stroke="white" stroke-width="2" stroke-linecap="round" stroke-linejoin="round"/>
<path d="M21.5001 26.8752C22.4504 26.8752 23.3619 27.2527 24.0339 27.9247C24.7059 28.5967 25.0834 29.5081 25.0834 30.4585C25.0834 31.4089 24.7059 32.3203 24.0339 32.9923C23.3619 33.6643 22.4504 34.0418 21.5001 34.0418C20.5497 34.0418 19.6383 33.6643 18.9663 32.9923C18.2943 32.3203 17.9167 31.4089 17.9167 30.4585C17.9167 29.5081 18.2943 28.5967 18.9663 27.9247C19.6383 27.2527 20.5497 26.8752 21.5001 26.8752ZM21.5001 26.8752V8.9585" stroke="white" stroke-width="2" stroke-linecap="round" stroke-linejoin="round"/>
</svg>
