<svg width="43" height="43" viewBox="0 0 43 43" fill="none" xmlns="http://www.w3.org/2000/svg">
<path d="M3.97095 41.4169V21.7085C3.97095 17.9915 3.97095 16.135 5.12586 14.9801C6.28077 13.8252 8.1373 13.8252 11.8543 13.8252C15.5713 13.8252 17.4278 13.8252 18.5827 14.9801C19.7376 16.135 19.7376 17.9915 19.7376 21.7085" stroke="white" stroke-width="2"/>
<path d="M31.5624 41.4164V29.5914C31.5624 25.8744 31.5624 24.0178 30.4075 22.8629C29.2526 21.708 27.396 21.708 23.679 21.708H19.7374C16.0204 21.708 14.1638 21.708 13.0089 22.8629C11.854 24.0178 11.854 25.8744 11.854 29.5914V41.4164" stroke="white" stroke-width="2"/>
<path d="M39.4459 41.4172V13.3761C39.4459 10.7352 39.4459 9.41276 38.7443 8.39975C38.0427 7.38674 36.805 6.92162 34.3296 5.99533C29.4912 4.18019 27.073 3.2736 25.3761 4.44822C23.6792 5.62678 23.6792 8.20858 23.6792 13.3761V21.7088" stroke="white" stroke-width="2"/>
<path d="M5.94167 13.825V10.8688C5.94167 9.01027 5.94168 8.082 6.51913 7.50455C7.09659 6.92709 8.02485 6.92709 9.88335 6.92709H13.825C15.6835 6.92709 16.6118 6.92709 17.1892 7.50455C17.7667 8.082 17.7667 9.01027 17.7667 10.8688V13.825M11.8542 5.94167V2M41.4167 41.4167H2M17.7667 27.6209H25.65M17.7667 33.5334H25.65" stroke="white" stroke-width="2" stroke-linecap="round"/>
</svg>
